<svg width="40" height="40" viewBox="0 0 40 40" fill="none" xmlns="http://www.w3.org/2000/svg">
<g clip-path="url(#clip0_467_461)">
<path d="M36.7488 8.72263H3.25131C2.62065 8.72263 2.10938 9.23583 2.10938 9.86886V14.9207C2.10938 15.5538 2.62065 16.067 3.25131 16.067H36.7487C37.3793 16.067 37.8906 15.5538 37.8906 14.9207V9.86886C37.8907 9.23583 37.3794 8.72263 36.7488 8.72263Z" fill="#EF0F3A"/>
<path d="M37.0175 38.2471H35.9189V16.9192H4.0812V38.2471H2.98255C2.50033 38.2471 2.10938 38.6394 2.10938 39.1235C2.10938 39.6076 2.50033 40 2.98255 40H37.0175C37.4997 40 37.8906 39.6076 37.8906 39.1235C37.8907 38.6395 37.4997 38.2471 37.0175 38.2471ZM26.2916 35.6267C25.6044 35.6267 25.0496 35.0697 25.0496 34.38C25.0496 33.6902 25.6045 33.1297 26.2916 33.1297C26.9786 33.1297 27.5335 33.6902 27.5335 34.38C27.5335 35.0697 26.9787 35.6267 26.2916 35.6267ZM13.7819 30.2473L15.05 26.9058C15.2118 26.4794 15.6256 26.193 16.0798 26.193H23.9201C24.3744 26.193 24.7881 26.4794 24.9499 26.9058L26.218 30.2473H13.7819ZM23.9878 34.3783C23.9878 34.5821 23.8235 34.7471 23.6204 34.7471H16.3797C16.1766 34.7471 16.0122 34.5821 16.0122 34.3783C16.0122 34.1745 16.1766 34.0095 16.3797 34.0095H23.6204C23.8235 34.0095 23.9878 34.1745 23.9878 34.3783ZM14.9505 34.38C14.9505 35.0697 14.3957 35.6267 13.7086 35.6267C13.0215 35.6267 12.4667 35.0697 12.4667 34.38C12.4667 33.6902 13.0215 33.1297 13.7086 33.1297C14.3957 33.1297 14.9505 33.6902 14.9505 34.38ZM14.9872 37.7915V36.7184H25.0129V37.7915C25.0129 37.9947 25.1343 38.1675 25.307 38.2471H14.6932C14.8659 38.1676 14.9872 37.9948 14.9872 37.7915ZM27.7025 38.2471C27.8752 38.1675 27.9966 37.9947 27.9966 37.7915V36.7184H28.3522C28.9218 36.7184 29.3811 36.2574 29.3811 35.6857C29.3379 35.4015 29.6673 33.5194 28.1244 31.8794L27.2829 30.9867L27.2658 30.9417C27.3962 30.9677 27.5331 30.9851 27.6779 30.9851C28.4015 30.9851 28.9878 30.6335 28.9878 30.1987C28.9878 29.7662 28.4015 29.4146 27.6779 29.4146C27.3256 29.4146 27.0067 29.4989 26.7705 29.6343L25.6367 26.6419C25.3648 25.9264 24.6813 25.4542 23.9206 25.4542H16.0794C15.3188 25.4542 14.6353 25.9263 14.3633 26.6419L13.2298 29.6337C12.9946 29.4987 12.677 29.4147 12.3253 29.4147C11.6017 29.4147 11.0123 29.7662 11.0123 30.1987C11.0123 30.6336 11.6017 30.9852 12.3253 30.9852C12.469 30.9852 12.6047 30.9679 12.734 30.9423L12.7171 30.9868L11.8757 31.8794C10.3327 33.5272 10.6626 35.4021 10.619 35.6858C10.619 36.2574 11.0783 36.7185 11.6479 36.7185H12.0035V37.7916C12.0035 37.9948 12.1249 38.1676 12.2976 38.2472H6.74775V22.7507H33.2523V38.2472L27.7025 38.2471Z" fill="#EF0F3A"/>
<path d="M10.2115 5.21279L7.59577 5.79148C7.21427 5.87233 7.09129 6.35314 7.37959 6.61272C8.05369 7.22976 8.94819 7.60423 9.93168 7.60423C11.0678 7.60423 12.0853 7.10209 12.7763 6.31056C13.2892 5.72333 14.0523 5.41693 14.8323 5.41693H15.0909V7.87228H16.7782V5.41708H23.222V7.87244H24.9093V5.41708H25.1721C25.9479 5.41708 26.711 5.72348 27.224 6.31072C27.9192 7.10224 28.9324 7.60439 30.0686 7.60439C31.0521 7.60439 31.9466 7.22991 32.6164 6.61288C32.9047 6.34906 32.7818 5.87249 32.4003 5.79163L29.7846 5.21295C29.4751 5.14488 29.2504 4.86828 29.2504 4.5491V3.0596C29.2504 2.73619 29.4751 2.46382 29.7846 2.39152L32.4045 1.81707C32.786 1.73198 32.909 1.2554 32.6207 0.991505C31.9466 0.374471 31.0521 0 30.0686 0C28.9324 0 27.9149 0.502144 27.224 1.29359C26.711 1.88082 25.948 2.18722 25.1679 2.18722H14.8324C14.0524 2.18722 13.2893 1.88082 12.7764 1.29359C12.0853 0.502144 11.0678 0 9.93168 0C8.94811 0 8.05361 0.378706 7.38381 0.991505C7.09551 1.25532 7.21849 1.73198 7.59999 1.81707L10.2115 2.39152C10.5209 2.46382 10.7456 2.73619 10.7456 3.0596V4.5447C10.7456 4.86812 10.521 5.14472 10.2115 5.21279ZM16.7528 3.0596H23.2476C23.6588 3.0596 23.9895 3.39149 23.9895 3.80431C23.9895 4.21282 23.6588 4.54902 23.2476 4.54902H16.7528C16.3416 4.54902 16.0109 4.21282 16.0109 3.80431C16.011 3.39149 16.3416 3.0596 16.7528 3.0596Z" fill="#EF0F3A"/>
</g>
<defs>
<clipPath id="clip0_467_461">
<rect width="40" height="40" fill="white"/>
</clipPath>
</defs>
</svg>
