<svg width="40" height="40" viewBox="0 0 40 40" fill="none" xmlns="http://www.w3.org/2000/svg">
<g clip-path="url(#clip0_272_530)">
<path fill-rule="evenodd" clip-rule="evenodd" d="M38.668 12.3328V35.6678C38.668 36.4043 38.071 37.0013 37.3346 37.0013H2.66542C1.92896 37.0013 1.33197 36.4043 1.33197 35.6678V12.3328H38.668ZM10.6651 23.6669H8.66733C8.29832 23.6669 7.99924 23.9624 7.99924 24.3398V25.6608C7.99924 26.0324 8.30301 26.3337 8.66733 26.3337H10.6642L10.6635 28.3315C10.6633 28.7006 10.9588 29 11.3362 29.0002L12.6571 29.001C13.0288 29.0012 13.3302 28.6975 13.3303 28.333L13.331 26.3338H15.3288C15.6978 26.3338 15.9969 26.0382 15.9969 25.6608V24.3399C15.9969 23.9682 15.6931 23.667 15.3288 23.667H13.332L13.3327 21.6692C13.3328 21.3001 13.0373 21.0007 12.66 21.0004L11.339 20.9997C10.9673 20.9995 10.6659 21.3033 10.6658 21.6677L10.6651 23.6669ZM24.0003 25.6608C24.0003 26.0325 24.3041 26.3338 24.6684 26.3338H31.3299C31.6989 26.3338 31.998 26.0382 31.998 25.6608V24.3399C31.998 23.9682 31.6942 23.667 31.3299 23.667H24.6684C24.2994 23.667 24.0003 23.9625 24.0003 24.3399V25.6608ZM0 9.65972V8.33876C0 7.96139 0.29588 7.66583 0.660906 7.66583H39.3391C39.701 7.66583 40 7.9671 40 8.33876V9.65972C40 10.0371 39.7041 10.3327 39.3391 10.3327H0.660906C0.299005 10.3327 0 10.0314 0 9.65972ZM24.0003 4.99267V3.67172C24.0003 3.29435 24.2994 2.99878 24.6684 2.99878H31.3299C31.6943 2.99878 31.998 3.30005 31.998 3.67172V4.99267C31.998 5.37004 31.6988 5.66561 31.3299 5.66561H24.6684C24.3041 5.66561 24.0003 5.36434 24.0003 4.99267ZM7.99916 4.99267V3.67172C7.99916 3.29435 8.29832 2.99878 8.66725 2.99878H15.3287C15.6931 2.99878 15.9968 3.30005 15.9968 3.67172V4.99267C15.9968 5.37004 15.6977 5.66561 15.3287 5.66561H8.66725C8.30293 5.66561 7.99916 5.36434 7.99916 4.99267Z" fill="#EF0F3A"/>
</g>
<defs>
<clipPath id="clip0_272_530">
<rect width="40" height="40" fill="white"/>
</clipPath>
</defs>
</svg>
