<svg width="40" height="40" viewBox="0 0 40 40" fill="none" xmlns="http://www.w3.org/2000/svg">
<g clip-path="url(#clip0_272_459)">
<path d="M39.7909 9.176L38.0973 10.8858L33.1797 5.92134L34.8733 4.21155C35.1527 3.92948 35.6069 3.92948 35.8864 4.21155L39.7909 8.15332C40.0703 8.43539 40.0703 8.89393 39.7909 9.176Z" fill="#EF0F3A"/>
<path d="M31.005 6.79486C30.4319 6.21625 29.5034 6.21625 28.9302 6.79486L16.4787 19.3651C15.9055 19.9437 15.9055 20.881 16.4787 21.4597L22.7045 27.7448C23.2776 28.3234 24.2061 28.3234 24.7792 27.7448L37.2308 15.1745C37.8039 14.5959 37.8039 13.6586 37.2308 13.08L31.005 6.79486ZM30.1582 13.3722L22.9939 20.6048C22.7847 20.816 22.5096 20.923 22.2345 20.923C21.9594 20.923 21.6843 20.8174 21.4751 20.6048C21.0552 20.1809 21.0552 19.4938 21.4751 19.07L28.6394 11.8374C29.0592 11.4136 29.7398 11.4136 30.1596 11.8374C30.5794 12.2612 30.578 12.9483 30.1582 13.3722Z" fill="#EF0F3A"/>
<path d="M16.5151 24.5653L19.6273 27.7071L13.4889 33.904C12.0589 35.3477 9.73197 35.3491 8.30055 33.904L6.74446 32.3331L3.11217 36L0 32.8582L4.15099 28.6676C5.58098 27.224 7.90794 27.2226 9.33937 28.6676L10.8955 30.2386L16.5151 24.5653Z" fill="#EF0F3A"/>
</g>
<defs>
<clipPath id="clip0_272_459">
<rect width="40" height="40" fill="white"/>
</clipPath>
</defs>
</svg>
