<svg width="40" height="40" viewBox="0 0 40 40" fill="none" xmlns="http://www.w3.org/2000/svg">
<g clip-path="url(#clip0_467_502)">
<path d="M6.06953 35.6961C7.04423 35.6961 7.83437 34.9059 7.83437 33.9312C7.83437 32.9565 7.04423 32.1664 6.06953 32.1664C5.09483 32.1664 4.30469 32.9565 4.30469 33.9312C4.30469 34.9059 5.09483 35.6961 6.06953 35.6961Z" fill="#EF0F3A"/>
<path d="M1.77617 29.6383C0.927133 30.4873 0.348934 31.5691 0.114692 32.7468C-0.119549 33.9245 0.000688106 35.1451 0.4602 36.2545C0.919711 37.3638 1.69786 38.312 2.69624 38.9791C3.69462 39.6462 4.8684 40.0022 6.06914 40.0022C7.26989 40.0022 8.44366 39.6462 9.44205 38.9791C10.4404 38.312 11.2186 37.3638 11.6781 36.2545C12.1376 35.1451 12.2578 33.9245 12.0236 32.7468C11.7894 31.5691 11.2112 30.4873 10.3621 29.6383C9.22285 28.501 7.67888 27.8623 6.06914 27.8623C4.4594 27.8623 2.91544 28.501 1.77617 29.6383ZM8.14571 36.0078C7.735 36.4185 7.21173 36.6982 6.64206 36.8115C6.07239 36.9249 5.48191 36.8667 4.94529 36.6444C4.40868 36.4222 3.95002 36.0457 3.62733 35.5628C3.30464 35.0799 3.1324 34.5121 3.1324 33.9313C3.1324 33.3504 3.30464 32.7826 3.62733 32.2997C3.95002 31.8168 4.40868 31.4403 4.94529 31.2181C5.48191 30.9958 6.07239 30.9376 6.64206 31.051C7.21173 31.1643 7.735 31.444 8.14571 31.8547C8.69568 32.4058 9.00455 33.1526 9.00455 33.9313C9.00455 34.7099 8.69568 35.4567 8.14571 36.0078Z" fill="#EF0F3A"/>
<path d="M39.3703 3.84376L36.1562 0.629698C35.7521 0.225903 35.2041 -0.000915527 34.6328 -0.000915527C34.0615 -0.000915527 33.5135 0.225903 33.1094 0.629698L31.3906 2.34845L37.65 8.60782L39.3688 6.88907C39.7723 6.48517 39.9991 5.93768 39.9994 5.36674C39.9997 4.7958 39.7734 4.24807 39.3703 3.84376Z" fill="#EF0F3A"/>
<path d="M24.1352 10.6024L22.193 12.5445L20.943 11.2945C20.7429 11.0945 20.5054 10.9358 20.244 10.8275C19.9826 10.7192 19.7025 10.6635 19.4195 10.6635C19.1366 10.6635 18.8564 10.7192 18.5951 10.8275C18.3337 10.9358 18.0962 11.0945 17.8961 11.2945C17.696 11.4946 17.5373 11.7321 17.4291 11.9935C17.3208 12.2549 17.2651 12.5351 17.2651 12.818C17.2651 13.1009 17.3208 13.3811 17.4291 13.6425C17.5373 13.9039 17.696 14.1414 17.8961 14.3414L19.1461 15.5914L17.7586 16.9789L16.5086 15.7289C16.3085 15.5289 16.071 15.3702 15.8096 15.2619C15.5482 15.1536 15.2681 15.0979 14.9852 15.0979C14.7022 15.0979 14.4221 15.1536 14.1607 15.2619C13.8993 15.3702 13.6618 15.5289 13.4617 15.7289C13.2617 15.929 13.103 16.1665 12.9947 16.4279C12.8864 16.6893 12.8307 16.9694 12.8307 17.2524C12.8307 17.5353 12.8864 17.8154 12.9947 18.0768C13.103 18.3382 13.2617 18.5757 13.4617 18.7758L14.7117 20.0258L13.3234 21.4141L12.0734 20.1641C11.6694 19.76 11.1214 19.533 10.55 19.533C9.9786 19.533 9.4306 19.76 9.02656 20.1641C8.62252 20.5681 8.39553 21.1161 8.39553 21.6875C8.39553 21.9704 8.45126 22.2506 8.55953 22.512C8.6678 22.7734 8.8265 23.0109 9.02656 23.2109L10.2766 24.4609L7.82422 26.9133C9.096 27.2307 10.2575 27.888 11.1844 28.8149C12.1112 29.7417 12.7686 30.9032 13.0859 32.175L15.5461 29.7172L16.7961 30.9672C16.9962 31.1673 17.2337 31.326 17.4951 31.4342C17.7564 31.5425 18.0366 31.5982 18.3195 31.5982C18.6025 31.5982 18.8826 31.5425 19.144 31.4342C19.4054 31.326 19.6429 31.1673 19.843 30.9672C20.043 30.7671 20.2017 30.5296 20.31 30.2682C20.4183 30.0068 20.474 29.7267 20.474 29.4438C20.474 29.1608 20.4183 28.8807 20.31 28.6193C20.2017 28.3579 20.043 28.1204 19.843 27.9203L18.593 26.6703L19.9812 25.282L21.2312 26.532C21.6353 26.9361 22.1833 27.1631 22.7547 27.1631C23.3261 27.1631 23.8741 26.9361 24.2781 26.532C24.6822 26.128 24.9092 25.58 24.9092 25.0086C24.9092 24.4372 24.6822 23.8892 24.2781 23.4852L23.0281 22.2352L24.4156 20.8477L25.6656 22.0977C26.0697 22.5017 26.6177 22.7287 27.1891 22.7287C27.7605 22.7287 28.3085 22.5017 28.7125 22.0977C29.1165 21.6936 29.3435 21.1456 29.3435 20.5742C29.3435 20.0028 29.1165 19.4548 28.7125 19.0508L27.4625 17.8008L29.4047 15.8586L24.1352 10.6024Z" fill="#EF0F3A"/>
<path d="M29.8121 2.43048C29.4079 2.02668 28.86 1.79987 28.2887 1.79987C27.7174 1.79987 27.1694 2.02668 26.7652 2.43048L22.891 6.30939C22.6498 6.54986 22.4695 6.8445 22.3652 7.16876L32.834 17.6375C33.1582 17.5332 33.4529 17.353 33.6934 17.1117L37.5723 13.2328C37.9761 12.8287 38.2029 12.2807 38.2029 11.7094C38.2029 11.1381 37.9761 10.5901 37.5723 10.1859L29.8121 2.43048Z" fill="#EF0F3A"/>
</g>
<defs>
<clipPath id="clip0_467_502">
<rect width="40" height="40" fill="white"/>
</clipPath>
</defs>
</svg>
