<svg width="40" height="40" viewBox="0 0 40 40" fill="none" xmlns="http://www.w3.org/2000/svg">
<g clip-path="url(#clip0_272_500)">
<path d="M8.41719 0.343203L11.8848 3.81078L8.57023 7.12539L5.12242 3.67758H3.67141C3.02422 3.67758 2.49953 3.15289 2.49953 2.5057V1.17188C2.49953 0.524687 3.02422 0 3.67141 0H7.58859C7.89938 0 8.19742 0.123438 8.41719 0.343203Z" fill="#EF0F3A"/>
<path d="M10.4937 11.8103L9.67547 10.9921C9.21781 10.5344 9.21781 9.7925 9.67547 9.33484L14.0948 4.91539C14.5525 4.45773 15.2945 4.45773 15.7521 4.91539L16.5703 5.73351L10.4937 11.8103Z" fill="#EF0F3A"/>
<path d="M28.0781 24.9663H22.693V30.3515H28.0781V24.9663Z" fill="#EF0F3A"/>
<path d="M11.6855 13.9333L18.6936 6.92508C19.2839 6.33484 20.0686 6.00977 20.9034 6.00977H35.7031C38.0762 6.00977 40 7.93352 40 10.3066V35.7031C40 38.0763 38.0762 40 35.7031 40H15.067C12.6939 40 10.7702 38.0763 10.7702 35.7031V16.143C10.7702 15.3082 11.0952 14.5235 11.6855 13.9333ZM18.3483 33.0384C17.8906 33.4961 17.8906 34.238 18.3483 34.6957C18.5771 34.9245 18.877 35.039 19.1769 35.039C19.4767 35.039 19.7767 34.9246 20.0055 34.6958L22.006 32.6952H28.7641L30.7645 34.6957C30.9934 34.9245 31.2933 35.039 31.5931 35.039C31.893 35.039 32.193 34.9246 32.4217 34.6957C32.8794 34.238 32.8794 33.4961 32.4217 33.0384L30.4212 31.038V24.2798L32.4217 22.2793C32.8794 21.8216 32.8794 21.0797 32.4217 20.622C31.9641 20.1644 31.2221 20.1644 30.7645 20.622L28.764 22.6225H22.0059L20.0054 20.622C19.5477 20.1644 18.8057 20.1644 18.3481 20.622C17.8905 21.0796 17.8905 21.8216 18.3481 22.2792L20.3486 24.2797V31.0379L18.3483 33.0384ZM33.0023 15.3178C34.2782 15.3178 35.3125 14.2835 35.3125 13.0077C35.3125 11.7318 34.2782 10.6975 33.0023 10.6975H21.5506L16.9302 15.3179H33.0023V15.3178Z" fill="#EF0F3A"/>
<path d="M2.92969 19.6094C4.54516 19.6094 5.85938 18.2951 5.85938 16.6797C5.85938 16.265 5.74156 15.5342 4.72273 13.9816C4.21484 13.2077 3.71289 12.5797 3.69172 12.5533C3.50633 12.322 3.22602 12.1874 2.92969 12.1874C2.63336 12.1874 2.35305 12.322 2.16766 12.5533C2.14656 12.5796 1.64453 13.2076 1.13664 13.9816C0.117813 15.5342 0 16.265 0 16.6797C0 18.2951 1.31422 19.6094 2.92969 19.6094Z" fill="#EF0F3A"/>
</g>
<defs>
<clipPath id="clip0_272_500">
<rect width="40" height="40" fill="white"/>
</clipPath>
</defs>
</svg>
