<svg width="40" height="40" viewBox="0 0 40 40" fill="none" xmlns="http://www.w3.org/2000/svg">
<g clip-path="url(#clip0_272_548)">
<path d="M39.9917 19.4629C38.7622 8.82066 31.5838 1.60986 20.6202 0.0119266C19.9184 -0.0902704 19.2988 0.478108 19.2988 1.18794V9.08854C22.2949 9.35768 25.0636 10.6589 27.222 12.8191C29.3803 14.9793 30.6804 17.7661 30.9493 20.7647H38.8118C39.5067 20.7647 40.0715 20.1539 39.9917 19.4629Z" fill="#EF0F3A"/>
<path d="M23.2467 20.9473C22.7493 18.8982 21.07 17.2176 19.0227 16.7197C14.6693 15.6612 10.8246 19.5091 11.8822 23.8664C12.3796 25.9155 14.0588 27.5962 16.1061 28.094C20.4597 29.1524 24.3043 25.3045 23.2467 20.9473ZM17.5645 25.9254C15.6259 25.9254 14.0489 24.347 14.0489 22.4068C14.0489 20.4665 15.6259 18.8881 17.5645 18.8881C19.5031 18.8881 21.0801 20.4665 21.0801 22.4068C21.0801 24.347 19.5031 25.9254 17.5645 25.9254Z" fill="#EF0F3A"/>
<path d="M17.5645 21.2339C16.9179 21.2339 16.3926 21.7597 16.3926 22.4068C16.3926 23.0539 16.9179 23.5796 17.5645 23.5796C18.211 23.5796 18.7363 23.0539 18.7363 22.4068C18.7363 21.7597 18.211 21.2339 17.5645 21.2339Z" fill="#EF0F3A"/>
<path d="M29.2714 23.5797C28.6138 23.5797 28.1271 23.0287 28.1248 22.3706C28.1155 19.5698 27.0177 16.9347 25.0316 14.9469C23.0455 12.9591 20.4126 11.8603 17.6142 11.8508C16.9566 11.8487 16.4062 11.3616 16.4062 10.7035V4.87299C7.06368 5.49391 -0.310773 13.4315 0.0100863 23.0082C0.314383 32.091 7.9022 39.6854 16.9773 39.9899C26.5457 40.3111 34.4764 32.9303 35.0969 23.5797H29.2714ZM8.46298 13.2839C8.92063 12.8258 9.66259 12.8258 10.1202 13.2839C10.578 13.7419 10.578 14.4845 10.1202 14.9426C9.66259 15.4006 8.92063 15.4006 8.46298 14.9426C8.00532 14.4845 8.0054 13.7419 8.46298 13.2839ZM5.85931 23.5797C5.21212 23.5797 4.68743 23.0545 4.68743 22.4068C4.68743 21.7589 5.21212 21.2339 5.85931 21.2339C6.50649 21.2339 7.03118 21.7589 7.03118 22.4068C7.03118 23.0545 6.50649 23.5797 5.85931 23.5797ZM10.1202 31.5297C9.66259 31.9877 8.92063 31.9877 8.46298 31.5297C8.00532 31.0716 8.00532 30.3289 8.46298 29.8708C8.92063 29.4128 9.66259 29.4128 10.1202 29.8708C10.578 30.3289 10.578 31.0716 10.1202 31.5297ZM17.5781 35.3085C16.9309 35.3085 16.4062 34.7833 16.4062 34.1356C16.4062 33.4877 16.9309 32.9627 17.5781 32.9627C18.2252 32.9627 18.7499 33.4877 18.7499 34.1356C18.7499 34.7833 18.2252 35.3085 17.5781 35.3085ZM19.1856 30.4629C13.4168 31.5664 8.42634 26.5716 9.52868 20.7978C10.1413 17.5889 12.7644 14.9638 15.9704 14.3506C21.7392 13.2473 26.7297 18.242 25.6273 24.0157C25.0147 27.2246 22.3917 29.8497 19.1856 30.4629ZM26.6931 31.5297C26.2355 31.9877 25.4935 31.9877 25.0359 31.5297C24.5781 31.0716 24.5781 30.3289 25.0359 29.8708C25.4935 29.4128 26.2355 29.4128 26.6931 29.8708C27.1508 30.3289 27.1508 31.0716 26.6931 31.5297Z" fill="#EF0F3A"/>
</g>
<defs>
<clipPath id="clip0_272_548">
<rect width="40" height="40" fill="white"/>
</clipPath>
</defs>
</svg>
