<svg width="40" height="32" viewBox="0 0 40 32" fill="none" xmlns="http://www.w3.org/2000/svg">
<g clip-path="url(#clip0_275_596)">
<path d="M39.8796 19.6728L39.8559 19.6308C38.0717 16.4508 34.1575 15.3213 30.9451 17.0593L25.982 19.7114C26.0027 19.932 26.0223 20.1747 26.0223 20.2891C26.0223 22.1548 25.0078 23.9631 23.4378 24.896C22.7286 25.3174 21.9555 25.5275 21.169 25.5275C20.3241 25.5275 19.4637 25.2852 18.6495 24.8014C18.6352 24.7928 18.621 24.784 18.6071 24.7748L14.3447 21.9879C13.7998 21.6317 13.6386 20.888 13.9848 20.3271C14.3312 19.7663 15.0537 19.6005 15.5987 19.9568L19.8387 22.7291C20.9075 23.3552 21.7495 23.1205 22.2687 22.8119C22.9178 22.4264 23.4023 21.7401 23.5937 20.9877L23.5921 20.9886C23.7852 19.9167 23.4208 18.7515 22.1999 18.0261L17.3755 15.1596C16.9062 14.8084 16.33 14.6006 15.7089 14.6006H9.27734V25.9688H10.0235L19.2826 31.4816C19.8627 31.8269 20.4641 32 21.0445 32C21.5895 32 22.116 31.8475 22.5887 31.5415L39.6845 20.4833C39.9507 20.311 40.037 19.953 39.8796 19.6728Z" fill="white"/>
<path d="M5.76939 10.897H1.16914C0.523463 10.897 0 11.4357 0 12.1002V28.8548C0 29.5193 0.523463 30.058 1.16914 30.058H5.76939C6.41507 30.058 6.93853 29.5193 6.93853 28.8548V12.1002C6.93853 11.4357 6.41515 10.897 5.76939 10.897Z" fill="white"/>
<path d="M14.1582 5.88428C12.9955 5.88428 12.0527 6.85426 12.0527 8.05114C12.0527 8.14345 12.06 8.23422 12.0713 8.3233C12.2019 9.39136 13.0852 10.2174 14.1579 10.2174C15.2598 10.2174 16.163 9.34586 16.2547 8.23567C16.2595 8.17504 16.2634 8.11321 16.2634 8.05082C16.2637 6.85426 15.3212 5.88428 14.1582 5.88428ZM13.1043 7.23465L13.5334 7.67656C13.5002 7.73546 13.474 7.799 13.457 7.8669H12.852C12.883 7.63129 12.9707 7.416 13.1043 7.23465ZM12.8491 8.2421H13.459C13.4762 8.30883 13.5016 8.37203 13.5354 8.43008L13.1052 8.87261C12.9718 8.69267 12.8822 8.47735 12.8491 8.2421ZM13.9761 9.39715C13.748 9.36435 13.5408 9.27245 13.3654 9.13633L13.7934 8.69557C13.8498 8.7295 13.9115 8.7545 13.9761 8.77187V9.39715ZM13.9761 7.3304C13.9098 7.3484 13.8478 7.37509 13.79 7.41019L13.3612 6.96888C13.5374 6.83105 13.7466 6.73994 13.9761 6.70715V7.3304ZM14.3406 6.70657C14.5702 6.73936 14.7796 6.83105 14.9555 6.96859L14.527 7.40991C14.4695 7.3748 14.4069 7.34811 14.3409 7.33011L14.3406 6.70657ZM14.3406 9.39659V8.77219C14.4055 8.7545 14.4666 8.72982 14.523 8.69557L14.9513 9.13633C14.7759 9.27245 14.5684 9.36379 14.3406 9.39659ZM15.2123 8.87462L14.7807 8.42984C14.8145 8.37147 14.8419 8.30907 14.8591 8.24234H15.4641C15.432 8.47679 15.346 8.69388 15.2123 8.87462ZM14.8599 7.8669C14.8427 7.799 14.8168 7.73546 14.7835 7.67656L15.2132 7.23465C15.346 7.416 15.4337 7.6313 15.4652 7.86719H14.8599V7.8669Z" fill="white"/>
<path d="M31.6407 5.88428C30.478 5.88428 29.5352 6.85426 29.5352 8.05114C29.5352 8.14345 29.5425 8.23422 29.5538 8.3233C29.6843 9.39136 30.5677 10.2174 31.6402 10.2174C32.742 10.2174 33.6452 9.34586 33.7372 8.23567C33.742 8.17504 33.7459 8.11321 33.7459 8.05082C33.7465 6.85426 32.8037 5.88428 31.6407 5.88428ZM30.5868 7.23465L31.0156 7.67656C30.9823 7.73546 30.9562 7.799 30.9392 7.8669H30.3342C30.3655 7.63129 30.4532 7.416 30.5868 7.23465ZM30.332 8.2421H30.9418C30.959 8.30883 30.9844 8.37203 31.0182 8.43008L30.5882 8.87261C30.4543 8.69267 30.3644 8.47735 30.332 8.2421ZM31.4586 9.39715C31.2305 9.36435 31.0233 9.27245 30.8479 9.13633L31.2759 8.69557C31.3323 8.7295 31.394 8.7545 31.4586 8.77187V9.39715ZM31.4586 7.3304C31.3923 7.3484 31.3303 7.37509 31.2725 7.41019L30.8437 6.96888C31.0198 6.83105 31.2287 6.73994 31.4586 6.70715V7.3304ZM31.8234 6.70657C32.0529 6.73936 32.2623 6.83105 32.4383 6.96859L32.0095 7.40991C31.952 7.3748 31.8894 7.34752 31.8234 7.33011V6.70657ZM31.8234 9.39659V8.77219C31.8882 8.7545 31.9495 8.72982 32.0058 8.69557L32.4341 9.13633C32.2587 9.27245 32.0509 9.36379 31.8234 9.39659ZM32.6948 8.87462L32.2632 8.4304C32.297 8.37179 32.3247 8.30972 32.3416 8.24266H32.9466C32.9145 8.47679 32.8288 8.69388 32.6948 8.87462ZM32.3424 7.8669C32.3252 7.799 32.2996 7.73546 32.266 7.67656L32.6954 7.23465C32.8285 7.416 32.9159 7.6313 32.9477 7.86719H32.3424V7.8669Z" fill="white"/>
<path d="M36.6961 4.76248V3.15909C36.6961 2.90114 36.5139 2.68265 36.2664 2.6429C35.6723 2.54715 34.6193 2.36638 34.1463 2.21638C33.4679 2.00108 30.847 0.859031 29.9395 0.644608C29.0316 0.430184 24.9384 -0.714765 21.0181 0.68378C20.3547 0.920257 17.3704 2.38844 15.6156 3.15183C15.0988 3.16344 9.98368 4.26081 9.71133 5.01289C9.43891 5.76526 9.35352 6.13027 9.30336 6.32119C9.25313 6.51211 9.30336 7.42581 9.68336 8.06215C10.0708 8.2876 10.8165 8.43899 11.6787 8.54062C11.6688 8.48635 11.6581 8.43297 11.6513 8.37813C11.6363 8.2609 11.6293 8.15381 11.6293 8.0517C11.6293 6.61686 12.7633 5.44928 14.1577 5.44928C15.5522 5.44928 16.6862 6.61657 16.6862 8.0517C16.6862 8.12535 16.6813 8.19851 16.676 8.27047C16.6627 8.43152 16.6345 8.5879 16.5937 8.73849C16.5956 8.73849 16.6004 8.73849 16.6004 8.73849L29.1512 8.47847C29.1456 8.44511 29.1382 8.41206 29.134 8.37813C29.119 8.26147 29.112 8.15413 29.112 8.0517C29.112 6.61686 30.2459 5.44957 31.6404 5.44957C33.0348 5.44957 34.1691 6.61657 34.1691 8.0517C34.1691 8.05717 34.1685 8.06183 34.1682 8.06705L34.2218 8.06239L36.3677 7.64662C36.3677 7.64662 37.1895 7.1963 37.1895 5.95734C37.1898 5.13098 36.6961 4.76248 36.6961 4.76248ZM24.246 3.24236L19.5588 3.39005C19.6451 2.66728 19.2292 2.50508 19.2292 2.50508C21.0925 0.764442 24.848 0.70554 24.848 0.70554L24.246 3.24236ZM29.5064 3.02156L25.2351 3.16925L25.6221 0.705831C27.8297 0.676235 29.0908 1.17762 29.0908 1.17762L29.7215 2.22508L29.5064 3.02156ZM31.9145 3.00646H30.7244L29.5346 1.32502C30.4272 1.69061 31.1416 2.05099 31.5671 2.27876C31.8253 2.41688 31.9663 2.71196 31.9145 3.00646Z" fill="white"/>
</g>
<defs>
<clipPath id="clip0_275_596">
<rect width="40" height="32" fill="white"/>
</clipPath>
</defs>
</svg>
