<svg width="40" height="40" viewBox="0 0 40 40" fill="none" xmlns="http://www.w3.org/2000/svg">
<g clip-path="url(#clip0_275_594)">
<path fill-rule="evenodd" clip-rule="evenodd" d="M29.1467 6.179L32.2305 3.94625L36.0537 7.76942L33.8209 10.8532C34.9776 12.597 35.813 14.5725 36.2428 16.6951L40 17.2966V22.7034L37.326 23.1314C35.9884 22.1149 34.3904 21.4237 32.6498 21.1745C32.6853 20.7877 32.7043 20.3961 32.7043 20C32.7043 12.9836 27.0164 7.29567 20 7.29567C12.9836 7.29567 7.29567 12.9836 7.29567 20C7.29567 27.0164 12.9836 32.7043 20 32.7043C20.3961 32.7043 20.7877 32.6853 21.1745 32.6498C21.4237 34.3905 22.1149 35.9883 23.1314 37.326L22.7034 40H17.2966L16.6952 36.2428C14.5724 35.8133 12.5973 34.9775 10.8533 33.821L7.7695 36.0537L3.94625 32.2306L6.179 29.1468C5.02233 27.4029 4.18692 25.4275 3.75717 23.3049L0 22.7034V17.2966L3.75708 16.6952C4.18667 14.5724 5.0225 12.5973 6.179 10.8533L3.94625 7.7695L7.7695 3.94633L10.8533 6.17908C12.5972 5.02242 14.5726 4.187 16.6952 3.75725L17.2966 0H22.7034L23.3048 3.75708C25.4273 4.18692 27.4027 5.02242 29.1467 6.179ZM26.2162 32.4918L28.9927 35.2683C29.4982 35.7739 30.318 35.7739 30.8236 35.2683C33.3073 32.7846 33.7198 32.3177 36.1918 29.8211C36.6946 29.3155 36.6923 28.4981 36.1868 27.9953C35.6813 27.4924 34.8638 27.4948 34.361 28.0002L29.9062 32.5199L28.0472 30.6609C27.5417 30.1553 26.7218 30.1553 26.2163 30.6609C25.7106 31.1665 25.7106 31.9863 26.2162 32.4918ZM31.2022 22.4044C26.3433 22.4044 22.4043 26.3433 22.4043 31.2023C22.4044 36.0611 26.3433 40 31.2022 40C36.0611 40 40 36.0611 40 31.2022C40 26.3433 36.0611 22.4044 31.2022 22.4044ZM29.8993 30.6275L28.9898 29.7182C27.9639 28.6923 26.2993 28.6923 25.2734 29.7182C24.2475 30.7441 24.2475 32.4088 25.2734 33.4347L28.0499 36.2112C29.0758 37.2371 30.7405 37.2371 31.7664 36.2112C33.5711 34.4066 35.3428 32.5723 37.139 30.7595C38.1579 29.7312 38.1538 28.0711 37.127 27.0498C36.0985 26.027 34.4308 26.0302 33.4114 27.0643L29.8993 30.6275ZM13.8873 27.5059H15.7709V22.9381C15.7709 22.5699 16.0694 22.2714 16.4376 22.2714C16.8058 22.2714 17.1043 22.5699 17.1043 22.9381V27.5059H21.7668C22.0604 26.7568 22.4411 26.0514 22.8957 25.4016V22.9381C22.8957 22.5699 23.1942 22.2714 23.5623 22.2714C23.9305 22.2714 24.229 22.5699 24.229 22.9381V23.8531C24.9123 23.2045 25.6862 22.6506 26.5294 22.2114V21.5747C26.5294 20.1217 25.2353 19.2965 23.7628 18.9313C21.2903 18.3179 18.7837 18.2764 16.2373 18.9313C14.7683 19.3088 13.4706 20.1208 13.4706 21.5747V27.0894C13.4706 27.3188 13.6578 27.5059 13.8873 27.5059ZM20 10.8811C18.3773 10.8811 17.0618 11.8059 17.0618 13.9387C17.0618 16.0714 18.3772 17.8004 20 17.8004C21.6228 17.8004 22.9383 16.0714 22.9383 13.9387C22.9383 11.8059 21.6228 10.8811 20 10.8811Z" fill="white"/>
</g>
<defs>
<clipPath id="clip0_275_594">
<rect width="40" height="40" fill="white"/>
</clipPath>
</defs>
</svg>
