<svg width="40" height="40" viewBox="0 0 40 40" fill="none" xmlns="http://www.w3.org/2000/svg">
<g clip-path="url(#clip0_275_579)">
<path d="M28.9341 31.7226C29.4114 30.63 30.1654 29.7147 31.0814 29.0145C30.7752 29.0518 30.4731 29.0752 30.1764 29.0752C28.6285 29.0752 27.2138 28.5641 26.0067 27.5515C24.227 29.1311 21.9397 30.1416 19.4199 30.3065C19.4737 30.8114 19.5986 31.2826 19.7786 31.7227L28.9341 31.7226Z" fill="white"/>
<path d="M28.3531 19.3064C28.3531 13.9813 24.0212 9.64941 18.6961 9.64941C13.3709 9.64941 9.03906 13.9813 9.03906 19.3064C9.03906 24.6316 13.3709 28.9634 18.6961 28.9634C24.0212 28.9634 28.3531 24.6316 28.3531 19.3064ZM11.1084 19.3064C11.1084 15.116 14.5057 11.7188 18.6961 11.7188C22.8865 11.7188 26.2837 15.116 26.2837 19.3064C26.2837 23.4968 22.8865 26.8941 18.6961 26.8941C14.5057 26.8941 11.1084 23.4969 11.1084 19.3064Z" fill="white"/>
<path d="M18.3185 31.7225C18.1791 31.2728 18.0846 30.8024 18.0419 30.3098C15.518 30.1608 13.2238 29.1655 11.4352 27.5969C10.4881 28.7709 10.139 30.1553 10.3846 31.7225H18.3185Z" fill="white"/>
<path d="M36.8316 10.424L35.739 11.5166L34.7637 10.5413L36.2239 9.08103C35.9811 8.60232 35.7156 8.13809 35.4293 7.68699L33.6696 9.44665L32.6943 8.47131L34.6292 6.53577C34.3153 6.12327 33.9829 5.72599 33.6317 5.34521L31.6003 7.37734L30.625 6.40199L32.6564 4.36986C32.2756 4.01947 31.8783 3.68699 31.4658 3.37242L29.531 5.30796L28.5556 4.33262L30.3153 2.57295C29.8648 2.28668 29.4006 2.02115 28.9219 1.77832L27.4616 3.23858L26.4863 2.26324L27.5789 1.17062C25.7695 0.448336 23.8043 0.0359019 21.748 0L38.0029 16.2541C37.967 14.1986 37.5545 12.2333 36.8316 10.424Z" fill="white"/>
<path d="M7.69494 20.0334C4.97785 20.33 3.60933 22.4587 2.92578 24.3474C3.46519 26.0381 4.27914 27.6356 5.35384 29.0973C6.86381 29.4229 8.19717 30.3679 8.98283 31.7227H8.98418C8.73792 29.8057 9.24425 28.0689 10.4562 26.6244C8.87378 24.8447 7.86118 22.556 7.69494 20.0334Z" fill="white"/>
<path d="M37.5864 17.7881L20.2148 0.416504C19.7823 0.743461 19.4774 1.22979 19.4043 1.79331L36.2096 18.5992C36.7732 18.5262 37.2595 18.2206 37.5864 17.7881Z" fill="white"/>
<path d="M19.3553 8.30374C24.8922 8.63346 29.3337 13.0529 29.6966 18.5815C30.8982 18.4525 31.928 17.96 32.7689 17.1102L18.4178 2.75854C17.5266 2.77303 16.6527 2.85925 15.8008 3.01033C17.9247 4.23052 19.1566 6.05229 19.3553 8.30374Z" fill="white"/>
<path d="M32.4101 34.4817L34.1587 30.9838L39.9295 31.6246C38.9348 29.9719 37.1814 28.9634 35.2506 28.9634C32.9212 28.9634 30.8332 30.4423 30.0538 32.642L29.8917 33.1021H8.13235L7.94543 32.7089C7.26188 31.2721 5.79603 30.3429 4.21096 30.3429C1.92846 30.3429 0.0722656 32.1991 0.0722656 34.4816C0.0722656 36.7641 1.92846 38.6203 4.21096 38.6203C5.7961 38.6203 7.26188 37.6919 7.94543 36.2544L8.13235 35.8612H29.8909L30.0531 36.3213C30.8325 38.5217 32.9205 40 35.2499 40C37.1806 40 38.934 38.9915 39.9287 37.3388L34.1579 37.9795L32.4101 34.4817ZM4.21022 36.551C3.06721 36.551 2.14084 35.6246 2.14084 34.4816C2.14084 33.3386 3.06721 32.4123 4.21022 32.4123C5.35322 32.4123 6.27959 33.3386 6.27959 34.4816C6.27959 35.6246 5.35322 36.551 4.21022 36.551Z" fill="white"/>
<path d="M11.3836 11.062C13.1598 9.48515 15.4416 8.47532 17.9565 8.30699C17.7213 6.09279 16.2783 4.49108 13.6468 3.54126C10.1688 4.65873 7.19034 6.89637 5.13477 9.82868C7.49594 9.19336 9.65356 9.61138 11.3836 11.062Z" fill="white"/>
<path d="M7.69202 18.6477C7.84169 16.13 8.83361 13.8399 10.3974 12.0533C8.66743 10.6545 6.51595 10.5406 3.98584 11.7264C2.80976 13.9993 2.14062 16.5756 2.14062 19.3065C2.14062 20.2888 2.23237 21.2558 2.39861 22.2036C3.6182 20.0791 5.44057 18.8464 7.69202 18.6477Z" fill="white"/>
<path d="M35.2413 19.5823L33.7444 18.0854C32.6435 19.2022 31.2867 19.8285 29.6995 19.9637C29.5498 22.4821 28.5579 24.7729 26.9941 26.5594C28.7255 27.9597 30.8769 28.0735 33.4078 26.8864C34.5701 24.6329 35.1985 22.1421 35.2413 19.5823Z" fill="white"/>
<path d="M19.5828 21.1688L21.6556 23.2416L22.631 22.2663L20.5582 20.1935C20.6872 19.9238 20.7651 19.6251 20.7651 19.3064C20.7651 18.9878 20.6872 18.6891 20.5582 18.4194L22.6323 16.3452L21.657 15.3699L19.5828 17.444C19.3131 17.3151 19.0144 17.2371 18.6958 17.2371C18.3771 17.2371 18.0784 17.3151 17.8087 17.444L15.7332 15.3691L14.7578 16.3445L16.8334 18.4201C16.7044 18.6898 16.6265 18.9884 16.6265 19.3071C16.6265 19.6258 16.7044 19.9244 16.8334 20.1941L14.7592 22.2683L15.7346 23.2437L17.8087 21.1695C18.0784 21.2985 18.3771 21.3764 18.6958 21.3764C19.0144 21.3757 19.3131 21.2978 19.5828 21.1688Z" fill="white"/>
</g>
<defs>
<clipPath id="clip0_275_579">
<rect width="40" height="40" fill="white"/>
</clipPath>
</defs>
</svg>
