<svg width="40" height="40" viewBox="0 0 40 40" fill="none" xmlns="http://www.w3.org/2000/svg">
<path d="M7.5 5.375C7.125 5.375 6.875 5.125 6.875 4.75V0.625C6.875 0.25 7.125 0 7.5 0C7.875 0 8.125 0.25 8.125 0.625V4.75C8.125 5.125 7.8125 5.375 7.5 5.375Z" fill="white"/>
<path d="M20 5.375C19.625 5.375 19.375 5.125 19.375 4.75V0.625C19.375 0.25 19.625 0 20 0C20.375 0 20.625 0.25 20.625 0.625V4.75C20.625 5.125 20.3125 5.375 20 5.375Z" fill="white"/>
<path d="M32.5 5.375C32.125 5.375 31.875 5.125 31.875 4.75V0.625C31.875 0.25 32.125 0 32.5 0C32.875 0 33.125 0.25 33.125 0.625V4.75C33.125 5.125 32.875 5.375 32.5 5.375Z" fill="white"/>
<path d="M38.9375 4.6875V8.25H1.0625V4.6875C1.0625 3.25 2.25 2.0625 3.6875 2.0625H5.625V4.75C5.625 5.8125 6.4375 6.625 7.5 6.625C8.5625 6.625 9.375 5.8125 9.375 4.75V2.0625H18.125V4.75C18.125 5.8125 18.9375 6.625 20 6.625C21.0625 6.625 21.875 5.8125 21.875 4.75V2.0625H30.625V4.75C30.625 5.8125 31.4375 6.625 32.5 6.625C33.5625 6.625 34.375 5.8125 34.375 4.75V2.0625H36.3125C37.75 2.0625 38.9375 3.25 38.9375 4.6875Z" fill="white"/>
<path d="M25.5625 21.375H27.625V23H25.5625V21.375Z" fill="white"/>
<path d="M12.6875 29.25H14.75V30.875H12.6875V29.25Z" fill="white"/>
<path d="M5.8125 21.375V23H7.875V21.375H5.8125ZM12.375 21.375V23H14.4375V21.375H12.375ZM12.375 21.375V23H14.4375V21.375H12.375ZM5.8125 21.375V23H7.875V21.375H5.8125ZM5.8125 21.375V23H7.875V21.375H5.8125ZM6.125 29.25V30.875H8.1875V29.25H6.125ZM12.375 21.375V23H14.4375V21.375H12.375ZM19 21.375V23H21.0625V21.375H19ZM19 21.375V23H21.0625V21.375H19ZM12.375 21.375V23H14.4375V21.375H12.375ZM6.125 29.25V30.875H8.1875V29.25H6.125ZM5.8125 21.375V23H7.875V21.375H5.8125ZM5.8125 21.375V23H7.875V21.375H5.8125ZM6.125 29.25V30.875H8.1875V29.25H6.125ZM12.375 21.375V23H14.4375V21.375H12.375ZM18.6875 13.4375V15.0625H20.75V13.4375H18.6875ZM19 21.375V23H21.0625V21.375H19ZM32.125 21.375V23H34.1875V21.375H32.125ZM32.125 21.375V23H34.1875V21.375H32.125ZM19 21.375V23H21.0625V21.375H19ZM18.6875 13.4375V15.0625H20.75V13.4375H18.6875ZM12.375 21.375V23H14.4375V21.375H12.375ZM6.125 29.25V30.875H8.1875V29.25H6.125ZM5.8125 21.375V23H7.875V21.375H5.8125ZM5.8125 21.375V23H7.875V21.375H5.8125ZM6.125 29.25V30.875H8.1875V29.25H6.125ZM12.375 21.375V23H14.4375V21.375H12.375ZM18.6875 13.4375V15.0625H20.75V13.4375H18.6875ZM19 21.375V23H21.0625V21.375H19ZM25.25 13.4375V15.0625H27.3125V13.4375H25.25ZM31.8125 13.4375V15.0625H33.875V13.4375H31.8125ZM32.125 21.375V23H34.1875V21.375H32.125ZM32.125 21.375V23H34.1875V21.375H32.125ZM31.8125 13.4375V15.0625H33.875V13.4375H31.8125ZM25.25 13.4375V15.0625H27.3125V13.4375H25.25ZM19 21.375V23H21.0625V21.375H19ZM18.6875 13.4375V15.0625H20.75V13.4375H18.6875ZM12.375 21.375V23H14.4375V21.375H12.375ZM6.125 29.25V30.875H8.1875V29.25H6.125ZM5.8125 21.375V23H7.875V21.375H5.8125ZM5.8125 21.375V23H7.875V21.375H5.8125ZM6.125 29.25V30.875H8.1875V29.25H6.125ZM12.375 21.375V23H14.4375V21.375H12.375ZM18.6875 13.4375V15.0625H20.75V13.4375H18.6875ZM19 21.375V23H21.0625V21.375H19ZM25.25 13.4375V15.0625H27.3125V13.4375H25.25ZM31.8125 13.4375V15.0625H33.875V13.4375H31.8125ZM32.125 21.375V23H34.1875V21.375H32.125ZM32.125 21.375V23H34.1875V21.375H32.125ZM31.8125 13.4375V15.0625H33.875V13.4375H31.8125ZM25.25 13.4375V15.0625H27.3125V13.4375H25.25ZM19 21.375V23H21.0625V21.375H19ZM18.6875 13.4375V15.0625H20.75V13.4375H18.6875ZM12.375 21.375V23H14.4375V21.375H12.375ZM6.125 29.25V30.875H8.1875V29.25H6.125ZM5.8125 21.375V23H7.875V21.375H5.8125ZM1.0625 9.5V33.5625C1.0625 35 2.25 36.1875 3.6875 36.1875H18.75C18.25 35.0625 17.9375 33.875 17.9375 32.625C17.9375 28.5 20.875 25 24.75 24.1875C24.4375 24.125 24.25 23.875 24.25 23.5625V20.6875C24.25 20.3125 24.5625 20.0625 24.875 20.0625H28.1875C28.5 20.0625 28.8125 20.3125 28.8125 20.6875V23.5625C28.8125 23.875 28.5625 24.125 28.3125 24.1875C32.25 25 35.1875 28.5 35.1875 32.625C35.1875 33.875 34.875 35.125 34.375 36.1875H36.25C37.6875 36.1875 38.875 35 38.875 33.5625V9.5H1.0625ZM4.5625 23.5625V20.6875C4.5625 20.3125 4.8125 20.0625 5.1875 20.0625H8.5C8.875 20.0625 9.125 20.3125 9.125 20.6875V23.5625C9.125 23.875 8.875 24.1875 8.5 24.1875H5.1875C4.875 24.1875 4.5625 23.9375 4.5625 23.5625ZM9.4375 31.5C9.4375 31.8125 9.125 32.125 8.8125 32.125H5.5C5.125 32.125 4.875 31.8125 4.875 31.5V28.625C4.875 28.3125 5.125 28 5.5 28H8.8125C9.125 28 9.4375 28.3125 9.4375 28.625V31.5ZM11.125 23.5625V20.6875C11.125 20.3125 11.4375 20.0625 11.75 20.0625H15.0625C15.4375 20.0625 15.6875 20.3125 15.6875 20.6875V23.5625C15.6875 23.875 15.4375 24.1875 15.0625 24.1875H11.75C11.4375 24.1875 11.125 23.9375 11.125 23.5625ZM16 31.5C16 31.8125 15.75 32.125 15.375 32.125H12.0625C11.75 32.125 11.4375 31.8125 11.4375 31.5V28.625C11.4375 28.3125 11.75 28 12.0625 28H15.375C15.75 28 16 28.3125 16 28.625V31.5ZM17.4375 15.6875V12.8125C17.4375 12.4375 17.6875 12.1875 18.0625 12.1875H21.375C21.6875 12.1875 22 12.4375 22 12.8125V15.6875C22 16 21.6875 16.3125 21.375 16.3125H18.0625C17.6875 16.3125 17.4375 16.0625 17.4375 15.6875ZM22.25 23.5625C22.25 23.875 22 24.1875 21.625 24.1875H18.3125C17.9375 24.1875 17.6875 23.875 17.6875 23.5625V20.6875C17.6875 20.3125 17.9375 20.0625 18.3125 20.0625H21.625C22 20.0625 22.25 20.3125 22.25 20.6875V23.5625ZM28.5625 15.6875C28.5625 16 28.25 16.3125 27.9375 16.3125H24.625C24.3125 16.3125 24 16 24 15.6875V12.8125C24 12.4375 24.3125 12.1875 24.625 12.1875H27.9375C28.25 12.1875 28.5625 12.4375 28.5625 12.8125V15.6875ZM30.5625 15.6875V12.8125C30.5625 12.4375 30.8125 12.1875 31.1875 12.1875H34.5C34.8125 12.1875 35.125 12.4375 35.125 12.8125V15.6875C35.125 16 34.8125 16.3125 34.5 16.3125H31.1875C30.8125 16.3125 30.5625 16.0625 30.5625 15.6875ZM35.4375 23.5625C35.4375 23.875 35.125 24.1875 34.8125 24.1875H31.5C31.125 24.1875 30.875 23.875 30.875 23.5625V20.6875C30.875 20.3125 31.125 20.0625 31.5 20.0625H34.8125C35.125 20.0625 35.4375 20.3125 35.4375 20.6875V23.5625ZM32.125 22.9375H34.1875V21.3125H32.125V22.9375ZM33.875 13.4375H31.8125V15.0625H33.875V13.4375ZM25.25 15.0625H27.3125V13.4375H25.25V15.0625ZM19 22.9375H21.0625V21.3125H19V22.9375ZM20.75 13.4375H18.6875V15.0625H20.75V13.4375ZM14.4375 21.375H12.375V23H14.4375V21.375ZM6.125 30.875H8.1875V29.25H6.125V30.875ZM7.875 21.375H5.8125V23H7.875V21.375ZM5.8125 21.375V23H7.875V21.375H5.8125ZM6.125 29.25V30.875H8.1875V29.25H6.125ZM12.375 21.375V23H14.4375V21.375H12.375ZM18.6875 13.4375V15.0625H20.75V13.4375H18.6875ZM19 21.375V23H21.0625V21.375H19ZM25.25 13.4375V15.0625H27.3125V13.4375H25.25ZM31.8125 13.4375V15.0625H33.875V13.4375H31.8125ZM32.125 21.375V23H34.1875V21.375H32.125ZM32.125 21.375V23H34.1875V21.375H32.125ZM31.8125 13.4375V15.0625H33.875V13.4375H31.8125ZM25.25 13.4375V15.0625H27.3125V13.4375H25.25ZM19 21.375V23H21.0625V21.375H19ZM18.6875 13.4375V15.0625H20.75V13.4375H18.6875ZM12.375 21.375V23H14.4375V21.375H12.375ZM6.125 29.25V30.875H8.1875V29.25H6.125ZM5.8125 21.375V23H7.875V21.375H5.8125ZM5.8125 21.375V23H7.875V21.375H5.8125ZM6.125 29.25V30.875H8.1875V29.25H6.125ZM12.375 21.375V23H14.4375V21.375H12.375ZM18.6875 13.4375V15.0625H20.75V13.4375H18.6875ZM19 21.375V23H21.0625V21.375H19ZM25.25 13.4375V15.0625H27.3125V13.4375H25.25ZM32.125 21.375V23H34.1875V21.375H32.125ZM32.125 21.375V23H34.1875V21.375H32.125ZM25.25 13.4375V15.0625H27.3125V13.4375H25.25ZM19 21.375V23H21.0625V21.375H19ZM18.6875 13.4375V15.0625H20.75V13.4375H18.6875ZM12.375 21.375V23H14.4375V21.375H12.375ZM6.125 29.25V30.875H8.1875V29.25H6.125ZM5.8125 21.375V23H7.875V21.375H5.8125ZM5.8125 21.375V23H7.875V21.375H5.8125ZM6.125 29.25V30.875H8.1875V29.25H6.125ZM12.375 21.375V23H14.4375V21.375H12.375ZM19 21.375V23H21.0625V21.375H19ZM32.125 21.375V23H34.1875V21.375H32.125ZM32.125 21.375V23H34.1875V21.375H32.125ZM19 21.375V23H21.0625V21.375H19ZM12.375 21.375V23H14.4375V21.375H12.375ZM6.125 29.25V30.875H8.1875V29.25H6.125ZM5.8125 21.375V23H7.875V21.375H5.8125ZM5.8125 21.375V23H7.875V21.375H5.8125ZM6.125 29.25V30.875H8.1875V29.25H6.125ZM12.375 21.375V23H14.4375V21.375H12.375ZM12.375 21.375V23H14.4375V21.375H12.375ZM6.125 29.25V30.875H8.1875V29.25H6.125ZM5.8125 21.375V23H7.875V21.375H5.8125ZM12.375 21.375V23H14.4375V21.375H12.375ZM12.375 21.375V23H14.4375V21.375H12.375Z" fill="white"/>
<path d="M26.5625 25.25C22.5 25.25 19.1875 28.5625 19.1875 32.625C19.1875 36.6875 22.5 40 26.5625 40C30.625 40 33.9375 36.6875 33.9375 32.625C33.9375 28.5625 30.625 25.25 26.5625 25.25ZM30.5 30.5625L25.4375 35.625C25.3125 35.75 25.1875 35.8125 25 35.8125C24.8125 35.8125 24.6875 35.75 24.5625 35.625L22.625 33.6875C22.375 33.4375 22.375 33.0625 22.625 32.8125C22.875 32.5625 23.25 32.5625 23.5 32.8125L25 34.3125L29.625 29.6875C29.875 29.4375 30.25 29.4375 30.5 29.6875C30.75 29.9375 30.75 30.3125 30.5 30.5625Z" fill="white"/>
</svg>
