<svg width="1220" height="310" viewBox="0 0 1220 310" fill="none" xmlns="http://www.w3.org/2000/svg">
<mask id="mask0_275_607" style="mask-type:alpha" maskUnits="userSpaceOnUse" x="0" y="0" width="1220" height="310">
<rect width="1220" height="310" fill="white"/>
</mask>
<g mask="url(#mask0_275_607)">
<path d="M9.2102 327.6C13.0024 280.614 66.3638 246.29 109.161 218.679L112.141 216.696C117.016 213.797 128.664 205.865 127.58 196.406C127.039 190.61 121.892 185.423 112.412 180.846C106.723 178.1 101.577 175.507 96.4304 173.219C74.219 162.54 56.8833 153.997 29.7963 143.471C19.7741 139.658 10.0228 135.996 0.542354 132.488V133.098C10.0228 136.454 19.5033 140.115 29.2546 143.929C56.3416 154.455 73.9481 162.998 95.8886 173.676C100.764 176.117 106.182 178.711 111.87 181.304C121.08 185.728 126.226 190.915 126.768 196.559C127.58 205.865 116.475 213.645 111.328 216.543L108.349 218.526C65.5512 246.138 12.1898 280.462 8.12672 327.752C7.58498 332.787 4.33454 335.838 0.271484 336.905V337.516C4.87628 336.295 8.66846 333.244 9.2102 327.6Z" fill="#939393" fill-opacity="0.1"/>
<path d="M28.1717 328.058C31.693 284.734 82.6166 251.935 123.518 225.696L126.498 223.713C135.165 218.221 141.937 213.34 147.084 209.221C153.314 204.034 165.232 194.576 137.332 179.321C107.266 162.998 74.7614 147.896 40.6317 134.624C26.8174 129.132 13.2739 124.25 0.542969 119.979V120.589C13.2739 125.013 26.2756 129.742 40.09 135.081C74.2196 148.353 106.724 163.456 136.791 179.779C164.148 194.729 152.772 204.034 146.542 209.068C141.395 213.187 134.624 218.069 125.956 223.561L122.976 225.544C81.804 251.783 30.8804 284.581 27.3591 328.058C25.7339 348.194 19.233 359.941 7.31472 364.975C4.87689 366.043 2.70993 366.501 0.542969 366.653V367.111C2.70993 366.958 5.14776 366.501 7.85646 365.28C20.0456 360.246 26.5465 348.347 28.1717 328.058Z" fill="#939393" fill-opacity="0.1"/>
<path d="M358.633 18.2276C353.487 6.4812 310.96 3.4302 261.662 -0.231014C249.473 -1.14632 237.013 -2.06162 224.823 -3.12947C170.92 -7.85854 121.622 -23.1136 73.6779 -37.911C49.8413 -45.3859 25.463 -52.8609 0.542969 -59.1155V-57.8951C25.1921 -51.7931 49.2996 -44.3181 72.8653 -36.9957C120.809 -22.1983 170.378 -6.94323 224.552 -2.06161C236.742 -0.993759 249.473 -0.0784683 261.391 0.836834C307.98 4.19294 351.861 7.54906 356.737 18.5327C360.529 27.0755 340.756 40.0423 296.062 58.3484C233.491 83.8243 180.942 95.7232 130.561 95.7232C102.119 95.7232 73.6779 91.7569 46.5909 83.8243C29.7969 78.9427 14.8991 72.9932 0.542969 66.8912V68.2641C14.6282 74.2136 29.2552 80.0105 45.7783 84.7396C73.407 92.6722 101.848 96.7911 130.831 96.7911C181.484 96.7911 234.304 84.8921 297.417 59.2637C343.464 40.3474 362.696 27.3806 358.633 18.2276Z" fill="#939393" fill-opacity="0.1"/>
<path d="M7.58559 258.952C14.8991 251.782 24.3795 245.222 33.5891 238.815C46.8618 229.662 60.4053 220.204 67.7187 208.61C80.7205 188.168 55.2587 178.71 28.4426 168.642C26.0048 167.727 23.5669 166.811 20.8582 165.896C16.5243 164.218 12.1904 162.54 8.12733 161.014C6.23124 160.252 3.52254 159.184 0.542969 157.963V158.574C3.52254 159.794 5.6895 160.709 7.58559 161.472C11.6486 163.15 15.9826 164.676 20.3165 166.354C22.7543 167.269 25.1921 168.184 27.9008 169.1C54.4461 179.015 79.637 188.473 66.9061 208.61C59.5926 220.204 46.0491 229.662 32.7765 238.663C23.5669 245.07 14.0865 251.629 6.77298 258.799C4.60602 260.935 2.43906 263.833 0.542969 266.732V267.952C0.813839 267.647 1.08471 267.342 1.08471 267.037C3.25167 263.986 5.41863 261.24 7.58559 258.952Z" fill="#939393" fill-opacity="0.1"/>
<path d="M424.998 -24.7913C420.393 -24.7913 413.621 -23.1132 409.016 -15.1806C403.599 -6.18011 414.163 -4.19695 425.269 -1.90869C427.165 -1.45104 429.332 -1.14595 431.228 -0.688295C435.562 0.227007 439.354 0.837208 442.062 0.837208C445.313 0.837208 447.48 0.227011 448.834 -0.993393C452.897 -4.6546 446.396 -12.8923 443.417 -16.2484C438.27 -21.5877 431.499 -24.7913 424.998 -24.7913ZM447.751 -1.29849C445.584 0.684668 440.166 0.684668 431.769 -1.29849C429.873 -1.75614 427.706 -2.2138 425.81 -2.5189C414.975 -4.6546 405.495 -6.48521 410.642 -14.8755C414.163 -20.8249 419.309 -24.0285 425.539 -24.0285C431.499 -24.0285 437.729 -20.9775 442.604 -15.7908C448.292 -9.07856 450.189 -3.7393 447.751 -1.29849Z" fill="#939393" fill-opacity="0.1"/>
<path d="M73.6779 225.391C74.7614 224.628 76.1157 223.713 77.4701 222.95C94.8057 211.356 112.954 199.457 92.3679 185.118C76.3866 174.134 52.55 164.981 31.4222 156.896C27.0882 155.218 23.0252 153.692 18.9621 152.014C16.2534 150.946 12.4613 149.421 8.12733 147.59C5.96037 146.827 3.25167 145.76 0.542969 144.692V145.302C2.9808 146.37 5.41863 147.285 7.85646 148.2C12.1904 150.031 15.7117 151.556 18.6913 152.624C22.7543 154.15 26.8174 155.828 31.1513 157.506C52.2791 165.591 76.1157 174.592 91.8262 185.575C111.871 199.61 93.9931 211.356 76.9283 222.797C75.574 223.56 74.4905 224.476 73.1361 225.238C57.9674 235.459 38.7356 249.036 23.2961 264.139C14.0865 273.292 6.23124 283.055 0.542969 292.971V294.496C6.50211 284.123 14.3573 274.054 24.1087 264.444C39.2774 249.189 58.5092 235.612 73.6779 225.391Z" fill="#939393" fill-opacity="0.1"/>
<path d="M58.2377 71.0098C78.8238 76.9593 96.4304 79.7052 113.224 79.7052C131.102 79.7052 146.812 76.6542 164.96 73.1455C175.254 71.1624 187.172 68.8741 200.444 67.0435C207.216 66.1282 213.175 65.9756 216.968 65.9756C219.676 65.9756 222.114 65.9756 224.552 66.1282C226.719 66.1282 228.886 66.2807 231.053 66.2807C242.158 66.2807 250.826 64.7552 260.307 57.5854C266.808 52.7038 269.245 48.89 271.412 45.5339C274.663 40.4997 277.101 36.5334 291.186 30.889C294.707 29.3635 299.854 28.2957 305 27.2278C313.126 25.3972 319.898 23.8717 320.169 21.2784C320.44 19.1427 316.106 16.8544 306.355 13.8034C294.978 10.2947 278.455 9.83708 263.828 9.83708C257.327 9.83708 250.555 9.98963 244.055 9.98963C237.554 10.1422 230.511 10.1422 224.01 10.1422C209.383 10.1422 199.09 9.53198 190.964 8.31157C143.833 1.29425 99.6808 -12.4353 60.6755 -24.4868C40.3603 -30.7413 20.3159 -36.8434 0.542354 -42.1826V-41.2673C20.045 -36.0806 39.8185 -29.9786 60.1338 -23.724C99.1391 -11.6725 143.562 2.057 190.693 9.22688C199.09 10.4473 209.383 11.0575 224.281 11.0575C230.782 11.0575 237.825 10.9049 244.325 10.9049C250.826 10.7524 257.598 10.7524 264.099 10.7524C278.455 10.7524 294.707 11.21 305.813 14.7187C314.752 17.4646 319.086 19.6003 318.815 21.4309C318.544 23.5666 311.772 25.0921 304.459 26.6176C299.312 27.6855 294.165 28.9059 290.373 30.4314C276.017 36.2283 273.309 40.4997 270.058 45.3813C267.891 48.7374 265.453 52.3987 259.223 57.2803C250.014 64.2976 241.617 65.6705 231.053 65.6705C228.886 65.6705 226.719 65.6705 224.552 65.518C222.114 65.518 219.676 65.3654 216.968 65.3654C213.175 65.3654 206.945 65.518 200.174 66.4333C186.901 68.2639 174.983 70.5521 164.69 72.5353C146.541 76.044 130.831 78.9424 113.224 78.9424C96.4304 78.9424 79.0947 76.1965 58.7794 70.247C40.0894 64.9078 23.2954 57.7379 7.04324 50.7206C4.87628 49.8053 2.43844 48.7374 0.271484 47.8221V48.7374C2.16757 49.6527 4.33453 50.4155 6.23063 51.3308C22.7537 58.5007 39.5476 65.6705 58.2377 71.0098Z" fill="#939393" fill-opacity="0.1"/>
<path d="M70.6983 57.2803C90.7427 63.0773 110.245 65.8232 130.831 65.8232C142.208 65.8232 166.857 63.2298 188.256 58.8058C206.946 54.9921 229.428 48.585 229.428 40.0421C229.428 29.9738 194.757 24.3295 174.171 20.9733C169.566 20.2106 165.774 19.6004 163.065 19.1427C125.956 11.5152 89.1175 2.05709 47.4035 -10.9097C31.4222 -15.7913 15.9826 -20.6729 0.542969 -24.9443V-24.4867C15.7117 -20.2153 31.4222 -15.3337 47.1326 -10.452C89.1175 2.3622 125.956 11.9729 163.065 19.6004C165.774 20.2106 169.566 20.8208 174.171 21.431C194.757 24.7871 228.886 30.2789 228.886 40.0421C228.886 54.8395 154.668 65.3655 130.831 65.3655C110.516 65.3655 91.0136 62.6196 71.2401 56.8227C54.717 52.0936 39.0065 45.2289 23.5669 38.8217C16.2534 35.6182 8.66907 32.4146 0.542969 29.2111V29.8213C8.3982 32.8723 15.7117 36.0758 23.0252 39.1268C38.4648 45.6865 54.1752 52.5513 70.6983 57.2803Z" fill="#939393" fill-opacity="0.1"/>
<path d="M79.3655 47.8225C96.7012 52.8566 113.495 55.2974 130.831 55.2974C145.729 55.2974 165.502 52.8566 173.087 47.2123C176.337 44.7715 177.42 42.0255 175.795 38.822C172.274 31.4996 144.916 26.1603 124.872 22.3465C118.371 21.1261 112.683 20.0583 109.432 19.143C86.1373 13.041 63.3842 6.02364 41.1729 -0.841131L38.735 -1.60388C25.4624 -5.57019 13.0024 -9.38396 0.542354 -13.0452V-12.5875C12.7315 -9.07885 25.1915 -5.11254 37.9224 -1.29878L40.3603 -0.536023C62.5716 6.4813 85.5955 13.4986 108.89 19.6006C112.412 20.5159 118.1 21.5838 124.601 22.8042C143.291 26.3128 171.732 31.8047 174.983 38.9745C176.337 42.0255 175.524 44.6189 172.274 46.9072C164.96 52.2464 145.458 54.6872 130.56 54.6872C113.495 54.6872 96.7012 52.2464 79.6364 47.3648C64.4677 42.9408 49.299 36.5337 34.672 30.2792C24.108 25.7026 12.7315 20.9736 0.271484 16.3971V17.0073C12.4606 21.5838 23.8372 26.3129 34.1302 30.7368C49.0281 36.9914 64.1968 43.3985 79.3655 47.8225Z" fill="#939393" fill-opacity="0.1"/>
<path d="M481.336 -108.542C482.691 -111.593 484.045 -114.644 485.4 -117.695H484.045C482.691 -114.796 481.607 -111.745 480.253 -108.694C477.815 -103.05 475.106 -97.2531 473.21 -91.151C466.168 -71.3195 460.209 -45.0808 475.648 -19.7574C481.878 -9.53657 497.589 -0.993736 511.403 6.32868C523.592 12.8884 534.427 18.6853 533.344 23.4143C532.802 25.55 530.093 27.5332 524.676 29.3638C522.238 30.2791 517.904 30.5842 511.945 30.5842C491.088 30.5842 454.52 25.3975 427.433 20.3633C397.367 14.7189 361.07 5.87103 355.382 -4.8075C353.486 -8.16361 355.111 -11.6723 359.716 -15.0284C365.675 -19.2998 372.176 -23.1136 378.406 -26.7748C390.866 -33.9446 402.513 -40.8094 410.098 -50.8777C421.203 -65.37 422.558 -80.32 414.161 -95.575C412.265 -99.2362 410.098 -102.745 408.202 -105.643C405.493 -110.067 403.326 -114.034 401.701 -117.542H400.346C401.972 -113.881 404.409 -109.915 407.118 -105.338C409.014 -102.287 410.91 -98.9311 413.077 -95.2699C421.474 -80.1674 420.12 -65.37 409.285 -51.0303C401.701 -41.1145 390.053 -34.2497 377.864 -27.0799C371.634 -23.4187 365.133 -19.6049 358.903 -15.1809C354.028 -11.6723 352.402 -8.01105 354.298 -4.34985C359.987 6.63378 396.825 15.6342 426.621 21.2786C453.979 26.4653 490.817 31.6521 511.674 31.6521C517.904 31.6521 522.509 31.1944 525.217 30.2791C531.177 28.2959 534.156 26.1602 534.698 23.7194C535.781 18.5327 524.947 12.7358 512.216 6.02357C498.401 -1.29884 482.962 -9.68912 476.732 -19.7574C461.292 -44.9283 467.251 -70.8618 474.294 -90.6934C476.19 -97.1005 478.899 -102.897 481.336 -108.542Z" fill="#939393" fill-opacity="0.1"/>
<path d="M256.786 248.274C255.432 249.494 254.077 250.715 252.994 251.63C239.179 262.461 223.198 272.224 204.779 282.75C202.341 284.123 199.903 285.649 197.195 287.022C182.026 295.564 166.586 304.412 157.106 314.938C153.584 319.057 152.501 322.108 153.855 324.091C154.668 325.007 155.751 325.617 157.377 325.769C158.189 325.922 158.731 325.922 159.544 325.922C162.794 325.922 167.399 325.007 172.274 323.329C182.297 319.973 191.777 315.701 200.987 311.582C208.571 308.226 216.426 304.717 224.282 301.819C256.786 289.768 278.185 281.682 288.207 259.105C290.374 254.376 291.457 243.697 284.956 239.121C282.789 237.595 279.81 236.833 276.289 236.833C268.704 237.138 261.932 243.545 256.786 248.274ZM277.643 237.443C280.623 237.443 283.06 238.205 284.956 239.578C291.186 244.155 290.103 254.528 287.936 259.105C277.914 281.53 256.786 289.462 224.282 301.514C216.155 304.565 208.3 307.921 200.987 311.277C191.777 315.396 182.297 319.515 172.274 323.024C166.315 325.159 160.898 325.922 157.918 325.464C156.564 325.159 155.481 324.702 154.939 323.939C153.584 322.108 154.668 319.057 158.189 315.091C167.399 304.717 183.109 295.87 198.007 287.327C200.445 285.801 203.154 284.428 205.591 283.055C223.74 272.529 239.992 262.766 253.806 251.935C254.89 251.02 256.244 249.799 257.599 248.579C262.474 244.002 269.246 237.748 277.101 237.595C277.372 237.443 277.372 237.443 277.643 237.443Z" fill="#939393" fill-opacity="0.1"/>
<path d="M88.034 38.3641C93.4514 39.8896 108.62 42.6355 119.726 42.6355C123.789 42.6355 126.768 42.3304 128.665 41.5676C132.998 40.0421 134.895 38.5166 134.353 37.1437C133.54 33.9401 121.08 31.957 111.058 30.4315C106.995 29.8212 103.474 29.2111 101.307 28.7534C77.4701 22.4988 54.1752 15.329 31.693 8.46419L29.2552 7.70143C19.5039 4.65042 10.0234 1.59942 0.542969 -1.14648V-0.231184C9.75255 2.51472 19.233 5.41318 28.7135 8.31164L31.1513 9.07439C53.6335 16.0917 76.9283 23.2616 100.765 29.3636C102.932 29.9738 106.453 30.4315 110.516 31.1942C119.726 32.5672 132.186 34.5503 132.728 37.2962C132.998 38.3641 131.373 39.737 127.581 41.11C125.956 41.7202 122.976 42.0253 119.455 42.0253C108.891 42.0253 93.7223 39.2794 88.5757 37.7539C75.0322 33.7876 60.6761 27.6855 46.5909 21.7361C33.3182 16.0917 18.1495 9.53204 0.542969 3.73513V4.65042C17.6078 10.4473 32.7765 16.8545 45.7783 22.4988C59.8635 28.2957 74.2196 34.5503 88.034 38.3641Z" fill="#939393" fill-opacity="0.1"/>
<path d="M47.4035 328.668C50.6539 289.158 99.1397 258.037 137.874 232.867L140.854 230.883C187.172 201.136 185.276 190.61 163.607 178.559C139.77 165.287 102.39 145.455 51.4665 125.624C34.1309 118.911 17.066 112.657 0.542969 107.165V108.08C16.7952 113.572 33.5891 119.674 50.6539 126.234C101.307 146.065 138.687 165.897 162.523 179.016C183.651 190.763 185.276 200.831 139.77 230.273L136.791 232.256C97.7853 257.427 49.2996 288.7 46.0491 328.516C42.7987 365.891 17.8787 376.874 0.542969 379.925V380.688C18.4204 377.79 44.153 366.653 47.4035 328.668Z" fill="#939393" fill-opacity="0.1"/>
<path d="M273.307 222.798C261.389 224.476 251.096 233.781 242.699 241.104C239.719 243.697 237.011 246.138 234.573 247.968C221.029 257.732 205.86 266.58 191.233 275.122C187.441 277.411 182.566 279.851 177.419 282.445C162.25 290.377 143.56 300.141 137.872 309.141C132.996 316.769 135.976 323.938 138.685 330.803C140.852 336.448 143.289 342.397 141.393 348.652C140.31 352.465 136.247 356.279 131.913 360.245C126.766 364.975 121.349 369.856 121.078 375.195C121.078 377.026 121.349 378.704 122.432 380.535C125.954 386.179 129.746 388.772 134.08 388.772C138.414 388.772 143.289 386.179 150.332 379.925C157.104 373.975 159.813 366.958 162.25 360.245C164.959 353.533 167.397 346.516 174.44 340.414C187.441 328.82 210.465 320.43 230.51 312.802C232.135 312.192 234.031 311.582 235.656 310.972C269.244 298.463 295.789 288.547 307.437 261.85C310.687 254.833 309.875 236.832 296.873 227.679C290.914 223.103 282.788 221.577 273.307 222.798ZM296.06 228.137C307.437 236.375 309.875 253.765 306.353 261.698C294.706 288.089 268.431 297.852 235.114 310.362C233.489 310.972 231.864 311.582 229.968 312.192C209.653 319.667 186.629 328.21 173.356 339.956C166.313 346.058 163.605 353.228 161.167 360.093C158.729 366.805 156.02 373.67 149.249 379.619C144.644 383.891 138.956 388.162 134.08 388.162C130.288 388.162 127.037 385.569 123.516 380.382C122.432 378.704 121.891 377.179 122.162 375.348C122.432 370.314 127.85 365.432 132.726 360.703C137.059 356.737 141.393 352.923 142.477 348.957C144.373 342.702 141.935 336.753 139.768 330.956C137.059 323.786 134.351 317.074 138.956 309.599C144.644 300.751 163.334 290.988 178.232 283.208C183.378 280.614 188.254 278.021 192.046 275.733C206.673 267.19 221.842 258.342 235.385 248.579C237.823 246.748 240.532 244.307 243.511 241.714C251.637 234.391 261.931 225.238 273.307 223.713C275.474 223.408 277.37 223.255 279.266 223.255C286.038 223.103 291.455 224.781 296.06 228.137Z" fill="#939393" fill-opacity="0.1"/>
<path d="M285.77 189.694C279.269 184.507 273.581 183.744 267.892 183.134C263.829 182.676 259.495 182.066 254.62 180.083L254.349 179.778C240.534 171.083 194.216 142.708 178.505 142.708C176.609 142.708 175.255 143.013 174.171 143.776C172.004 145.302 172.275 148.353 174.442 153.234C175.796 156.133 189.069 160.099 202.883 164.218C214.531 167.727 226.449 171.388 230.512 173.981C234.033 176.422 238.909 179.778 238.638 180.998C238.638 181.304 237.826 181.456 236.742 181.761C234.304 182.371 230.783 183.439 232.679 188.321C234.033 191.677 237.555 194.881 241.347 198.084C244.597 201.135 247.848 203.881 248.931 206.627C252.453 214.102 230.512 227.831 216.156 236.984C211.28 240.035 207.217 242.629 204.78 244.612C194.216 252.545 181.214 259.714 168.483 266.732C143.834 280.461 118.372 294.649 109.433 314.175C95.348 343.465 92.6393 369.246 100.765 390.908C105.099 402.502 119.997 418.519 134.624 418.519C143.563 418.519 150.335 412.417 154.127 400.366C169.296 353.991 210.739 338.583 250.557 323.633C286.041 310.361 319.628 297.852 333.985 265.511C339.402 253.307 331.005 234.391 320.17 224.018C315.295 219.441 309.335 216.695 303.376 214.254C298.23 211.966 293.354 209.983 289.562 206.627C286.853 204.186 287.395 201.44 287.937 198.542C288.478 195.491 289.02 192.44 285.77 189.694ZM287.937 207.085C292 210.593 296.875 212.729 302.293 215.017C307.981 217.458 313.94 220.051 318.545 224.475C329.109 234.696 337.506 253.155 332.088 265.206C317.732 297.242 284.686 309.598 249.473 322.718C209.113 337.82 167.399 353.38 152.231 400.213C148.439 411.502 142.479 417.452 134.624 417.452C122.435 417.452 107.266 402.959 102.662 390.603C94.5354 369.093 97.2441 343.465 110.517 314.48C119.455 295.259 144.646 281.224 169.025 267.495C181.756 260.477 195.028 253.155 205.592 245.222C208.03 243.239 212.364 240.646 216.969 237.747C232.679 227.831 253.807 214.407 250.286 206.322C248.931 203.423 245.681 200.525 242.43 197.474C238.909 194.423 235.388 191.067 234.033 188.016C232.408 184.049 234.846 183.287 237.284 182.676C238.638 182.371 239.722 181.914 239.993 181.151C240.534 180.083 239.18 178.253 231.596 173.218C227.262 170.32 215.073 166.659 203.425 163.15C191.236 159.489 177.151 155.217 176.067 152.777C173.359 147.285 174.171 145.149 175.526 144.234C176.067 143.776 177.151 143.624 178.234 143.624C190.153 143.624 224.553 162.54 252.724 180.388C252.994 180.541 253.265 180.693 253.265 180.693C258.683 182.982 263.287 183.439 267.35 184.049C273.039 184.812 278.185 185.422 284.144 190.304C287.124 192.592 286.582 195.491 286.041 198.389C285.499 201.44 284.957 204.491 287.937 207.085Z" fill="#939393" fill-opacity="0.1"/>
<path d="M0.542354 90.6892C91.8256 119.826 190.422 166.049 208.3 189.084C219.134 202.966 192.86 219.442 159.814 240.341C122.163 264.139 75.5733 293.734 72.5938 329.126C69.0725 372.45 30.8798 390.146 0.271484 395.485V396.553C31.4215 391.214 70.6977 373.213 74.219 329.126C77.1986 294.039 123.517 264.597 160.897 240.951C194.485 219.747 220.76 202.966 209.654 188.627C192.047 165.591 92.6382 118.758 0.542354 89.6213V90.6892Z" fill="#939393" fill-opacity="0.1"/>
<path d="M460.75 -117.542C460.75 -117.695 460.75 -117.695 460.75 -117.542L459.666 -117.695C458.041 -116.627 456.145 -115.559 455.061 -114.034C451.811 -109.61 452.624 -104.881 453.707 -100.457C454.249 -98.0158 454.79 -95.4225 454.52 -92.8291C454.249 -88.8628 452.623 -84.7439 451.269 -80.7776C450.186 -77.4215 448.831 -74.0654 448.29 -70.7093C444.768 -50.5726 448.019 -32.2666 457.77 -16.5539C459.666 -13.3503 467.521 -8.1636 475.918 -2.82433C486.482 4.04044 497.588 11.0578 497.859 15.3292C497.859 16.2445 497.588 17.0072 496.504 17.6174C493.525 19.2955 485.941 19.6006 473.751 18.5327C464.813 17.77 456.145 15.6343 447.748 13.6511C442.872 12.4307 437.997 11.2103 432.85 10.295C431.496 9.9899 429.87 9.6848 428.516 9.53225C410.639 6.17614 385.719 1.59962 382.197 -6.48554C380.572 -10.2993 383.823 -14.7233 391.949 -19.4523C404.95 -27.0799 418.223 -34.8599 427.433 -46.7589C436.1 -58.2001 446.123 -80.32 442.33 -92.3714C441.518 -94.8123 439.622 -96.4903 437.997 -98.1684C435.559 -100.304 433.392 -102.287 434.475 -105.948C435.288 -108.694 437.184 -110.22 438.809 -111.593C440.705 -113.271 442.601 -114.796 442.06 -117.695H441.247C441.789 -114.949 440.164 -113.576 438.267 -111.898C436.642 -110.525 434.746 -108.847 433.933 -105.948C432.85 -102.135 435.288 -99.999 437.726 -97.7107C439.351 -96.1852 441.247 -94.5072 442.06 -92.2189C445.852 -80.32 435.83 -58.2001 427.162 -46.9114C418.223 -35.165 404.95 -27.385 391.949 -19.7574C383.552 -14.8758 380.03 -10.2993 381.926 -6.333C385.448 1.90472 410.368 6.63379 428.787 9.9899C430.412 10.295 431.767 10.6001 433.121 10.7527C437.997 11.668 443.143 12.8884 448.019 14.1088C456.416 16.0919 465.084 18.2276 474.022 19.1429C478.898 19.6006 482.961 19.7531 486.482 19.7531C492.171 19.7531 495.692 19.1429 497.588 18.0751C498.671 17.4649 499.213 16.5496 499.213 15.4817C498.671 11.0578 487.566 3.88788 477.002 -2.97689C468.876 -8.31616 461.02 -13.3503 459.124 -16.5539C449.373 -32.2666 446.393 -50.4201 449.915 -70.5567C450.457 -73.9128 451.54 -77.269 452.894 -80.4725C454.249 -84.4388 455.603 -88.5577 456.145 -92.6766C456.416 -95.2699 455.874 -97.8633 455.332 -100.304C454.249 -104.881 453.436 -109.305 456.687 -113.576C456.957 -115.407 458.854 -116.627 460.75 -117.542Z" fill="#939393" fill-opacity="0.1"/>
<path d="M25.7339 199.915C24.3795 195.034 18.4204 190.61 7.31472 186.491C5.14776 185.576 2.70993 184.813 0.542969 183.898V184.508C2.70993 185.271 4.87689 186.186 7.04385 186.949C17.8787 191.068 23.8378 195.339 25.1921 200.068C27.3591 208.001 16.7952 216.086 3.52254 225.239C2.70993 225.849 1.62645 226.612 0.542969 227.375V228.137C1.89732 227.069 2.9808 226.154 4.06428 225.391C17.3369 216.238 28.1717 208.001 25.7339 199.915Z" fill="#939393" fill-opacity="0.1"/>
<path d="M49.8413 205.101C56.8839 193.965 49.8413 189.541 17.8787 177.642C15.4408 176.727 12.7321 175.812 10.2943 174.744C7.04385 173.523 3.79341 172.303 0.542969 171.083V171.693C3.52254 172.913 6.50211 173.981 9.75255 175.201C12.4613 176.117 14.8991 177.185 17.3369 178.1C48.7578 189.846 55.8005 194.27 49.0287 205.101C42.7987 214.865 30.8804 223.255 18.1495 232.103C12.1904 236.222 6.23124 240.34 0.542969 244.917V245.68C6.50211 240.951 12.7321 236.679 18.6913 232.408C31.4222 223.255 43.6113 215.017 49.8413 205.101Z" fill="#939393" fill-opacity="0.1"/>
<path d="M263.557 262.614C259.494 262.614 255.702 265.36 252.722 267.343C252.181 267.8 251.639 268.106 251.097 268.411C248.389 270.089 245.951 271.919 243.242 273.75C241.617 274.818 239.992 276.038 238.366 277.106L238.095 277.259C232.678 280.92 230.511 283.208 231.324 284.428C231.595 284.734 232.136 285.191 233.491 285.344C233.762 285.344 234.032 285.344 234.032 285.344C244.867 285.191 253.535 279.699 257.869 276.343C261.932 273.14 264.912 269.784 265.724 267.038C265.995 266.428 266.537 264.139 265.182 263.071C265.182 262.766 264.37 262.614 263.557 262.614ZM265.182 267.038C264.099 269.631 261.39 272.987 257.327 276.038C253.264 279.242 244.867 284.581 234.574 284.734C234.303 284.734 234.303 284.734 234.032 284.734C232.949 284.734 232.949 284.428 232.949 284.428C232.678 283.971 232.678 282.598 239.45 278.021L239.721 277.869C241.346 276.801 242.971 275.581 244.596 274.513C247.034 272.835 249.743 271.004 252.452 269.173C252.993 268.868 253.535 268.411 254.077 267.953C256.515 266.122 260.307 263.529 263.828 263.529C264.37 263.529 264.912 263.682 265.182 263.834C265.724 264.292 265.453 265.817 265.182 267.038Z" fill="#939393" fill-opacity="0.1"/>
<path d="M549.326 417.147C585.352 414.859 623.816 391.366 624.357 371.535C625.17 341.025 594.02 316.769 563.953 293.276C558.807 289.31 553.66 285.191 548.514 281.072L545.534 278.631C531.449 267.19 515.468 254.071 510.05 240.036C505.716 228.137 498.945 200.373 506.258 190.762C511.676 183.745 526.844 179.779 541.742 175.812C552.035 173.067 561.786 170.626 568.558 167.117L568.829 166.965C592.124 155.066 592.124 155.066 607.834 154.76C612.71 154.608 618.669 154.608 627.066 154.15C638.443 153.54 644.944 152.625 649.819 152.015C652.799 151.557 655.237 151.252 657.133 151.252C662.008 151.252 666.071 153.235 679.615 159.642C719.704 178.711 718.891 211.814 718.078 243.85C717.266 284.123 716.182 325.922 797.173 339.041C808.82 340.872 820.197 341.94 831.031 341.94C861.369 341.94 887.372 334.312 906.062 319.82C933.42 298.616 940.734 265.36 924.211 237.138C886.018 172.151 795.006 135.081 696.951 99.6898C607.834 67.5016 523.052 58.6537 450.73 52.8568C445.583 52.3991 440.437 52.2466 435.832 52.2466C406.307 52.2466 392.493 60.6369 374.886 71.3154C368.114 75.4342 361.072 79.5531 352.404 83.9771C342.382 88.8587 329.651 92.2148 317.462 95.5709C297.417 100.91 278.727 105.944 270.872 117.081C254.349 140.726 294.979 159.337 330.734 175.66C347.257 183.135 362.968 190.305 372.177 197.475C408.745 225.696 397.639 273.445 364.593 300.141C354.3 308.531 334.526 318.905 313.67 329.736C278.998 347.889 239.722 368.331 232.679 385.722C229.429 393.807 230.242 399.451 235.388 403.113C239.451 406.011 246.765 407.537 257.058 407.537C274.122 407.537 298.501 403.57 324.233 399.451C355.925 394.265 391.68 388.468 422.018 388.468C436.645 388.468 448.563 389.688 458.856 392.434C470.503 395.485 480.525 399.757 490.277 404.028C506.258 411.045 521.156 417.605 542.284 417.605C544.722 417.3 546.889 417.3 549.326 417.147ZM459.398 391.519C449.105 388.925 436.645 387.552 422.018 387.552C391.409 387.552 355.384 393.349 323.692 398.536C297.959 402.655 273.581 406.621 256.787 406.621C246.765 406.621 240.264 405.248 236.201 402.502C231.325 399.146 230.783 393.655 233.763 385.874C240.535 368.789 279.811 348.347 314.211 330.346C335.068 319.362 355.113 308.989 365.406 300.599C398.723 273.597 409.558 225.544 372.99 197.017C363.78 189.847 348.07 182.677 331.276 175.05C295.792 158.879 255.432 140.573 271.685 117.386C279.269 106.555 297.959 101.52 317.733 96.3337C330.193 92.9776 342.923 89.6214 352.946 84.5873C361.614 80.3159 368.656 76.0445 375.428 71.9256C392.764 61.3996 406.578 53.1619 435.561 53.1619C440.166 53.1619 445.041 53.3144 450.188 53.7721C522.51 59.569 607.293 68.4169 695.867 100.453C793.651 135.692 884.393 172.761 922.314 237.595C938.567 265.512 931.524 298.463 904.437 319.515C886.018 333.855 860.556 341.33 830.49 341.33C819.926 341.33 808.549 340.414 797.173 338.431C761.147 332.634 738.665 320.583 727.83 301.667C718.078 284.733 718.62 263.987 719.162 243.85C719.975 211.662 720.516 178.253 680.157 159.032C660.925 149.879 660.383 149.726 649.277 151.252C644.402 151.862 637.901 152.777 626.524 153.388C618.127 153.845 612.168 153.998 607.564 153.998C591.311 154.303 591.311 154.303 567.475 166.354L567.204 166.507C560.432 169.863 550.952 172.456 540.929 175.05C525.761 179.016 510.321 183.135 504.633 190.305C497.049 200.068 503.82 227.985 508.425 240.036C513.572 254.223 529.824 267.343 543.909 278.784L546.889 281.225C551.764 285.344 557.182 289.463 562.328 293.429C592.395 316.922 623.274 341.025 622.461 371.23C621.92 390.756 583.998 413.791 548.785 416.079C546.618 416.232 544.18 416.232 542.013 416.232C521.156 416.232 506.529 409.672 490.819 402.808C481.338 398.994 471.316 394.57 459.398 391.519Z" fill="#939393" fill-opacity="0.1"/>
<path d="M1182.62 182.22C1181.27 181.609 1179.1 180.542 1176.39 179.321C1166.1 174.287 1148.76 165.744 1136.57 165.744C1131.7 165.744 1128.18 167.117 1126.01 169.558C1123.3 172.761 1129.53 180.236 1133.59 185.118C1134.68 186.338 1135.49 187.406 1136.03 188.169C1137.11 189.695 1138.2 191.068 1139.01 192.44C1144.7 200.983 1150.66 209.679 1154.99 219.137C1155.53 220.205 1155.8 221.272 1156.35 222.493C1158.24 227.527 1160.95 233.934 1167.18 236.985C1169.62 238.206 1172.06 238.968 1174.22 239.426C1175.31 239.579 1176.39 239.731 1177.2 239.731C1184.52 239.731 1189.66 235.002 1194.54 230.426C1195.62 229.358 1196.71 228.29 1198.06 227.375L1199.14 226.459C1217.83 210.441 1229.21 200.831 1194.81 187.406C1191.56 185.881 1187.23 184.05 1182.62 182.22ZM1198.06 225.849L1196.98 226.764C1195.89 227.832 1194.54 228.9 1193.46 229.815C1188.85 234.239 1183.97 238.663 1177.2 238.663C1176.39 238.663 1175.58 238.511 1174.49 238.511C1172.33 238.206 1170.16 237.443 1167.99 236.222C1162.03 233.324 1159.6 227.069 1157.7 222.188C1157.16 220.967 1156.89 219.9 1156.35 218.832C1152.01 209.221 1146.05 200.526 1140.09 191.983C1139.28 190.762 1138.2 189.237 1137.11 187.711C1136.57 186.949 1135.76 185.881 1134.68 184.66C1130.88 180.236 1124.65 172.609 1127.09 169.71C1129.26 167.422 1132.24 166.202 1136.57 166.202C1148.22 166.202 1165.28 174.592 1175.31 179.474C1178.02 180.847 1180.18 181.914 1181.54 182.372C1186.14 184.203 1190.48 186.033 1193.73 187.254C1227.31 200.678 1216.21 210.136 1198.06 225.849Z" fill="#939393" fill-opacity="0.1"/>
<path d="M1204.83 165.134C1198.87 162.693 1192.91 159.947 1186.68 157.049C1167.45 148.201 1145.51 138.132 1125.74 138.132C1121.95 138.132 1118.15 138.59 1114.36 139.353C1079.69 146.675 1084.57 167.422 1090.8 179.168C1094.59 186.338 1099.19 193.356 1103.8 200.22C1109.21 208.153 1114.9 216.391 1118.7 224.781C1121.13 229.815 1122.22 235.154 1123.3 240.341C1126.82 256.054 1130.07 271.004 1167.45 271.004C1170.43 271.004 1173.68 270.851 1176.93 270.699C1181.27 270.394 1184.79 270.088 1187.77 269.478C1197.79 267.648 1200.77 264.292 1205.1 259.105C1206.46 257.579 1208.08 255.749 1209.98 253.918C1212.96 251.02 1216.21 248.274 1219.46 245.528V244.765C1215.94 247.664 1212.42 250.562 1209.17 253.613C1207.27 255.596 1205.64 257.274 1204.29 258.8C1199.96 263.834 1196.98 267.19 1187.23 268.868C1184.25 269.326 1181 269.783 1176.66 269.936C1173.41 270.088 1170.16 270.241 1167.18 270.241C1130.61 270.241 1127.36 256.206 1123.84 239.883C1122.76 234.697 1121.4 229.357 1119.24 224.323C1115.44 215.933 1109.76 207.695 1104.34 199.763C1099.73 192.898 1094.86 185.881 1091.34 178.863C1085.38 167.269 1080.5 146.98 1114.63 139.658C1118.15 138.895 1121.95 138.59 1125.74 138.59C1145.24 138.59 1166.91 148.658 1186.14 157.354C1192.37 160.252 1198.33 162.998 1204.56 165.439C1209.17 167.269 1212.96 168.948 1215.94 170.168C1217.02 170.626 1218.38 171.083 1219.73 171.541V170.931C1218.65 170.473 1217.56 170.168 1216.48 169.71C1213.23 168.49 1209.44 166.964 1204.83 165.134Z" fill="#939393" fill-opacity="0.1"/>
<path d="M1121.95 -56.8267C1118.42 -56.8267 1114.9 -56.8267 1111.65 -56.8267C1108.4 -56.8267 1105.15 -56.8267 1101.9 -56.8267C1083.48 -56.8267 1068.86 -56.2165 1052.6 -53.4706C1044.21 -51.9451 1036.08 -49.8093 1028.5 -47.5211C1015.76 -43.8599 1003.58 -40.3512 988.948 -40.3512C986.511 -40.3512 984.073 -40.5038 981.635 -40.6563C971.071 -41.5716 962.945 -45.0803 955.09 -48.4364C946.422 -52.2501 938.296 -55.9114 926.648 -55.9114C925.565 -55.9114 924.481 -55.9114 923.398 -55.7588C916.355 -55.3012 904.979 -51.7925 893.873 -48.2838C886.83 -45.9956 880.059 -43.8599 875.454 -42.9446C868.682 -41.5716 863.265 -40.8089 859.473 -40.3512C848.096 -38.8257 846.742 -38.2155 841.053 -26.4691C839.428 -23.2656 838.345 -20.2146 837.261 -17.1635C833.198 -6.17992 830.219 2.3629 809.362 10.7532C795.276 16.245 777.67 18.9909 755.188 18.9909C732.976 18.9909 709.681 16.3976 689.095 14.1093C678.26 12.8889 668.238 11.821 660.654 11.3634C656.32 11.0583 649.548 10.9057 642.506 10.9057C622.732 10.9057 599.437 15.0246 597.812 20.8215C596.999 23.5674 600.792 27.8388 623.816 31.9577L626.253 32.4153C713.203 48.128 773.607 68.5698 835.365 103.046C852.43 112.504 865.432 116.928 876.266 116.928C878.704 116.928 881.413 116.623 883.58 116.166C895.227 113.725 903.624 105.487 913.376 96.0289C918.522 91.1473 924.21 85.5029 930.982 80.1636C963.758 54.23 1010.62 35.1612 1063.17 26.771C1078.61 24.3302 1093.78 22.9572 1108.13 22.9572C1154.99 22.9572 1188.04 35.924 1219.19 49.1959V48.2806C1188.04 35.0087 1154.99 22.347 1108.13 22.347C1093.78 22.347 1078.34 23.5674 1062.9 26.1608C1010.08 34.7036 962.945 53.7724 929.899 79.8585C923.127 85.1978 917.439 90.8421 912.292 95.7238C902.541 105.182 894.415 113.267 883.309 115.555C881.142 116.013 878.704 116.318 876.266 116.318C865.703 116.318 852.972 111.894 836.449 102.589C774.69 67.9596 714.015 47.5178 626.795 31.6526L624.357 31.1949C607.293 28.1439 598.354 24.4827 599.437 20.9741C600.792 16.0924 621.378 11.6685 642.776 11.6685C649.548 11.6685 656.32 11.821 660.654 12.1261C668.238 12.5838 678.26 13.6516 689.095 14.872C709.681 17.1603 733.247 19.9062 755.458 19.9062C778.212 19.9062 796.36 17.1603 810.445 11.5159C831.573 3.12565 834.823 -5.72227 838.886 -16.8585C839.97 -19.7569 841.053 -22.8079 842.679 -26.0115C848.096 -37.7579 849.179 -37.9104 860.014 -39.4359C863.806 -39.8936 868.953 -40.6563 875.996 -42.0293C880.871 -43.0971 887.643 -45.2328 894.686 -47.3685C904.979 -50.7246 916.897 -54.3859 923.669 -54.8435C924.752 -54.8435 925.836 -54.9961 926.648 -54.9961C937.754 -54.9961 945.88 -51.4874 954.277 -47.6736C962.132 -44.165 970.258 -40.5038 981.364 -39.5885C983.802 -39.4359 986.24 -39.2834 988.677 -39.2834C1003.58 -39.2834 1016.31 -42.9446 1028.77 -46.4532C1036.35 -48.5889 1044.21 -50.8772 1052.6 -52.4027C1068.58 -55.1486 1083.21 -55.7588 1101.63 -55.7588C1104.88 -55.7588 1108.13 -55.7588 1111.38 -55.7588C1114.9 -55.7588 1118.15 -55.7588 1121.95 -55.7588C1138.47 -55.7588 1153.37 -54.691 1167.18 -52.4027C1184.79 -49.5042 1202.12 -45.6905 1219.19 -40.9614V-41.8767C1202.12 -46.4532 1184.79 -50.267 1167.45 -53.1655C1153.64 -55.6063 1138.74 -56.8267 1121.95 -56.8267Z" fill="#939393" fill-opacity="0.1"/>
<path d="M1205.37 178.558C1202.12 177.337 1198.06 175.659 1193.45 173.829C1186.95 171.235 1180.99 168.337 1174.49 165.439C1173.14 164.828 1171.51 164.066 1169.62 163.15C1158.78 157.964 1143.88 150.794 1130.07 150.794C1126.28 150.794 1122.76 151.404 1119.51 152.472C1095.67 160.709 1110.02 180.541 1118.69 192.287C1119.78 193.66 1120.59 195.033 1121.4 196.254C1127.09 204.491 1132.78 213.034 1136.84 221.882C1137.65 223.56 1138.47 225.543 1139.28 227.679C1143.07 237.29 1148.22 250.409 1161.22 255.138C1163.39 255.901 1165.55 256.359 1167.99 256.511C1168.8 256.511 1169.35 256.664 1170.16 256.664C1186.14 256.664 1201.85 243.087 1213.5 233.018C1215.66 231.188 1217.56 229.51 1219.19 228.137V227.374C1217.29 228.9 1215.12 230.73 1212.68 232.713C1201.31 242.629 1185.33 256.054 1169.89 256.054C1169.35 256.054 1168.53 256.053 1167.99 255.901C1165.82 255.748 1163.66 255.291 1161.49 254.528C1148.76 249.951 1143.61 236.832 1139.82 227.374C1139.01 225.238 1138.2 223.255 1137.38 221.577C1133.32 212.577 1127.36 204.034 1121.94 195.796C1121.13 194.576 1120.05 193.203 1119.23 191.83C1110.84 180.083 1096.75 160.557 1119.78 152.472C1122.76 151.404 1126.28 150.946 1129.8 150.946C1143.34 150.946 1157.97 157.964 1168.8 163.15C1170.43 163.913 1172.05 164.676 1173.68 165.439C1180.18 168.49 1186.41 171.235 1192.64 173.829C1196.97 175.659 1201.31 177.337 1204.56 178.558C1208.89 180.236 1212.96 181.761 1217.56 183.592C1218.1 183.745 1218.37 183.897 1218.91 184.05V183.439C1218.64 183.287 1218.37 183.134 1217.83 183.134C1214.04 181.761 1209.7 180.083 1205.37 178.558Z" fill="#939393" fill-opacity="0.1"/>
<path d="M1064.52 286.716C1066.15 287.784 1068.86 289.462 1076.17 289.767C1103.26 290.988 1144.16 292.971 1178.83 310.667L1179.1 310.819C1191.02 316.921 1200.5 324.549 1207.54 333.702C1209.44 336.143 1212.69 337.668 1216.21 337.668C1217.29 337.668 1218.1 337.516 1219.19 337.363V336.753C1218.1 337.058 1217.29 337.211 1216.21 337.211C1212.96 337.211 1209.98 335.838 1208.08 333.549C1201.04 324.396 1191.29 316.616 1179.37 310.514L1179.1 310.362C1144.43 292.513 1103.26 290.683 1076.17 289.462C1069.13 289.157 1066.42 287.632 1065.06 286.564C1061.54 283.97 1061.27 280.157 1061.54 278.936C1065.33 269.631 1069.94 258.037 1068.31 245.223C1065.33 223.713 1050.17 205.254 1035.27 187.253C1023.35 172.914 1010.08 156.591 1014.68 149.268C1023.08 135.997 1056.94 117.08 1071.29 109.605C1080.23 104.876 1091.07 102.435 1103.26 102.435C1110.3 102.435 1116.26 103.198 1120.05 103.961C1144.97 108.537 1180.18 118.911 1219.46 133.098V132.488C1180.18 118.301 1144.97 107.927 1120.32 103.503C1116.53 102.741 1110.3 101.978 1103.26 101.978C1090.8 101.978 1079.96 104.419 1070.75 109.3C1056.4 116.775 1022.54 135.844 1014.14 149.116C1009.26 156.743 1022.81 173.066 1034.73 187.559C1049.35 205.407 1064.79 223.866 1067.77 245.375C1069.4 258.037 1064.79 269.631 1061 278.936C1060.46 280.004 1061 284.123 1064.52 286.716Z" fill="#939393" fill-opacity="0.1"/>
<path d="M1115.71 272.987C1121.94 274.818 1130.34 275.733 1138.47 276.496C1144.43 277.106 1150.66 277.716 1155.8 278.784C1159.05 279.394 1162.57 280.462 1166.37 281.53C1174.22 283.665 1182.89 286.106 1191.02 286.106C1192.64 286.106 1194 285.954 1195.35 285.801C1195.62 285.801 1196.16 285.649 1196.43 285.649C1207.81 283.665 1214.04 275.58 1219.46 268.105V266.732V266.885C1214.04 274.512 1208.08 283.055 1196.43 285.038C1196.16 285.038 1195.62 285.191 1195.35 285.191C1194 285.344 1192.64 285.496 1191.02 285.496C1183.16 285.496 1174.49 283.055 1166.91 280.92C1163.12 279.852 1159.6 278.936 1156.34 278.174C1151.2 277.106 1144.97 276.496 1138.74 275.885C1130.61 275.123 1122.21 274.36 1116.26 272.377C1102.98 268.258 1104.34 260.63 1105.69 252.698C1106.23 249.494 1106.78 246.291 1106.5 243.392C1102.98 218.069 1086.19 197.78 1069.94 178.101C1062.62 169.253 1062.08 159.489 1068.31 150.641C1075.08 141.183 1089.71 133.403 1107.86 129.437C1113.55 128.217 1119.51 127.606 1125.47 127.606C1151.47 127.606 1176.12 138.895 1197.79 148.811C1204.02 151.557 1209.71 154.303 1215.39 156.591C1216.75 157.201 1218.1 157.659 1219.46 158.269V157.659C1218.37 157.201 1217.29 156.743 1215.94 156.286C1210.52 153.998 1204.56 151.404 1198.6 148.506C1176.93 138.437 1152.28 127.149 1125.74 127.149C1119.51 127.149 1113.55 127.759 1107.86 128.979C1089.44 132.946 1074.81 140.726 1067.77 150.336C1061.27 159.337 1061.81 169.1 1069.4 178.101C1085.65 197.627 1102.17 217.916 1105.69 243.24C1105.96 246.138 1105.42 249.342 1104.88 252.545C1103.25 260.63 1101.9 268.715 1115.71 272.987Z" fill="#939393" fill-opacity="0.1"/>
<path d="M1121.94 -41.4197C1099.19 -41.4197 1074.81 -39.1314 1049.35 -36.6906C1020.37 -33.9447 990.572 -31.0462 958.609 -31.0462C956.442 -31.0462 954.004 -31.0462 951.837 -31.0462C940.732 -31.1988 931.522 -32.2666 923.125 -33.182C916.082 -33.9447 909.852 -34.7075 903.893 -34.7075C889.808 -34.7075 879.515 -30.5886 868.138 -20.3677C862.721 -15.4861 858.658 -9.53664 854.866 -3.89227C848.094 6.17606 841.051 16.5495 825.612 22.8041C820.194 24.9398 809.901 26.6178 799.066 28.2959C780.106 31.3469 758.707 34.8555 755.727 42.0254C752.206 51.0259 784.981 63.3825 802.588 70.0947C805.838 71.3151 808.818 72.3829 810.714 73.1457C831.571 81.6885 848.636 87.4854 864.888 87.4854C867.055 87.4854 869.222 87.3329 871.389 87.1803C884.391 85.8074 896.309 80.6207 908.498 70.8574C944.795 42.0254 997.073 20.9734 1055.58 11.5153C1073.46 8.61686 1091.34 7.09137 1108.13 7.09137C1154.99 7.09137 1189.39 17.7699 1219.19 29.5163V28.9061C1189.39 17.1597 1154.99 6.48116 1108.13 6.48116C1091.06 6.48116 1073.46 8.00667 1055.31 10.9051C996.531 20.3633 944.253 41.5678 907.956 70.3998C895.767 80.163 884.12 85.1972 871.389 86.5701C869.222 86.7227 867.055 86.8752 864.888 86.8752C848.907 86.8752 831.842 81.2309 811.256 72.688C809.36 71.9253 806.651 70.8574 803.13 69.637C785.523 63.0774 753.019 50.8733 756.54 42.178C759.249 35.3132 780.647 31.8045 799.337 28.7535C810.172 27.0755 820.465 25.3974 825.883 23.1092C841.593 16.8546 848.636 6.3286 855.407 -3.73972C859.2 -9.38409 863.263 -15.3336 868.68 -20.2152C879.786 -30.2835 890.079 -34.4024 903.622 -34.4024C909.581 -34.4024 915.541 -33.7922 922.583 -32.8769C930.98 -31.9616 940.19 -30.8937 951.295 -30.7411C953.462 -30.7411 955.9 -30.7411 958.067 -30.7411C990.03 -30.7411 1019.83 -33.6396 1048.81 -36.3855C1074.54 -38.8263 1098.65 -41.1146 1121.4 -41.1146C1135.49 -41.1146 1147.95 -40.1993 1159.32 -38.3687C1179.1 -35.1651 1198.6 -30.436 1218.92 -24.6391V-25.0968C1198.87 -30.7411 1179.37 -35.4702 1159.59 -38.6738C1148.76 -40.5044 1136.3 -41.4197 1121.94 -41.4197Z" fill="#939393" fill-opacity="0.1"/>
<path d="M1098.11 281.072C1103.53 281.835 1108.94 282.598 1114.36 283.208C1142.8 286.869 1167.18 290.073 1191.56 302.582L1192.1 302.887C1197.79 305.785 1202.12 307.158 1205.64 307.158C1206.19 307.158 1206.73 307.158 1207.27 307.006C1212.69 306.243 1215.12 302.124 1218.1 296.785C1218.65 296.022 1218.92 295.107 1219.46 294.344V292.819C1218.65 294.039 1217.83 295.412 1217.29 296.632C1214.58 301.819 1211.87 305.938 1207 306.548C1203.48 307.006 1198.87 305.633 1192.64 302.429L1192.1 302.124C1167.45 289.615 1142.8 286.411 1114.63 282.598C1109.48 281.988 1104.07 281.225 1098.38 280.462C1078.61 277.716 1081.86 267.19 1085.11 256.969C1086.46 252.545 1088.09 247.969 1087.54 244.155C1084.29 220.662 1068.31 201.288 1052.87 182.525C1050.98 180.236 1049.08 178.101 1047.18 175.965C1037.16 164.981 1028.77 155.523 1040.95 143.777C1050.16 134.929 1063.98 127.759 1077.52 120.894C1079.96 119.674 1082.4 118.453 1084.84 117.08C1089.98 114.335 1097.02 112.962 1105.69 112.962C1139.01 112.962 1190.47 132.946 1220 144.997V144.692C1190.2 132.641 1139.28 112.809 1105.69 112.809C1096.75 112.809 1089.44 114.182 1084.29 117.08C1081.86 118.301 1079.42 119.521 1077.25 120.894C1063.71 127.912 1049.89 135.081 1040.68 143.929C1028.22 155.828 1037.16 165.897 1046.91 176.575C1048.81 178.711 1050.71 180.847 1052.6 183.135C1068.04 201.899 1084.02 221.12 1087.27 244.613C1087.82 248.426 1086.46 253.003 1084.84 257.427C1081.04 267.495 1077.52 278.174 1098.11 281.072Z" fill="#939393" fill-opacity="0.1"/>
<path d="M528.197 500.897C521.425 506.694 512.757 514.017 515.737 518.898C516.82 520.881 520.07 522.407 524.675 523.475C525.488 523.627 526.571 523.78 527.655 523.78C538.219 523.78 554.742 514.627 569.369 506.694C578.578 501.66 587.517 496.778 592.664 495.405C617.855 488.998 652.797 485.947 683.405 483.201C695.594 482.134 706.971 481.066 717.535 479.998C741.642 477.404 764.937 476.032 786.607 476.032C857.845 476.032 917.979 490.524 964.568 519.051C969.715 522.254 977.57 523.932 987.321 523.932C1017.93 523.932 1070.21 507.152 1107.32 476.184C1129.53 457.573 1161.49 419.588 1128.17 373.975C1114.9 355.669 1094.86 347.126 1065.6 347.126C1043.39 347.126 1017.93 351.703 988.405 357.042C952.108 363.602 911.207 371.077 867.055 371.077C832.655 371.077 801.234 366.653 770.625 357.5C676.362 329.125 673.654 277.563 681.78 235.765C685.03 219.442 679.884 206.627 666.882 198.542C657.672 192.898 645.483 189.847 631.127 189.847C604.04 189.847 569.911 201.746 557.721 224.476C546.074 245.833 573.432 265.359 605.124 287.784C640.879 313.108 681.238 341.94 673.383 380.382C669.591 399.451 657.131 417.757 640.337 429.199C627.606 437.894 616.229 438.809 604.582 439.572C595.372 440.182 586.163 440.792 575.057 444.759C566.66 447.81 563.951 452.844 561.243 458.336C559.347 461.997 557.451 465.963 553.388 469.167C551.221 470.845 547.428 471.302 543.094 471.608C537.677 472.065 531.718 472.675 528.467 476.642C526.3 479.388 529.28 482.591 531.989 485.642C534.427 488.236 536.864 490.981 536.052 493.117C535.239 494.643 531.989 497.541 528.197 500.897ZM533.072 485.032C530.364 481.981 527.655 479.083 529.551 476.794C532.531 473.286 537.948 472.828 543.094 472.218C547.428 471.76 551.762 471.455 554.2 469.319C558.534 465.963 560.43 462.149 562.326 458.336C565.035 453.149 567.473 448.115 575.599 445.216C586.434 441.403 595.643 440.792 604.582 440.182C616.771 439.267 628.419 438.504 641.42 429.504C658.485 417.757 670.945 399.451 674.737 380.23C682.592 341.482 641.962 312.497 606.207 287.022C574.786 264.749 547.699 245.375 559.076 224.476C570.994 202.204 604.311 190.457 630.856 190.457C644.671 190.457 656.86 193.356 665.528 198.847C677.988 206.78 683.134 219.442 679.884 235.459C671.758 277.563 674.466 329.583 769.542 358.11C800.421 367.416 832.113 371.84 866.784 371.84C911.207 371.84 952.379 364.365 988.676 357.805C1017.93 352.466 1043.39 347.889 1065.33 347.889C1094.32 347.889 1113.01 355.974 1126.28 374.128C1159.32 419.283 1127.63 456.963 1105.69 475.421C1070.48 505.169 1017.66 522.865 987.051 522.865C977.57 522.865 970.527 521.339 965.381 518.288C918.25 489.609 858.116 474.964 786.065 474.964C764.124 474.964 740.83 476.337 716.451 478.93C705.887 480.15 694.511 481.066 682.322 482.134C651.442 484.879 616.5 487.93 591.038 494.49C585.621 495.863 576.953 500.592 567.202 505.931C552.846 513.864 536.594 522.865 526.571 522.865C525.759 522.865 524.946 522.865 524.134 522.712C519.8 521.797 517.091 520.576 516.007 518.746C513.299 514.169 521.696 507.152 528.197 501.507C532.26 498.151 535.51 495.253 536.323 493.27C538.219 490.524 535.781 487.625 533.072 485.032Z" fill="#939393" fill-opacity="0.1"/>
<path d="M1182.62 396.705C1186.14 397.926 1191.83 398.688 1198.6 398.688C1204.56 398.688 1211.87 398.078 1219.46 396.858V395.79C1211.87 397.163 1204.56 397.773 1198.6 397.773C1192.37 397.773 1186.95 397.163 1183.7 395.942C1167.72 390.146 1160.68 380.077 1153.36 369.399C1146.86 360.093 1140.36 350.635 1127.36 343.923V343.618H1126.82C1111.92 336.295 1091.88 332.634 1065.6 332.634C1039.87 332.634 1013.05 336.143 991.385 338.889C976.487 340.719 963.756 342.397 955.63 342.397C950.754 342.397 947.774 341.787 946.691 340.719C945.066 339.194 946.42 336.295 950.212 332.176C968.902 312.955 1006.82 267.037 1004.12 248.121C1001.95 233.171 989.218 217.611 977.028 202.661C959.151 180.846 940.461 158.421 954.005 137.064C969.444 112.656 1037.16 69.0268 1085.38 65.2131C1088.09 65.0605 1091.34 64.908 1094.32 64.908C1125.74 64.908 1171.51 75.434 1219.46 90.689V89.6211C1171.51 74.3661 1125.74 63.9927 1094.32 63.9927C1091.06 63.9927 1087.81 64.1452 1085.11 64.2978C1036.35 68.1115 967.819 112.199 952.108 136.759C938.294 158.574 956.984 181.151 975.132 203.119C987.322 218.069 1000.05 233.324 1002.22 248.121C1004.66 265.054 971.611 307.921 948.587 331.719C943.982 336.295 942.899 339.346 945.066 341.329C946.691 342.855 950.212 343.618 955.63 343.618C964.027 343.618 977.028 341.94 991.926 340.109C1013.6 337.363 1040.41 333.854 1065.6 333.854C1091.61 333.854 1111.11 337.363 1125.74 344.685C1138.47 351.245 1145.24 360.703 1151.47 370.009C1159.05 380.535 1166.37 390.756 1182.62 396.705Z" fill="#939393" fill-opacity="0.1"/>
<path d="M566.659 484.88C568.284 485.185 571.535 485.337 575.327 485.337C583.453 485.337 614.061 484.574 661.734 475.727C701.552 468.252 748.142 464.285 793.106 464.285C866.783 464.285 915.811 470.54 978.923 504.559C983.528 506.999 989.487 508.22 996.801 508.22C1024.16 508.22 1065.6 491.439 1091.33 469.93C1111.38 453.149 1140.36 418.978 1110.3 377.942C1097.29 360.398 1081.31 357.958 1065.6 357.958C1046.37 357.958 1022.26 362.382 994.363 367.416C956.712 374.281 914.185 381.908 867.054 381.908C829.403 381.908 795.002 377.026 761.415 366.958C655.775 335.228 654.421 276.038 662.547 234.392C664.985 221.425 661.463 211.204 652.525 205.56C647.107 202.204 639.794 200.373 631.126 200.373C611.082 200.373 585.891 209.679 576.139 227.222C567.472 243.24 591.85 260.478 620.291 280.615C656.317 306.243 701.281 338.279 692.614 381.145C690.176 393.349 684.217 405.096 675.278 415.774C660.922 432.86 642.232 447.352 619.208 458.946C604.039 466.574 588.87 471.913 577.765 475.727C567.742 479.235 561.512 481.371 562.054 483.049C562.325 483.812 563.679 484.422 566.659 484.88ZM578.306 476.184C589.412 472.37 604.581 467.031 619.75 459.404C642.773 447.81 661.734 433.318 676.09 416.079C685.029 405.248 690.988 393.502 693.426 381.298C702.094 338.279 657.13 306.243 620.833 280.462C592.662 260.478 568.555 243.24 576.952 227.527C586.432 210.136 611.353 200.983 631.126 200.983C639.794 200.983 646.837 202.661 651.983 206.017C660.922 211.509 664.172 221.578 661.734 234.392C653.608 276.191 654.963 335.533 761.144 367.416C794.732 377.484 829.403 382.366 867.054 382.366C914.456 382.366 956.983 374.586 994.634 367.721C1022.53 362.687 1046.37 358.263 1065.6 358.263C1080.77 358.263 1096.75 360.704 1109.48 378.094C1139.28 418.825 1110.3 452.844 1090.52 469.625C1065.6 490.677 1023.62 507.762 996.801 507.762C989.758 507.762 983.799 506.542 979.465 504.254C948.857 487.778 920.415 477.252 889.807 471.303C863.533 466.116 834.549 463.98 793.106 463.98C748.142 463.98 701.552 468.099 661.463 475.574C613.79 484.422 583.453 485.185 575.327 485.185C571.535 485.185 568.284 485.032 566.659 484.88C564.221 484.574 562.867 484.117 562.596 483.507C562.596 481.676 569.097 479.388 578.306 476.184Z" fill="#939393" fill-opacity="0.1"/>
<path d="M631.126 210.899C616.5 210.899 600.518 219.136 595.372 226.611C591.85 231.493 594.559 239.883 602.414 249.189C609.728 257.884 619.75 264.444 627.063 265.664C628.147 265.817 629.23 265.969 630.314 265.969C631.668 265.969 632.752 265.817 633.835 265.664C643.316 263.834 643.045 260.63 642.503 253.46C642.232 249.036 641.69 243.087 643.316 234.849C645.483 223.713 642.503 215.323 638.169 212.729C637.356 211.661 635.46 210.899 631.126 210.899ZM642.503 234.544C640.878 242.934 641.149 248.884 641.69 253.308C642.232 260.478 642.232 263.071 633.835 264.749C631.939 265.207 629.772 265.207 627.605 264.749C620.563 263.529 611.082 257.121 603.769 248.579C595.913 239.578 593.476 231.34 596.726 226.611C601.873 219.442 617.312 211.356 631.126 211.356C634.919 211.356 636.544 211.967 637.627 212.729C641.69 215.475 644.399 223.713 642.503 234.544Z" fill="#939393" fill-opacity="0.1"/>
<path d="M479.71 309.141C477.814 308.226 476.189 307.769 474.834 307.769C471.042 307.769 468.333 310.514 464.27 314.633C460.207 318.905 454.519 324.702 444.497 330.651L441.517 332.329C430.141 339.041 424.994 342.092 426.349 343.77C426.89 344.533 428.786 344.838 432.037 344.838C434.746 344.838 439.08 344.533 446.122 344.076C449.102 343.923 451.81 343.77 454.79 343.77C478.356 343.77 497.858 351.245 512.214 356.585C520.611 359.788 527.112 362.229 531.988 362.229C533.884 362.229 535.509 361.771 536.864 360.856C551.761 350.178 499.213 319.21 479.71 309.141ZM535.78 360.551C534.697 361.314 533.613 361.619 531.988 361.619C527.654 361.619 521.153 359.178 513.027 356.127C498.671 350.635 478.897 343.16 454.79 343.16C451.81 343.16 448.831 343.313 445.851 343.465C439.08 344.076 434.746 344.228 432.037 344.228C429.328 344.228 427.974 344.076 427.703 343.618C426.89 342.397 433.12 338.736 442.601 332.939L445.58 331.261C455.603 325.312 461.291 319.362 465.625 315.091C469.417 311.277 471.855 308.684 474.834 308.684C475.918 308.684 477.272 309.141 478.897 309.904C503.005 322.108 549.053 350.94 535.78 360.551Z" fill="#939393" fill-opacity="0.1"/>
<path d="M446.663 183.592C449.101 183.592 450.726 181.762 452.622 177.643C459.394 162.083 481.876 141.489 516.819 130.505C552.032 119.369 575.597 116.47 588.328 114.945C594.558 114.182 597.809 113.724 598.621 112.809C598.892 112.504 598.892 112.046 598.35 111.589C595.913 109.148 552.302 95.2658 489.19 92.5199L486.481 92.3673C480.793 92.0622 475.917 91.9097 471.312 91.9097C454.789 91.9097 441.788 94.503 410.908 109.148C406.033 111.436 401.157 113.572 396.281 115.708C381.384 122.115 368.382 127.759 369.194 134.014C369.736 138.895 378.404 143.624 396.01 149.116C415.513 155.218 427.431 167.27 435.287 175.202C440.162 180.236 443.413 183.592 446.663 183.592ZM396.281 148.658C379.217 143.319 370.549 138.438 369.736 133.861C368.923 127.759 381.654 122.267 396.281 115.86C401.157 113.724 406.033 111.589 410.908 109.3C441.517 94.6556 454.789 92.0622 470.771 92.0622C475.375 92.0622 480.251 92.2148 485.939 92.5199L488.648 92.6724C550.136 95.4183 594.829 109.148 596.996 111.589C597.538 112.046 597.267 112.351 597.267 112.504C596.725 113.267 593.204 113.572 587.786 114.335C575.056 115.86 551.49 118.759 516.006 129.895C480.793 140.878 458.311 161.625 451.539 177.338C449.914 181.152 448.288 182.982 446.392 182.982C443.684 182.982 440.162 179.321 435.558 174.897C427.973 166.964 416.055 154.76 396.281 148.658Z" fill="#939393" fill-opacity="0.1"/>
<path d="M451.814 209.831C454.252 209.831 455.877 208.305 456.961 204.797C464.003 183.745 479.172 153.997 530.096 138.132C545.806 133.25 563.684 129.284 584.54 126.233C588.604 125.623 593.208 123.945 597.542 122.267C603.23 120.131 608.919 117.995 614.336 117.995C614.878 117.995 615.691 117.995 616.232 118.148C619.212 118.453 621.379 119.368 623.546 120.436C625.984 121.504 628.421 122.572 631.401 122.572C632.484 122.572 633.839 122.419 635.193 122.114C637.36 121.657 638.714 120.589 639.798 119.673C641.423 118.301 643.048 117.08 647.653 117.233C652.258 117.385 654.696 119.368 657.405 121.504C659.301 123.03 661.197 124.403 663.905 125.318C665.801 125.928 669.323 126.538 672.573 126.538C674.74 126.538 676.365 126.233 677.178 125.623C677.991 125.013 678.262 124.097 677.72 123.03C675.824 119.368 662.28 116.012 653.071 113.877C650.362 113.266 648.195 112.656 646.57 112.198C633.026 108.232 619.754 104.724 608.106 101.978C560.162 90.0787 516.281 82.9088 474.296 79.8578C469.692 79.5527 465.358 79.4001 461.836 79.4001C441.25 79.4001 424.998 84.4343 393.306 101.215C385.451 105.334 377.325 108.842 369.741 112.198C352.405 119.826 338.59 125.928 338.861 133.403C339.132 139.352 348.342 145.76 367.844 153.54C399.265 165.896 420.122 184.813 433.937 197.322C442.063 204.644 447.751 209.831 451.814 209.831ZM367.844 152.929C348.613 145.302 339.403 139.047 339.132 133.25C338.861 125.928 352.405 119.979 369.741 112.351C377.596 108.995 385.722 105.334 393.577 101.367C425.269 84.7394 441.25 79.7052 461.565 79.7052C465.358 79.7052 469.421 79.8578 474.025 80.1629C516.01 83.2139 559.62 90.3838 607.564 102.13C618.941 104.876 632.484 108.385 645.757 112.351C647.382 112.809 649.549 113.419 652.258 114.029C661.197 116.165 674.74 119.521 676.365 122.877C676.907 123.792 676.636 124.555 676.095 125.013C675.282 125.623 673.386 125.775 672.302 125.775C669.594 125.775 666.072 125.165 664.176 124.555C661.738 123.792 659.842 122.267 657.946 120.894C655.238 118.758 652.529 116.622 647.653 116.47C642.507 116.165 640.881 117.69 639.256 119.063C638.173 119.979 637.089 120.894 634.922 121.352C633.568 121.657 632.484 121.809 631.401 121.809C628.421 121.809 626.254 120.894 624.087 119.826C621.921 118.911 619.483 117.843 616.232 117.538C615.691 117.538 614.878 117.385 614.336 117.385C608.648 117.385 602.689 119.673 597 121.809C592.396 123.487 588.333 125.165 584.27 125.775C563.413 128.827 545.535 132.793 529.825 137.674C478.63 153.692 463.191 183.592 456.148 204.644C455.065 207.695 453.71 209.221 451.814 209.221C448.293 209.221 442.334 204.034 434.208 196.711C420.393 184.202 399.265 165.439 367.844 152.929Z" fill="#939393" fill-opacity="0.1"/>
<path d="M551.76 401.13C570.179 399.909 587.786 392.739 596.183 382.824C604.038 373.823 608.101 358.415 583.994 336.753C573.701 327.448 562.324 317.99 551.489 308.837C520.339 282.751 490.814 258.19 478.896 233.477C465.082 205.56 476.187 182.525 513.567 161.015C546.072 142.404 588.869 131.726 631.125 131.726C662.817 131.726 691.258 137.98 711.032 149.421C732.701 161.931 743.536 180.389 742.182 202.509C741.911 207.696 741.369 213.035 741.098 218.679C739.473 238.663 737.577 261.393 743.265 280.31C749.766 301.972 765.477 315.396 791.209 321.346C805.024 324.549 818.025 326.075 829.944 326.075C851.613 326.075 870.032 320.736 883.305 310.667C905.787 293.582 911.205 264.139 896.849 237.596C865.698 180.542 791.209 146.523 680.694 110.063C596.725 82.4518 526.027 73.7564 461.831 68.7223C456.956 68.2646 452.622 68.1121 448.288 68.1121C421.472 68.1121 408.741 75.7396 392.759 85.5028C386.529 89.164 380.299 93.1303 372.173 97.0966C362.964 101.673 355.108 104.419 348.066 106.86C336.689 110.826 326.938 114.182 316.374 123.183C294.975 141.184 323.687 152.167 353.754 163.761C369.735 169.863 386.258 176.27 394.926 183.745C450.455 231.036 427.972 281.53 388.696 313.108C377.32 322.109 361.068 330.651 343.461 339.652C322.062 350.635 300.122 362.077 287.391 374.738C281.973 380.23 280.348 383.891 282.786 386.027C284.411 387.553 288.204 388.315 293.892 388.315C304.185 388.315 320.708 385.875 339.94 383.129C366.756 379.162 400.073 374.281 429.598 374.281C445.308 374.281 458.581 375.654 469.416 378.4C480.25 381.146 489.189 385.112 498.128 388.926C512.484 395.333 526.298 401.282 545.53 401.282C547.697 401.435 549.593 401.282 551.76 401.13ZM469.686 378.095C458.581 375.196 445.579 373.823 429.598 373.823C400.073 373.823 366.485 378.705 339.669 382.671C320.708 385.417 304.185 387.858 293.892 387.858C288.474 387.858 284.953 387.095 283.328 385.722C281.161 383.739 282.786 380.078 287.933 374.891C300.393 362.229 322.604 350.941 343.732 339.957C361.068 330.956 377.591 322.414 388.967 313.413C411.991 294.955 425.805 273.903 428.514 252.546C431.494 228.137 420.388 204.95 395.468 183.593C386.529 175.965 370.006 169.558 354.025 163.456C324.229 152.015 296.059 141.031 316.916 123.488C327.48 114.487 337.231 111.131 348.337 107.318C355.379 104.877 363.505 102.131 372.715 97.5543C380.57 93.588 387.071 89.7742 393.301 85.9605C409.282 76.3498 422.013 68.7223 448.288 68.7223C452.351 68.7223 456.956 68.8748 461.56 69.3325C525.486 74.3666 596.183 82.9094 680.152 110.674C790.397 147.133 864.886 180.999 896.036 237.901C910.392 264.292 904.975 293.582 882.763 310.667C869.762 320.583 851.342 325.922 829.944 325.922C818.025 325.922 805.294 324.397 791.48 321.193C766.018 315.396 750.579 302.124 744.078 280.462C738.39 261.546 740.286 238.969 741.911 218.832C742.453 213.188 742.724 207.848 742.994 202.662C744.078 180.389 733.243 161.778 711.573 149.116C691.8 137.522 663.088 131.268 631.125 131.268C588.598 131.268 545.53 141.946 513.026 160.71C493.252 172.151 480.792 183.898 475.375 196.712C470.499 208.153 471.312 220.205 478.083 233.477C490.273 258.19 519.797 282.903 550.947 308.989C561.782 318.142 573.159 327.448 583.452 336.906C607.288 358.415 603.225 373.671 595.641 382.518C587.244 392.282 570.179 399.299 551.76 400.519C549.593 400.672 547.697 400.672 545.53 400.672C526.569 400.672 513.026 394.723 498.67 388.468C489.731 384.807 480.521 380.84 469.686 378.095Z" fill="#939393" fill-opacity="0.1"/>
<path d="M569.64 382.213C576.683 379.314 581.017 375.195 582.1 370.161C585.351 355.211 561.785 333.244 540.386 319.057C513.841 301.361 487.567 282.445 474.836 264.139C474.294 263.223 473.211 260.63 472.127 257.426C468.064 246.595 461.022 228.442 450.999 228.442C450.187 228.442 449.103 228.594 448.291 228.9C444.228 230.273 442.873 233.018 444.498 237.29C445.853 240.798 448.832 244.765 451.541 248.273C454.521 251.935 456.958 255.291 456.958 257.121C456.958 261.85 452.895 263.834 449.103 265.969C446.124 267.495 443.144 269.173 442.061 271.919C440.706 275.58 443.415 278.326 445.853 280.919C448.291 283.36 450.728 285.801 449.916 289.157C448.562 295.106 414.974 316.616 385.449 335.532C361.071 351.245 339.943 364.822 340.214 367.415C340.214 367.568 340.484 367.72 340.484 367.873C342.38 368.788 346.173 369.246 351.861 369.246C360.529 369.246 372.718 368.178 386.803 366.805C403.868 365.28 423.371 363.449 440.165 363.449C453.166 363.449 463.188 364.517 470.231 366.653C474.023 367.873 478.357 369.246 482.962 370.771C503.277 377.331 528.197 385.569 549.596 385.569C557.18 385.721 563.952 384.501 569.64 382.213ZM470.231 366.347C462.918 364.212 453.166 363.144 439.894 363.144C423.1 363.144 403.597 364.822 386.532 366.5C372.447 367.72 360.258 368.941 351.59 368.941C346.173 368.941 342.651 368.483 340.755 367.568C340.755 367.568 340.755 367.568 340.755 367.415C340.484 364.975 362.425 350.94 385.72 335.837C415.245 316.769 449.103 295.259 450.458 289.157C451.27 285.801 448.832 283.208 446.395 280.614C443.686 277.868 441.248 275.427 442.602 271.919C443.686 269.173 446.395 267.8 449.374 266.122C453.166 263.986 457.229 261.85 457.5 256.969C457.5 254.986 455.062 251.782 452.083 247.968C449.374 244.46 446.395 240.493 445.04 237.137C443.415 233.171 444.498 230.578 448.291 229.205C449.103 228.9 449.916 228.747 450.728 228.747C460.209 228.747 467.252 247.358 471.044 257.426C472.398 260.783 473.211 263.223 474.023 264.139C487.025 282.445 513.299 301.361 539.845 319.057C560.973 333.091 584.538 354.906 581.288 369.704C580.204 374.738 576.141 378.704 569.37 381.45C563.952 383.738 557.18 384.806 549.325 384.806C528.197 384.806 503.277 376.568 483.233 370.009C478.357 368.941 474.023 367.568 470.231 366.347Z" fill="#939393" fill-opacity="0.1"/>
<path d="M560.16 363.144C562.597 350.635 538.761 330.804 526.843 323.329C506.257 310.209 491.9 299.073 482.42 291.751C472.939 284.428 467.793 280.462 464.543 280.462C462.105 280.462 461.021 282.14 460.209 286.259C454.249 317.379 418.495 334.16 397.367 344.228C388.157 348.652 381.927 351.55 381.656 353.991C381.656 354.754 381.927 355.364 383.011 355.822C384.907 357.042 388.157 357.5 392.762 357.5C397.908 357.5 404.68 356.737 412.265 355.974C422.287 354.907 433.663 353.839 445.04 353.839C460.75 353.839 473.481 356.127 484.045 360.551C498.672 366.958 520.342 373.823 537.407 373.823C543.637 373.823 548.783 372.907 553.117 371.229C556.909 369.246 559.618 366.5 560.16 363.144ZM536.865 373.213C520.071 373.213 498.672 366.348 484.045 360.093C473.481 355.517 460.479 353.228 444.769 353.228C433.122 353.228 421.745 354.449 411.723 355.364C404.138 356.127 397.367 356.89 392.22 356.89C387.886 356.89 384.907 356.432 383.011 355.364C382.198 354.907 381.927 354.449 381.927 353.839C382.198 351.703 388.428 348.652 397.367 344.381C418.765 334.312 454.52 317.379 460.479 286.106C461.292 282.445 462.376 280.767 464.001 280.767C466.98 280.767 472.398 285.038 481.336 291.903C490.817 299.226 505.173 310.514 525.759 323.481C537.677 330.956 561.514 350.635 559.076 362.992C558.534 366.348 555.826 368.941 551.763 370.619C547.97 372.297 542.824 373.213 536.865 373.213Z" fill="#939393" fill-opacity="0.1"/>
<path d="M791.752 237.595C789.043 261.393 801.232 277.868 813.422 285.343C819.11 288.7 825.34 290.53 830.757 290.53C838.612 290.53 844.572 287.021 847.551 280.767C865.97 239.883 803.129 196.864 795.273 193.203C793.106 192.135 791.481 191.983 790.398 192.593C788.502 193.661 789.043 197.322 790.127 204.034C791.481 211.814 793.377 223.713 791.752 237.595ZM791.481 193.203C791.752 193.05 791.752 193.05 792.023 193.05C792.294 193.05 793.106 193.203 794.461 193.813C802.045 197.322 864.616 240.036 846.197 280.462C843.488 286.411 838.071 289.767 830.757 289.767C825.611 289.767 819.652 287.937 814.234 284.733C802.045 277.411 790.127 261.24 792.835 237.595C794.461 223.56 792.565 211.814 791.481 203.881C790.668 198.237 790.127 193.966 791.481 193.203Z" fill="#939393" fill-opacity="0.1"/>
<path d="M1121.94 -30.741C1100.81 -30.741 1077.25 -28.4527 1052.33 -26.1645C1022.53 -23.266 991.924 -20.3675 958.607 -20.3675C956.17 -20.3675 953.732 -20.3675 951.294 -20.3675C949.398 -20.3675 947.231 -20.3675 945.335 -20.5201C940.188 -20.6726 935.583 -20.6726 930.979 -20.6726C902.266 -20.6726 884.389 -17.3165 872.471 0.0742168C865.157 11.0578 856.489 23.567 836.445 31.6522C830.757 33.9404 825.068 35.9236 819.922 37.6016C808.274 41.5679 799.065 44.7715 798.523 49.0429C798.252 53.0092 805.295 57.8908 821.818 64.6031C837.528 71.1627 850.53 74.2137 861.365 74.2137C862.448 74.2137 863.261 74.2137 864.345 74.2137C880.055 73.451 890.89 65.976 904.162 56.6704C910.392 52.399 917.164 47.67 925.29 43.0934C960.503 23.2619 1003.57 8.7696 1050.43 1.29462C1070.21 -1.75638 1089.71 -3.28189 1108.4 -3.28189C1154.45 -3.28189 1189.93 6.17624 1219.46 17.0073V16.3971C1189.93 5.56604 1154.45 -3.73954 1108.4 -3.73954C1089.71 -3.73954 1070.21 -2.06148 1050.43 0.989529C1003.57 8.4645 960.232 22.9568 925.019 42.9409C916.893 47.5174 909.851 52.399 903.892 56.5179C890.619 65.8235 880.055 72.9933 864.615 73.9086C863.803 73.9086 862.719 73.9086 861.636 73.9086C850.801 73.9086 838.07 70.7051 822.631 64.298C806.378 57.5857 799.336 53.0092 799.607 49.0429C799.877 44.9241 809.087 41.873 820.464 37.9067C825.61 36.2287 831.298 34.2455 836.987 31.9573C857.302 23.8721 865.97 11.2104 873.283 0.226776C884.931 -17.0114 902.537 -20.215 930.979 -20.215C935.583 -20.215 940.459 -20.215 945.335 -20.0624C947.231 -20.0624 949.127 -20.0624 951.294 -19.9099C953.732 -19.9099 956.17 -19.9099 958.607 -19.9099C992.195 -19.9099 1022.8 -22.8083 1052.6 -25.7068C1077.52 -28.1476 1100.81 -30.2833 1121.94 -30.2833C1134.13 -30.2833 1144.97 -29.5206 1154.72 -27.9951C1175.85 -24.639 1197.24 -19.1471 1219.46 -12.5875V-13.0451C1197.24 -19.4522 1175.85 -24.9441 1154.99 -28.3002C1145.24 -29.9782 1134.4 -30.741 1121.94 -30.741Z" fill="#939393" fill-opacity="0.1"/>
<path d="M770.895 236.222C767.644 259.41 775.77 278.174 793.648 289.005C803.128 294.649 814.505 297.853 825.881 297.853C842.404 297.853 855.406 291.446 859.198 281.53C870.575 252.545 852.968 226.307 836.174 209.526C816.401 189.847 791.21 175.812 779.021 171.236C774.687 169.558 771.436 168.49 769.54 168.49C768.728 168.49 768.186 168.643 767.915 168.948C766.29 170.015 767.103 172.761 768.186 178.406C770.624 188.169 774.687 206.78 770.895 236.222ZM768.457 169.1C768.728 168.948 768.999 168.795 769.54 168.795C771.166 168.795 774.416 169.863 778.479 171.388C805.837 181.762 878.972 228.747 858.386 281.225C854.594 290.988 841.863 297.243 825.61 297.243C814.234 297.243 803.128 294.192 793.919 288.547C776.312 277.716 768.186 259.105 771.166 236.222C775.229 206.78 770.895 188.169 768.728 178.253C767.915 173.066 767.373 170.015 768.457 169.1Z" fill="#939393" fill-opacity="0.1"/>
<path d="M755.186 237.747C751.935 266.58 761.957 289.31 782.814 301.819C793.649 308.226 806.651 311.734 820.736 311.734C847.552 311.734 870.305 299.53 877.348 281.377C887.641 254.528 878.702 228.137 851.073 202.966C822.903 177.338 783.898 160.862 763.041 153.235C752.477 149.421 747.872 147.743 746.247 148.963C744.892 149.878 745.705 152.777 747.601 158.269C751.393 170.015 759.79 194.881 755.186 237.747ZM746.789 149.116C747.059 148.963 747.33 148.963 747.872 148.963C750.039 148.963 754.915 150.641 762.77 153.54C831.842 178.863 898.205 225.696 876.806 281.224C869.764 299.225 847.552 311.277 821.007 311.277C807.193 311.277 794.191 307.921 783.627 301.514C762.77 289.157 753.289 266.427 756.269 237.747C760.874 194.881 752.477 170.015 748.414 157.964C746.518 152.929 745.434 149.878 746.789 149.116Z" fill="#939393" fill-opacity="0.1"/>
<path d="M443.413 141.946C450.998 141.946 456.686 137.827 462.374 131.573C472.667 120.589 494.066 115.402 505.713 112.504C511.673 111.131 513.839 110.521 513.569 109.605C513.298 108.843 511.943 108.538 503.817 108.232C479.71 107.317 426.078 120.131 419.848 129.895C418.493 132.183 419.577 134.166 422.827 135.844C432.037 140.115 438.267 141.946 443.413 141.946ZM421.473 130.352C427.161 121.504 477.272 109.3 501.109 109.3C501.921 109.3 502.734 109.3 503.546 109.3C508.151 109.453 510.318 109.605 511.131 109.758C510.047 110.216 507.339 110.826 504.901 111.436C493.253 114.334 471.313 119.674 460.749 130.962C453.977 137.98 449.102 140.878 443.413 140.878C438.538 140.878 432.849 139.048 423.911 134.929C421.202 133.708 420.389 132.183 421.473 130.352Z" fill="#939393" fill-opacity="0.1"/>
<path d="M466.98 141.488C485.399 122.572 519.258 116.012 546.345 112.351C549.054 112.046 549.324 111.283 549.054 110.825C548.512 107.774 522.779 101.825 484.587 101.825C480.253 101.825 475.919 101.825 471.585 101.978C454.249 102.588 413.077 116.317 398.179 126.386C394.387 128.979 392.491 131.267 393.032 132.945C394.116 137.217 400.617 139.047 408.472 141.183C416.598 143.471 425.808 146.065 430.413 152.167C433.121 155.675 436.372 157.506 440.706 157.506C448.019 157.353 456.687 152.014 466.98 141.488ZM431.767 151.861C427.162 145.607 417.682 142.861 409.285 140.573C401.971 138.437 395.47 136.759 394.658 132.945C394.387 131.572 396.012 129.437 399.533 126.996C414.16 116.927 454.791 103.503 471.856 102.893C476.19 102.74 480.524 102.74 484.857 102.74C522.238 102.74 547.428 108.537 547.97 110.978C547.97 111.436 546.887 111.588 546.345 111.741C518.716 115.402 484.587 122.114 465.897 141.336C450.186 157.048 438.539 160.862 431.767 151.861Z" fill="#939393" fill-opacity="0.1"/>
<path d="M823.447 272.224C824.802 272.224 826.156 271.613 827.239 270.546C832.386 264.901 832.386 245.68 818.301 233.933C816.405 232.408 813.967 232.56 811.8 234.544C806.653 239.578 804.215 255.901 818.572 269.935C820.197 271.461 821.822 272.224 823.447 272.224ZM813.425 235.154C814.238 234.544 814.779 234.086 815.321 234.086C815.863 234.086 816.405 234.391 816.405 234.696C829.677 245.985 830.219 264.901 825.072 270.24C824.531 271.003 823.718 271.308 822.905 271.308C822.093 271.308 821.009 270.698 819.926 269.63C806.653 255.901 808.549 239.883 813.425 235.154Z" fill="#939393" fill-opacity="0.1"/>
<path d="M999.511 319.057C1001.41 320.583 1006.28 321.345 1015.22 321.345C1020.91 321.345 1027.68 321.04 1035.54 320.735C1045.29 320.43 1056.39 319.972 1067.77 319.972C1104.07 319.972 1128.45 324.244 1144.7 333.702C1159.87 340.262 1168.26 350.94 1175.58 360.398C1184.52 371.84 1192.37 381.755 1209.44 381.755C1211.33 381.755 1213.23 381.603 1215.12 381.45C1216.48 381.298 1217.83 381.145 1219.19 380.84V380.077C1217.56 380.382 1216.21 380.535 1214.85 380.688C1212.96 380.84 1211.06 380.993 1209.44 380.993C1193.18 380.993 1185.6 371.229 1176.93 360.093C1169.62 350.635 1160.95 339.804 1145.78 333.092C1129.26 323.634 1104.61 319.21 1068.04 319.21C1056.66 319.21 1045.56 319.667 1035.81 319.972C1027.95 320.277 1021.18 320.583 1015.49 320.583C1007.1 320.583 1002.49 319.972 1000.87 318.599C1000.05 317.837 1000.05 316.921 1000.87 315.701C1018.2 289.767 1032.56 256.969 1031.2 246.748C1028.76 229.052 1014.95 212.272 1001.68 196.101C985.426 176.27 969.986 157.659 979.737 142.099C993.281 120.436 1055.58 82.7564 1089.44 80.1631C1091.07 80.0105 1092.96 80.0106 1094.86 80.0106C1121.13 80.0106 1167.45 90.5365 1220 108.08V107.165C1167.72 89.7738 1121.4 79.2478 1094.86 79.2478C1092.96 79.2478 1091.06 79.2478 1089.17 79.4003C1055.04 81.9937 992.197 119.979 978.383 141.793C968.361 157.659 984.071 176.575 1000.32 196.407C1013.6 212.577 1027.41 229.205 1029.85 246.748C1031.2 255.596 1018.2 287.479 999.782 315.396C998.427 316.921 998.427 318.142 999.511 319.057Z" fill="#939393" fill-opacity="0.1"/>
<path d="M1121.95 -20.2148C1102.44 -20.2148 1079.69 -18.0791 1055.58 -15.7909C1025.25 -12.8924 993.555 -9.84142 958.613 -9.84142C956.175 -9.84142 953.466 -9.84142 951.028 -9.84142L945.069 -9.99397C940.193 -9.99397 935.589 -10.1465 931.255 -10.1465C893.333 -10.1465 891.437 1.59987 889.541 14.109C888.457 20.9738 887.374 27.9911 880.602 33.9406C878.164 36.0763 871.934 38.8222 865.162 41.7206C850.806 47.8226 834.283 54.6874 842.139 61.2471C845.389 63.993 849.452 65.5185 854.328 65.5185C856.766 65.5185 859.745 65.0609 862.454 64.2981C875.185 60.6369 888.999 49.5007 899.834 40.6528C906.064 35.6186 911.481 31.3472 914.461 30.2793C917.44 29.2115 920.962 29.0589 923.941 29.0589C925.025 29.0589 926.379 29.0589 927.463 29.0589C928.546 29.0589 929.9 29.0589 930.984 29.0589C935.318 29.0589 940.193 28.7538 944.527 26.6181C949.674 24.0248 950.216 20.5161 951.028 17.3126C951.57 14.4141 952.112 11.5156 955.633 9.22738C966.197 2.05751 1003.31 -2.8241 1027.68 -6.18021C1035 -7.09551 1041.23 -8.01081 1045.83 -8.77356C1067.23 -12.2822 1088.36 -13.9603 1108.67 -13.9603C1153.91 -13.9603 1190.21 -5.57 1219.73 4.34577V3.43047C1190.21 -6.4853 1153.91 -14.8756 1108.67 -14.8756C1088.09 -14.8756 1066.96 -13.045 1045.29 -9.68886C1040.69 -8.92611 1034.46 -8.16336 1027.14 -7.09551C1000.87 -3.58685 965.114 1.14221 954.279 8.46463C950.487 11.058 949.945 14.109 949.403 17.0075C948.861 20.3636 948.32 23.4146 943.444 25.8554C939.652 27.8385 935.047 28.1436 930.984 28.1436C929.9 28.1436 928.546 28.1436 927.463 28.1436C926.379 28.1436 925.025 28.1436 923.941 28.1436C920.691 28.1436 917.17 28.2962 913.648 29.364C910.398 30.4319 905.251 34.7033 898.75 39.89C888.457 48.2803 874.372 59.569 861.641 63.2302C854.057 65.5185 848.098 64.6032 843.222 60.4843C836.179 54.5349 851.89 47.9752 865.975 42.0257C873.289 38.9747 879.248 36.3814 881.956 34.0931C888.728 27.9911 889.812 20.8212 891.166 13.9565C893.062 1.29477 894.958 -9.53631 931.526 -9.53631C935.86 -9.53631 940.464 -9.53632 945.34 -9.38377L951.299 -9.23122C953.737 -9.23122 956.446 -9.23122 958.883 -9.23122C994.097 -9.23122 1025.52 -12.2822 1056.13 -15.1807C1080.23 -17.4689 1102.72 -19.6046 1122.22 -19.6046C1132.51 -19.6046 1141.72 -18.9944 1149.58 -17.6215C1171.52 -13.9603 1195.08 -7.55316 1219.46 -0.23074V-1.14604C1195.08 -8.31591 1172.06 -14.723 1149.85 -18.2317C1141.72 -19.4521 1132.51 -20.2148 1121.95 -20.2148Z" fill="#939393" fill-opacity="0.1"/>
<path d="M1040.41 299.225C1045.56 303.344 1056.12 303.802 1070.75 304.412C1072.38 304.412 1074 304.565 1075.63 304.565C1080.23 304.717 1085.11 304.87 1090.25 305.022C1114.09 305.48 1141.45 305.938 1165.83 318.599L1166.1 318.752C1179.64 325.464 1187.77 337.211 1194.81 347.737C1202.12 358.263 1208.08 367.263 1218.1 367.263C1218.37 367.263 1218.65 367.263 1218.92 367.263V366.805C1218.65 366.805 1218.37 366.805 1218.1 366.805C1208.89 366.805 1202.66 357.805 1195.62 347.584C1188.58 337.058 1180.45 325.312 1166.64 318.447L1166.37 318.294C1141.72 305.633 1114.36 305.022 1090.25 304.565C1085.11 304.412 1080.23 304.412 1075.63 304.107C1074 303.955 1072.38 303.955 1070.75 303.955C1056.12 303.344 1045.83 302.887 1040.95 298.92C1036.35 295.259 1037.16 288.242 1043.12 276.495C1048.81 265.512 1050.71 255.596 1049.35 245.985C1046.64 226.306 1032.02 208.763 1017.93 191.677C1003.3 173.829 989.489 157.049 996.532 145.607C1008.72 126.386 1066.96 92.5197 1091.07 90.6891C1091.61 90.6891 1092.42 90.5365 1094.05 90.5365C1114.36 90.5365 1159.87 99.9946 1219.19 120.436V119.826C1160.14 99.3844 1114.36 90.0789 1094.05 90.0789C1092.69 90.0789 1091.61 90.0789 1091.07 90.2314C1066.69 92.062 1007.91 126.233 995.719 145.455C988.406 157.201 1002.22 173.982 1017.12 191.983C1031.2 208.916 1045.56 226.611 1048.27 246.138C1049.62 255.749 1047.46 265.664 1042.04 276.495C1036.35 288.547 1035.81 295.259 1040.41 299.225Z" fill="#939393" fill-opacity="0.1"/>
<path d="M546.613 437.131C586.973 434.537 634.917 407.536 647.919 386.942C670.401 351.092 630.583 322.26 592.119 294.343C555.01 267.495 520.068 242.019 537.133 211.051C552.031 184.049 599.975 169.557 637.625 169.557C657.941 169.557 675.276 173.676 686.924 180.998C700.738 189.694 706.156 202.966 702.634 219.289C690.445 275.427 686.924 336.905 798.251 355.059C810.982 357.194 823.713 358.262 835.631 358.262C882.492 358.262 912.288 343.16 929.082 330.498C961.315 306.242 972.421 269.783 956.981 240.036C943.709 214.712 917.705 190.304 877.346 165.133C817.483 127.758 735.951 95.5702 627.874 66.8908L623.269 65.6704C577.763 53.6189 530.903 41.1097 481.604 34.245C478.625 33.7873 475.374 33.3297 471.853 32.872C456.684 30.5838 437.453 27.6853 421.2 27.6853C414.699 27.6853 409.011 28.1429 404.406 29.0582C397.364 30.4312 393.301 33.1771 389.509 35.7705C386.529 37.7536 383.82 39.7368 379.486 41.2623C376.778 42.1776 371.36 43.398 365.672 44.6184C356.462 46.6016 346.982 48.7373 344.002 50.5679C338.314 54.3816 339.939 56.6699 341.294 58.9581C342.377 60.4836 343.461 62.0092 342.106 64.2974L341.023 66.128C332.897 79.705 332.897 79.705 313.936 82.756C310.414 83.3662 305.81 84.1289 300.392 85.0443C284.682 87.7902 278.452 92.2141 272.222 96.333C267.346 99.5366 263.012 102.588 254.615 105.028C254.344 105.028 254.074 105.028 253.803 105.028C244.051 105.028 170.104 107.774 164.416 117.995C162.79 120.741 166.312 123.792 174.167 126.843C184.189 130.809 192.044 131.267 196.92 131.267C199.358 131.267 201.525 131.114 203.421 130.962C205.317 130.809 206.942 130.809 208.567 130.809C214.526 130.809 220.486 131.725 228.883 143.166C230.779 145.912 232.404 148.353 233.758 150.183C240.259 159.641 240.259 159.794 256.511 163.608C260.574 164.523 265.45 165.743 271.951 167.421C292.808 172.913 297.142 179.015 302.559 186.795C305.539 190.914 308.789 195.643 314.748 200.83C321.249 206.474 329.105 211.051 336.418 215.322C349.691 223.102 362.151 230.425 366.214 242.629C372.985 263.833 352.67 284.123 329.646 302.886C318.541 312.039 295.517 322.565 270.867 333.701C229.424 352.77 182.564 374.28 182.293 394.264C182.293 405.705 187.439 414.401 197.733 420.198C209.109 426.605 226.174 429.656 250.01 429.656C284.682 429.656 327.479 423.096 365.13 417.299C394.926 412.723 420.388 408.756 436.911 408.756C440.703 408.756 443.683 408.909 446.12 409.366C461.831 411.96 474.562 417.604 486.48 423.096C502.461 430.266 517.63 437.131 539.571 437.131C542.008 437.436 544.446 437.283 546.613 437.131ZM446.933 408.451C444.224 407.994 440.974 407.841 437.182 407.841C420.659 407.841 394.926 411.807 365.13 416.384C327.479 422.181 284.953 428.74 250.552 428.74C226.987 428.74 210.463 425.689 199.629 419.587C189.606 413.943 184.731 405.4 184.731 394.417C185.002 374.89 231.591 353.533 272.493 334.769C296.871 323.481 320.166 312.955 331.542 303.649C354.837 284.733 375.423 264.291 368.652 242.629C364.588 230.12 351.858 222.645 338.314 214.712C331.001 210.441 323.145 205.864 316.644 200.372C310.685 195.186 307.435 190.609 304.455 186.49C298.767 178.405 294.433 172.151 272.764 166.506C266.263 164.828 261.387 163.608 257.324 162.692C241.614 158.879 241.613 158.879 235.383 149.878C234.029 147.895 232.404 145.607 230.508 142.861C222.653 131.877 216.423 129.742 208.567 129.742C206.942 129.742 205.046 129.894 203.421 129.894C201.254 130.047 199.358 130.047 196.92 130.047C191.773 130.047 185.002 129.589 175.25 125.775C167.937 122.877 164.957 120.283 166.041 117.995C170.916 109.147 239.988 105.791 253.532 105.791C253.803 105.791 254.074 105.791 254.074 105.791L254.344 105.333L254.886 105.791C263.825 103.198 268.701 99.9942 273.576 96.7907C279.806 92.5192 285.765 88.5529 300.934 85.807C306.351 84.8917 310.956 84.1289 314.478 83.5187C334.251 80.3152 334.522 80.1626 342.919 66.128L344.002 64.2974C345.628 61.704 344.273 59.8734 343.19 58.1954C341.835 56.0597 340.481 54.2291 345.628 51.0255C348.336 49.1949 358.088 47.2118 366.485 45.3812C372.173 44.1607 377.59 42.9403 380.57 42.025C385.175 40.4995 388.154 38.3638 391.134 36.3807C394.926 33.7873 398.718 31.3465 405.219 29.9736C409.553 29.0583 414.97 28.6006 421.471 28.6006C437.453 28.6006 456.413 31.4991 471.582 33.6348C475.103 34.0924 478.354 34.7026 481.333 35.0077C530.632 41.8725 577.492 54.3816 622.728 66.4331L627.332 67.6535C735.139 96.333 816.4 128.369 875.991 165.591C916.08 190.609 942.083 215.017 955.085 240.036C970.525 269.478 959.419 305.48 927.456 329.583C910.933 342.092 881.409 356.889 835.361 356.889C823.442 356.889 810.982 355.821 798.522 353.838C688.82 335.99 692.341 274.97 704.259 219.289C707.781 202.661 702.363 189.084 688.278 180.083C676.36 172.456 658.212 168.337 637.625 168.337C599.433 168.337 550.676 183.134 535.507 210.593C518.172 242.019 555.281 268.868 591.036 294.801C629.229 322.413 668.505 351.092 646.564 386.331C633.833 406.621 586.702 433.317 546.884 435.758C544.717 435.91 542.55 435.91 540.383 435.91C519.255 435.91 504.357 429.198 488.647 422.028C475.916 416.994 463.185 411.197 446.933 408.451Z" fill="#939393" fill-opacity="0.1"/>
<path d="M794.191 -2.0618C784.982 1.59941 772.522 3.43002 755.728 3.43002C736.225 3.43002 714.285 0.989212 694.782 -1.1465C683.406 -2.3669 672.571 -3.5873 663.903 -4.19751C659.569 -4.50261 647.922 -5.11281 633.836 -5.11281C607.562 -5.11281 573.703 -3.12965 562.327 6.48103C557.451 10.5999 557.18 15.9391 561.785 22.0412C563.952 24.9396 569.369 26.4651 574.787 27.9906C579.121 29.211 583.455 30.4314 585.892 32.2621C588.872 34.3978 590.497 37.6013 592.122 40.4998C594.289 44.4661 596.456 48.5849 601.603 51.0257C607.833 54.0768 614.876 55.4497 623.543 55.4497C629.502 55.4497 635.732 54.8395 641.692 54.0768C647.651 53.4666 653.61 52.7038 659.298 52.7038C664.986 52.7038 669.862 53.314 674.196 54.687C685.031 57.738 689.365 62.0094 693.97 66.1283C699.658 71.4675 705.075 76.5017 722.953 78.7899C760.062 83.6716 770.355 88.8583 795.004 101.215C798.255 102.74 801.505 104.571 805.297 106.402C814.236 110.826 820.737 115.86 826.967 120.589C832.655 124.86 838.343 129.437 845.928 133.403C855.137 138.437 863.805 140.573 872.202 142.861C883.308 145.76 894.143 148.506 903.623 157.811L905.248 159.337C917.437 171.083 929.626 182.067 937.211 182.067C938.294 182.067 939.378 181.762 940.19 181.304C942.899 179.626 943.712 175.202 942.357 167.727C941.545 163.303 936.127 159.489 930.71 155.675C924.751 151.557 919.333 147.743 919.604 143.471C919.875 138.437 925.563 135.844 931.252 133.25C935.586 131.267 939.92 129.284 942.357 126.233C948.587 118.758 949.942 112.046 951.567 105.486C953.463 96.4858 955.359 87.943 969.715 78.3323C995.448 61.0941 1031.47 47.9747 1071.02 41.5676C1084.29 39.4319 1096.48 38.3641 1108.4 38.3641C1149.03 38.3641 1178.01 50.7206 1208.89 63.9925C1212.41 65.518 1215.94 67.0435 1219.46 68.4165V66.891C1216.21 65.5181 1213.23 64.1451 1209.98 62.9247C1178.83 49.6528 1149.57 37.1437 1108.4 37.1437C1096.21 37.1437 1083.75 38.2115 1070.48 40.3472C1030.39 46.7543 994.094 60.0262 968.09 77.417C953.463 87.3327 951.567 96.0282 949.4 105.181C948.046 111.588 946.42 118.148 940.461 125.47C938.023 128.369 933.96 130.352 929.897 132.183C923.938 134.929 917.979 137.674 917.437 143.166C917.166 147.895 923.126 152.014 928.814 156.133C933.96 159.794 939.378 163.608 940.19 167.574C941.545 176.422 939.919 179.321 938.565 180.389C938.023 180.694 937.482 180.846 936.94 180.846C929.356 180.846 913.645 165.286 906.603 158.726L904.977 157.201C894.955 147.59 884.12 144.844 872.744 141.946C864.347 139.81 855.95 137.674 847.011 132.793C839.698 128.826 833.739 124.403 828.321 120.131C821.82 115.249 815.319 110.215 806.381 105.791C802.588 103.961 799.338 102.283 796.088 100.605C771.168 88.0955 760.874 82.9088 723.223 78.0272C706.159 75.7389 701.012 71.0099 695.595 65.8232C690.99 61.5517 686.385 57.2803 675.28 54.0768C670.675 52.7038 665.528 52.0936 659.569 52.0936C653.61 52.0936 647.38 52.7038 641.421 53.4666C635.462 54.0768 629.503 54.8395 623.814 54.8395C615.688 54.8395 609.187 53.4666 602.957 50.7206C598.352 48.4324 596.185 44.6186 594.019 40.6523C592.393 37.6013 590.497 34.3978 587.518 32.1095C584.809 29.9738 580.204 28.7534 575.87 27.533C570.724 26.0075 565.577 24.6345 563.681 22.0412C559.347 16.2442 559.618 11.3626 564.223 7.39632C575.058 -1.7567 608.375 -3.73986 634.378 -3.73986C648.463 -3.73986 660.111 -3.12965 664.174 -2.82455C672.842 -2.3669 683.676 -1.14649 695.053 0.226456C714.556 2.36217 736.496 4.95552 756.27 4.95552C773.334 4.95552 786.336 3.12491 795.817 -0.68885C819.653 -10.147 812.611 -24.3342 806.11 -38.0637C799.067 -52.7085 791.754 -67.9636 821.008 -77.8794C824.529 -79.0998 829.134 -79.71 834.822 -79.71C852.158 -79.71 876.807 -74.3707 900.643 -69.184C921.229 -64.6075 941.003 -60.3361 953.734 -60.1835C955.63 -60.1835 957.526 -60.1835 959.151 -60.1835C986.509 -60.1835 1014.14 -62.7769 1040.95 -65.3702C1067.77 -67.9636 1095.4 -70.557 1122.49 -70.557C1141.45 -70.557 1158.78 -69.3365 1175.03 -66.5906C1190.2 -64.1498 1205.1 -60.9463 1219.73 -57.2851V-58.5055C1205.1 -62.1667 1190.47 -65.2177 1175.58 -67.6585C1159.05 -70.2519 1141.72 -71.6248 1122.49 -71.6248C1095.13 -71.6248 1067.5 -69.0315 1040.68 -66.4381C1014.14 -63.8447 986.509 -61.2514 959.151 -61.2514C957.255 -61.2514 955.63 -61.2514 953.734 -61.2514C941.274 -61.4039 922.042 -65.6753 901.456 -70.0993C877.619 -75.286 852.699 -80.7778 834.822 -80.7778C828.592 -80.7778 823.716 -80.1676 819.924 -78.7947C789.587 -68.4212 796.9 -52.8611 804.214 -37.7586C810.444 -24.3342 816.674 -11.0623 794.191 -2.0618Z" fill="#939393" fill-opacity="0.1"/>
</g>
</svg>
