<svg width="90" height="90" viewBox="0 0 90 90" fill="none" xmlns="http://www.w3.org/2000/svg">
<path fill-rule="evenodd" clip-rule="evenodd" d="M88.7199 54.8894C88.9981 53.9284 89.2208 52.5717 89.2764 51.8368C89.4991 51.4411 89.4991 49.5192 89.7217 49.3496C89.7774 48.8973 89.6104 49.18 89.666 48.6712C89.7217 48.3321 89.7774 48.0494 89.833 47.6537C89.7774 47.3145 89.833 46.6362 89.8887 46.5231C89.8887 46.6927 89.9443 46.6362 89.9443 46.7492C89.8887 47.2015 89.833 48.3321 89.833 48.8408C90 47.9363 90 46.8623 90 46.0709C90 46.184 90 46.4101 89.9443 46.4101C89.9443 46.0709 89.8887 46.0709 89.8887 45.7317C89.9443 45.6752 90 46.0709 90 45.6187C90 45.4491 89.9443 45.3926 89.9443 45.1664C90 44.4316 89.9443 43.2445 89.833 42.5096C89.9443 41.4355 89.3878 39.2875 89.666 39.0048C89.4434 38.1004 89.2208 37.1959 89.1651 36.2914C89.1095 36.0653 89.0538 36.2349 88.9981 35.9523C88.9425 35.5 88.7755 34.9347 88.6085 34.3129C88.4416 33.7476 88.2189 33.1258 88.0519 32.6171C88.1633 32.6736 88.3859 33.7476 88.3859 33.3519C87.7737 31.8257 87.551 30.469 87.0501 29.2819C87.1058 29.2819 87.2727 29.7341 87.3284 29.6776C87.1614 29.3384 86.9388 28.6035 86.7161 28.2078C86.7161 28.1513 86.7161 28.0382 86.7718 28.0382C86.3822 27.2468 86.1039 26.5685 85.7699 25.7206C85.6586 25.6075 85.8256 26.0032 85.7143 25.7771L85.436 25.1553C85.5473 25.2683 85.5473 25.2683 85.436 24.9857C84.9351 24.1378 84.3785 23.0637 83.8219 22.3288C84.1002 22.555 83.6549 22.0462 83.6549 22.0462H83.7106C83.4879 21.6505 83.2096 21.1983 82.8757 20.6895C82.7087 20.4634 82.5417 20.1807 82.3748 19.9546C82.2078 19.7285 81.9852 19.4459 81.8182 19.2198C81.0946 18.2588 80.4267 17.4108 80.2041 17.0717C80.3154 17.2413 79.7588 16.789 79.5362 16.3933C79.5362 16.2803 79.7032 16.5629 79.7588 16.5064C79.3135 15.9976 78.8683 15.4323 78.3117 14.9236C77.8108 14.4148 77.3098 13.8495 76.7532 13.3408C75.6401 12.3232 74.5269 11.1927 73.1911 10.2317C73.2468 10.2882 73.3581 10.4013 73.3581 10.4013C72.7458 9.89252 72.3562 9.55335 71.9666 9.21418C71.577 8.93153 71.1317 8.64889 70.6308 8.30972C69.7403 7.57484 67.7922 6.55733 67.2913 6.21815C67.4026 6.27468 67.8479 6.61385 67.5696 6.44427C67.0686 6.04856 66.5677 5.76592 66.0111 5.48328C65.4545 5.20064 64.8423 4.86147 64.0074 4.52229C63.8961 4.35271 62.7829 3.90047 62.7273 4.01353C63.0612 4.18311 63.2839 4.23965 63.3952 4.23965C63.5065 4.3527 63.9518 4.46576 63.7848 4.52229C63.2282 4.29617 61.5028 3.61783 62.3933 3.90047C61.5584 3.5613 61.0019 3.39172 60.5009 3.22213C60 3.05254 59.4991 2.82643 58.7199 2.65685C58.4972 2.3742 56.3265 2.03502 56.4935 1.92197C56.0482 1.86543 55.436 1.75239 55.0464 1.5828C56.0482 1.69585 56.7161 1.92197 57.3284 2.03503C56.9388 1.92197 56.6605 1.86544 56.5492 1.80891C56.0482 1.75238 55.5473 1.63932 55.102 1.52627C55.102 1.63932 54.6568 1.46974 54.5455 1.41322C54.3785 1.46974 54.9351 1.46973 54.7681 1.52627C54.0445 1.41321 53.154 1.24362 52.3748 1.07404C52.5974 1.07404 52.7644 1.13056 52.82 1.07404C52.1521 1.0175 51.4842 0.847923 51.3173 0.960983C51.5399 1.01751 52.0965 1.0175 52.0965 1.07404C51.2616 1.0175 50.6494 0.904449 50.1484 0.791397C50.3154 0.791397 50.9833 0.904449 50.5937 0.791397C50.0371 0.678337 49.9258 0.791397 49.5362 0.734871C48.3673 0.508751 47.5325 0.508751 46.308 0.508751C46.141 0.565277 45.4731 0.565277 44.9165 0.621811C44.9165 0.565277 44.8609 0.565285 44.8052 0.565285C44.7495 0.508751 45.2505 0.565277 45.1391 0.452225C44.9165 0.452225 44.5269 0.452217 44.1373 0.508751C43.7477 0.508751 43.3024 0.565277 42.9685 0.508751C42.6902 0.565277 41.2987 0.734863 41.1317 0.621811C41.9109 0.508751 42.6345 0.452225 43.0798 0.452225C43.1354 0.395691 43.7477 0.395691 44.3043 0.339165C44.8609 0.339165 45.3618 0.339165 45.3061 0.282639C45.4174 0.339165 45.4731 0.339165 45.7514 0.339165C45.9184 0.282631 46.2523 0.282639 46.5306 0.169586C46.475 0.339172 47.1985 0.0565186 47.3655 0.226105C47.7551 0.282631 47.5881 0.169586 47.8108 0.169586C48.1447 0.226112 48.256 0.282639 48.6456 0.282639C51.3173 0.169579 54.2672 0.847923 56.8275 1.35668C56.2709 1.1871 55.5473 1.07404 55.2134 0.960983C55.436 1.01751 55.7699 1.13056 55.8813 1.07404C55.6586 1.0175 55.3247 0.960976 55.2134 0.904449C55.8256 0.960976 56.2152 1.1871 56.4935 1.1871C55.8256 1.01751 56.5492 1.13056 56.4935 1.07404C56.2709 0.960976 55.9369 0.960983 55.603 0.847931C55.5473 0.904457 55.7143 0.904449 55.7143 0.960983C55.4917 0.904449 55.4916 0.847923 55.269 0.791397C54.4341 0.791397 53.4323 0.508751 52.3748 0.452225C51.3173 0.339165 50.2041 0.169586 49.2579 0.169586C49.1466 0.0565262 48.757 0.113052 48.8126 0.169586C48.3117 0.113052 48.2004 0.0565262 47.9777 0C47.4768 0.113052 46.0853 -7.62939e-06 45.4174 0.113052C44.6939 -0.0565338 43.0798 0.226105 42.3006 0.282639C42.4119 0.282639 42.4119 0.282631 42.4119 0.339165C42.0223 0.395691 41.744 0.452225 41.4657 0.395699C41.744 0.339165 41.6883 0.395699 42.0223 0.395699C41.7996 0.395699 41.577 0.395699 41.2987 0.395699C41.0204 0.395699 40.7421 0.452217 40.4638 0.508751C39.9072 0.621803 39.2393 0.678337 38.6827 0.791397C38.5158 0.847923 38.2375 0.904449 38.0148 0.960983C37.7922 0.960983 37.18 1.07404 36.6234 1.1871C36.5677 1.24362 36.4007 1.35668 35.8442 1.41322C36.4564 1.41322 37.5139 1.1871 38.2375 1.01752C37.8479 1.1871 38.5158 1.07404 38.0705 1.1871C37.7365 1.13056 35.9555 1.5828 35.4545 1.69586C35.6772 1.63933 35.9555 1.58279 35.8998 1.63933C35.5659 1.69585 34.9536 1.92197 34.6753 1.9785C35.2319 1.80891 35.0649 1.80891 35.4545 1.75238C35.2319 1.75238 34.9536 1.75239 34.5084 1.86545C34.4527 1.9785 34.898 1.80891 34.7866 1.92197C34.6753 1.97849 34.6753 1.9785 34.564 1.9785C34.397 1.9785 33.3395 2.31767 33.6178 2.14809C32.7829 2.3742 31.6141 2.7699 31.2245 2.7699C30.5566 3.05254 30 3.22213 29.3878 3.50478C28.8312 3.78741 28.2189 4.01353 27.551 4.29617C27.4954 4.29617 27.551 4.18311 27.384 4.23965C27.3284 4.29617 27.0501 4.46576 26.8831 4.52229C26.8275 4.46576 26.6048 4.69188 26.5492 4.63535C26.7161 4.57882 26.6605 4.52229 26.7161 4.46576C26.4935 4.57881 26.3265 4.69188 26.1596 4.69188C26.1039 4.80493 26.5492 4.52229 26.4379 4.69188C26.1596 4.80493 26.1039 4.86147 25.9369 4.97453C25.4917 5.08758 24.9351 5.53981 24.1558 5.87898C24.1558 5.82245 24.2672 5.76592 24.2115 5.76592C23.8219 5.99203 23.9332 6.04856 23.5436 6.27468C23.5436 6.21815 23.7106 6.16163 23.7106 6.1051C23.321 6.55733 21.9852 7.12261 21.7069 7.2922C21.8182 7.23566 21.9852 7.17914 21.8182 7.2922C20.2041 8.30972 18.9239 9.32722 17.5325 10.4013C17.5325 10.4013 17.6438 10.2882 17.4768 10.3448C17.1985 10.6274 16.308 11.4188 15.5844 12.1537C14.8609 12.8885 14.3043 13.4538 14.4712 13.1147C14.4156 13.1712 14.3043 13.2842 14.3043 13.2842C14.4156 13.1712 14.5269 13.0581 14.5269 13.0016C14.2486 13.2277 13.8033 13.7365 13.4694 14.1322C13.3581 14.1887 13.3024 14.2452 13.1911 14.3583C12.9685 14.754 12.6902 14.9801 12.4119 15.2627C12.1336 15.5454 11.8553 15.7715 11.6327 16.1672C11.577 16.1672 11.9109 15.828 11.7996 15.828C11.1317 16.8456 9.79592 18.3718 8.90538 19.8416C8.84972 19.8416 9.29499 19.2763 9.12801 19.3893C8.46011 20.4069 7.17996 22.3288 6.51206 23.7421C6.62338 23.4029 6.28942 24.1378 6.23376 24.1378C6.40074 23.629 6.67904 23.1768 6.95733 22.668C7.23562 22.1593 7.56957 21.6505 7.90353 20.9722C7.84787 21.0287 7.90353 20.8026 7.73655 21.0287C7.73655 21.4809 6.84601 22.668 6.4564 23.5725C6.40074 23.629 6.23377 23.9116 6.28943 23.7421C5.95547 24.59 5.12059 26.2293 4.50835 27.5295C4.45269 27.8687 4.06308 28.6035 3.8961 29.2253C3.95176 28.9992 3.84045 28.9992 4.00742 28.6035C4.11874 28.4905 3.95176 28.9992 4.11874 28.4905C4.06308 28.3774 4.23006 27.9817 4.39703 27.586C4.56401 27.1903 4.78664 26.7381 4.78664 26.5685C4.67532 26.8511 4.84231 26.3989 4.73099 26.512C4.56401 27.0207 4.34138 27.4164 4.23006 27.8687C4.06308 28.0948 3.61781 28.9992 3.95176 28.547C3.67347 28.8862 3.45084 29.8472 3.2282 30.1863C3.67347 28.9427 3.78478 28.4905 4.11874 27.586C3.84045 28.0948 3.78478 28.3774 3.56215 28.9427C3.50649 28.9427 3.56215 28.8862 3.56215 28.8296C2.94991 30.469 2.61596 31.5996 2.11503 32.8432C2.11503 32.8432 2.17068 32.8432 2.17068 32.9562C1.8924 33.6911 1.6141 35.1609 1.44712 35.9523C1.50278 35.7827 1.50279 35.6696 1.55845 35.7261C1.44713 36.2349 1.39147 36.8567 1.28015 36.9132C1.22449 37.1959 1.33581 37.0263 1.28015 37.422C1.16883 37.8177 1.05752 37.9308 0.946198 38.383C1.05752 37.9873 0.834877 40.0223 0.779221 39.457C0.6679 40.1919 0.723564 40.6441 0.612244 41.1529C0.612244 41.379 0.667908 41.5486 0.667908 41.8878C0.890541 41.7747 0.890533 42.0574 1.05751 42.0008C1.05751 41.379 1.05751 40.8703 1.22449 40.7007C1.16883 40.5876 1.22449 39.5701 1.33581 39.4005C1.33581 38.5526 1.66976 37.4785 1.83674 36.1784C1.94806 36.2349 1.94805 35.7827 2.05937 35.6131C1.94805 36.0653 1.8924 36.4045 1.8924 36.8002C1.83674 36.6306 1.78107 36.8002 1.72542 37.0263C1.78107 37.1959 1.66975 37.8177 1.6141 37.9873C1.66975 38.1569 1.72542 37.4785 1.78107 37.422C1.72542 37.8742 1.66976 38.4395 1.66976 38.8352C1.50278 39.0613 1.39146 39.9658 1.44712 40.5311C1.39146 40.7572 1.39146 40.7572 1.33581 40.5311C1.39146 41.6617 1.22449 43.0183 1.16883 43.7532C1.33581 44.0359 1.16883 45.0534 1.22449 45.4491C1.22449 45.2795 1.22449 45.1664 1.28015 45.1099C1.28015 45.5056 1.33581 45.4491 1.33581 45.8448C1.22449 45.8448 1.28014 46.297 1.22449 46.5797C1.28014 46.6927 1.28015 46.184 1.33581 46.5797C1.39146 47.5972 1.39147 47.9929 1.55845 48.7278C1.50279 48.8408 1.44713 48.7278 1.50278 49.4626C1.55844 49.4626 1.55844 49.4626 1.6141 49.5757C1.6141 49.293 1.50279 49.0669 1.55845 48.9539C1.66977 49.6322 1.55844 50.1975 1.78107 50.7063C1.78107 50.8758 1.83673 51.1585 1.78107 51.102C1.72542 50.8758 1.83673 50.9889 1.78107 50.5932C1.72542 50.6497 1.72542 50.5932 1.66976 50.3671C1.61411 50.1975 1.6141 49.9714 1.6141 49.7453C1.66975 50.5367 1.55844 51.0454 1.78107 51.3281C1.83673 51.8934 1.8924 52.4021 1.94805 52.9109C2.00371 53.4196 2.05936 53.9284 2.17068 54.5502C2.11503 54.5502 2.11503 54.3806 2.05937 54.3241C2.17069 54.9459 2.39332 55.2851 2.282 55.3981C2.11502 54.8329 2.00372 54.1545 1.83674 53.8719C1.8924 54.098 1.94805 54.2676 1.8924 54.3806C1.83674 53.8719 1.78107 54.3241 1.6141 53.3066C1.55844 53.4196 1.50278 52.9674 1.44712 52.9674C1.44712 53.25 1.55845 53.7588 1.55845 53.9284C1.33582 53.0239 1.22449 52.4586 1.22449 51.8934C1.28014 52.0629 1.33581 52.5152 1.33581 52.4586C1.22449 51.7803 1.50278 52.8543 1.33581 52.176C1.16883 51.8368 1.11318 51.4411 1.00186 50.9889C1.11318 51.215 0.834877 50.4801 0.946198 50.254C0.890541 50.0279 0.834885 50.0279 0.834885 49.8018C0.834885 49.293 0.834877 48.6147 0.779221 47.9364C0.779221 47.5972 0.723564 47.258 0.723564 46.9188C0.723564 46.5797 0.723564 46.297 0.723564 46.0709C0.723564 46.2405 0.723564 46.6362 0.667908 46.5797C0.667908 46.4666 0.667908 46.4101 0.667908 46.3535C0.779228 45.9578 0.612244 45.1664 0.723564 44.9969C0.723564 44.375 0.667908 44.375 0.723564 44.0359C0.667908 43.9228 0.612244 44.0924 0.612244 43.4141C0.6679 43.4706 0.667908 43.7532 0.723564 43.7532C0.723564 43.301 0.723564 42.6226 0.779221 41.9443C0.834877 41.3225 0.834877 40.7007 0.946198 40.418C0.779221 39.6266 1.00185 38.6091 1.16883 37.6481C1.28015 37.1394 1.3358 36.6871 1.44712 36.2349C1.50278 35.7827 1.6141 35.387 1.6141 35.1043C1.66975 35.1043 1.66976 34.8782 1.72542 34.8782C1.6141 35.1609 1.6141 35.3304 1.72542 35.2739C1.83674 34.6521 1.83674 34.7086 2.11503 33.8607C1.94805 34.0303 1.78107 34.9347 1.6141 35.2739C1.6141 34.9913 1.78107 34.3695 1.8924 33.9172C1.78107 34.0868 1.55844 35.1609 1.44712 35.5C1.44712 35.5 1.50278 35.5566 1.44712 35.7261C1.39146 35.8957 1.33581 36.0088 1.28015 36.1784C1.11317 36.9698 1.05751 38.2134 0.890533 38.6091C0.94619 38.1569 0.946198 37.9873 0.946198 37.8742C0.834877 38.8918 0.667908 39.7397 0.667908 40.5876C0.612251 41.4355 0.500923 42.34 0.500923 43.5271C0.500923 43.5271 0.500931 43.4141 0.445274 43.4141C0.500931 44.2055 0.445267 45.1099 0.556587 45.9578C0.500931 45.9578 0.500923 45.7317 0.500923 45.7317C0.55658 46.2405 0.556587 46.6362 0.612244 47.0884C0.556587 46.8623 0.556587 47.4841 0.556587 47.5972C0.612244 47.5406 0.612251 47.7102 0.667908 47.9364C0.667908 48.219 0.612244 47.7668 0.612244 48.0494C0.723564 48.6712 0.779213 49.4061 0.890533 49.8583C0.834877 49.8583 0.779221 49.2365 0.779221 49.6322C0.834877 49.8018 0.890533 50.0844 0.890533 50.4236C0.94619 50.7063 1.00185 51.102 1.05751 51.4411C1.16883 52.1195 1.22449 52.8544 1.28015 53.1935C1.22449 52.8544 1.39147 53.5327 1.39147 53.6457C1.44713 53.8153 1.39146 53.137 1.44712 53.4762C1.39146 53.6458 1.6141 54.4372 1.6141 54.5502C1.6141 54.7763 1.50278 54.1545 1.44712 54.211C1.50278 54.7198 1.6141 55.2851 1.78107 55.9069C1.6141 55.3416 1.39146 54.5502 1.22449 53.6457C1.05751 52.7413 0.890541 51.7803 0.667908 50.9889C0.612251 51.102 0.779228 51.4977 0.834885 51.7238C0.723564 51.8368 0.890533 52.1195 0.890533 52.4586C0.6679 52.176 0.667908 51.1585 0.556587 50.6497C0.556587 50.8193 0.612244 50.9324 0.556587 50.8758C0.556587 50.7628 0.500923 50.7628 0.500923 50.6497C0.389603 49.8583 0.38961 48.5016 0.222633 48.4451C0.166977 47.8233 0.278297 47.3711 0.166977 46.8058C0.166977 47.4276 0.222641 48.0494 0.11132 48.3321C0.0556641 48.3321 0 47.4276 0 47.8233C0.166977 48.7278 0.166977 49.0669 0.278297 49.9149C0.278297 49.8018 0.222641 49.293 0.278297 49.4061C0.333954 49.8018 0.389603 50.3671 0.333946 50.4236C0.27829 50.0844 0.222626 50.6497 0.333946 50.7063C0.27829 50.3671 0.445274 50.8193 0.445274 50.9324C0.445274 50.9889 0.500923 51.215 0.500923 51.4411C0.445267 51.4411 0.445274 51.4977 0.445274 51.6107C0.500931 52.0064 0.556587 52.176 0.612244 52.4586C0.723564 54.0415 1.55845 56.133 1.83674 57.6028C1.83674 57.5462 1.78107 57.4897 1.78107 57.4897C1.94805 57.7158 2.11503 58.4507 2.17068 58.3942C2.17068 58.5072 2.39333 59.1856 2.44898 59.2421C2.44898 59.129 2.282 58.6768 2.282 58.6203C2.33765 58.6203 2.33767 58.7333 2.39333 58.8464C2.44898 59.1856 2.50464 59.2421 2.61596 59.5247C2.61596 59.6378 2.67162 59.7509 2.67162 59.9204C2.94991 60.6553 3.00557 60.938 3.33952 61.6163C3.33952 61.6163 3.28386 61.5598 3.2282 61.5598C3.39518 61.8424 3.50649 62.1251 3.56215 62.3512C3.39517 62.012 3.28386 61.7859 3.11688 61.6163C3.33952 62.1251 3.67347 62.9165 3.84045 63.0295C3.78479 62.8034 3.56216 62.5773 3.61781 62.4642C3.78479 62.8034 3.95177 63.086 4.06309 63.3122C4.00743 63.3122 4.06308 63.4252 4.1744 63.6513C4.00742 63.4252 4.11874 63.8209 4.1744 64.047C4.28572 64.1036 4.11874 63.7644 4.23006 63.7644C4.45269 64.2731 4.28571 63.8774 4.39703 64.1036C4.67532 64.6689 4.61967 64.7819 4.8423 65.2341C4.73098 65.1211 4.50835 64.7254 4.34138 64.5558C4.61967 65.1776 4.73099 65.1776 5.00928 65.7429C4.95362 65.7429 4.8423 65.5733 5.00928 65.9125C5.23191 66.1951 5.51021 66.7604 5.7885 67.2692C6.06679 67.8345 6.40075 68.3432 6.67904 68.7389C6.62338 68.5693 6.4564 68.4563 6.4564 68.2867C6.51205 68.2867 6.62338 68.5128 6.67904 68.5693C6.67904 68.6824 6.90167 69.0216 6.79035 68.965C7.23562 69.5303 7.51392 70.2087 8.0705 70.9435C8.12616 71.0566 8.12616 71.2827 8.34879 71.5088C8.23747 71.3958 8.18182 71.2827 8.23748 71.2827C8.57143 71.6784 8.7384 71.9611 9.23933 72.6959C9.18367 72.8655 9.74026 73.7134 10.0186 74.1091C10.2412 74.2787 9.96289 73.9396 10.1299 74.1657C10.5195 74.6744 10.7978 75.0701 11.1874 75.5224C11.577 75.9746 11.9109 76.4834 12.4675 77.0486C11.8553 76.4834 13.0241 77.6139 12.5788 77.2748C13.0241 77.6139 13.692 78.2923 13.9147 78.5749C13.7477 78.4619 13.859 78.3488 13.9703 78.5184C14.1373 78.7445 13.9703 78.6314 14.3043 78.9141C14.1929 78.9141 14.2486 79.0271 14.4712 79.3098C14.5826 79.4228 14.5269 79.2533 14.6939 79.4228C14.9722 79.7055 15.0278 79.762 15.2505 79.9316C15.0835 79.8185 14.9722 79.762 14.9165 79.762C15.2505 80.0447 15.0278 79.9316 14.9722 79.8751C15.2505 80.1577 15.5288 80.3838 15.6957 80.61C15.7514 80.4969 15.5288 80.2708 15.8071 80.4404C15.5288 80.1577 15.5844 80.1577 15.5288 79.9881C15.8627 80.2708 16.2523 80.61 16.6419 80.9491C17.0315 81.2883 17.4212 81.6275 17.8664 81.9666C18.7013 82.5885 19.4805 83.2668 20.0928 83.7756C19.8701 83.719 19.8145 83.7756 20.0928 84.0017C20.4824 84.0017 21.2059 84.4539 21.9295 84.9627C22.7087 85.4714 23.5436 86.0367 24.2672 86.3194C24.4898 86.2628 24.2115 86.1498 24.2672 86.0367C25.1577 86.4889 25.3803 86.4889 25.7699 86.5455C26.4378 86.8281 26.7161 86.9977 27.4954 87.2238C27.4954 87.2803 27.4954 87.2803 27.718 87.3369C28.0519 87.4499 27.4397 87.1673 27.6067 87.1673C28.3859 87.4499 28.6642 87.3369 29.3878 87.6195C29.1651 87.3934 29.4434 87.4499 29.5547 87.4499C29.5547 87.5065 29.8887 87.6195 29.8887 87.563C29.7217 87.5065 29.8887 87.563 30.1113 87.6195C29.833 87.563 30.6679 88.0152 30.7792 87.9022C30.3896 87.7326 29.666 87.4499 30 87.4499C29.6104 87.3369 29.4434 87.2238 29.3321 87.1108C29.4991 87.1108 29.6104 87.1673 29.833 87.1673C29.7217 87.1108 29.5547 86.9977 29.3878 86.8846C29.666 86.9412 30.1113 87.1108 30.5566 87.2238C31.0019 87.3369 31.5028 87.5065 31.7811 87.676C32.2263 87.7891 32.7829 87.7326 33.1725 88.0152C33.0056 87.9587 32.616 87.9022 32.449 87.9022C32.8942 88.0152 33.5065 88.0717 33.8404 88.2979C32.8942 88.1848 31.3358 87.8456 30 87.3369C30.7792 87.7891 32.449 88.0717 33.6178 88.3544C34.1187 88.524 35.2319 88.6936 35.8442 88.8066C36.1224 88.8631 36.1781 88.9197 36.4007 89.0327C36.6234 89.0893 36.9017 89.1458 37.2356 89.1458C37.5696 89.1458 37.9035 89.2023 38.1818 89.2023C38.7941 89.2588 39.295 89.3154 39.2393 89.4284C39.6846 89.485 39.295 89.3719 39.5733 89.4284C39.7959 89.485 39.9629 89.5415 39.9072 89.598C38.7384 89.6545 37.0686 89.598 35.8442 89.485C36.1781 89.598 36.679 89.7111 36.679 89.8241C37.6809 90.0502 38.6271 89.9937 39.5176 89.9937C40.4638 89.9937 41.3544 89.8807 42.7458 89.9372C42.3562 89.7111 43.4694 89.6545 42.8571 89.485C43.0798 89.485 43.2468 89.485 43.3581 89.485C43.1911 89.3154 43.0241 89.2023 43.5807 89.0893C43.5807 89.0327 43.2468 89.0893 43.2468 89.0327C43.6364 89.0327 43.5807 88.9762 43.692 88.9197C43.6364 88.8631 43.2468 88.9197 43.2468 88.8631C42.7458 88.3544 42.0223 88.0717 41.0204 87.5065C40.1299 87.3369 39.7403 87.0542 38.9054 86.8846C39.0724 86.7716 38.2375 86.602 38.5714 86.5455C38.2931 86.5455 38.1262 86.4889 38.1262 86.4324C38.4045 86.4889 38.5714 86.4889 38.5714 86.4324C38.0148 86.3759 38.3488 86.3194 38.3488 86.3194C38.1818 86.2063 37.9035 86.0932 37.6252 85.9802C37.3469 85.8671 37.0686 85.6975 36.9573 85.5845C37.5139 85.6975 38.1262 85.7541 38.6827 85.8671C39.2393 85.9802 39.7403 86.0932 40.2412 86.0932C40.6308 86.2063 41.243 86.2628 41.3544 86.3759C41.0204 86.3759 40.6865 86.3759 40.6865 86.4324C41.4657 86.5455 42.2449 86.6585 43.3581 86.7151C43.4694 86.8281 43.859 86.8846 44.3599 86.8846C44.8609 86.8846 45.4174 86.8846 45.8627 86.8846C45.8627 86.9412 45.5844 86.9412 45.6401 86.9977C46.2523 86.9412 46.9202 86.9412 47.5881 86.8846C48.256 86.8281 48.9796 86.7716 49.5918 86.7716C49.8145 86.8846 50.5937 86.8846 51.3173 86.7716C51.9852 86.6585 52.6531 86.602 52.7087 86.7151C53.2653 86.6585 53.8219 86.5455 54.1002 86.602C53.9889 86.7716 53.5993 86.8846 53.7662 86.9977C54.1002 87.0542 55.0464 86.7716 55.4917 86.7716C55.4917 86.6585 56.1596 86.4324 56.6048 86.3759C56.5492 86.4324 56.2709 86.4889 56.1596 86.602C56.6605 86.602 56.5492 86.7151 56.9388 86.7716C57.1058 86.7151 57.384 86.6585 57.551 86.602C57.7737 86.5455 57.885 86.4889 57.9406 86.5455C57.7737 86.602 57.4397 86.6585 57.384 86.7151C57.718 86.602 57.718 86.6585 58.1076 86.5455C58.0519 86.4324 58.5529 86.3759 58.7755 86.3194C59.0538 86.1498 58.6642 86.2628 58.9425 86.0932C59.6104 85.8671 60.2783 85.6975 60.8349 85.5845C61.3915 85.4149 61.8924 85.2453 62.282 84.9627C62.115 85.0192 61.7811 85.1322 61.5028 85.3018C60.6122 85.4714 59.666 85.6975 58.6642 85.8671C58.6642 85.8106 58.8312 85.7541 58.7199 85.7541C58.3302 85.9237 58.1633 86.0367 57.7737 86.1498C57.6067 86.1498 57.4397 86.2063 56.9944 86.3194C57.4397 86.0932 56.6048 86.3194 56.6048 86.2628C56.9388 86.1498 56.8831 86.1498 56.7718 86.0932C56.9944 86.0367 56.8831 85.9802 57.2171 85.9237C58.2189 85.641 59.3878 85.3018 60.6122 84.8496C60.1113 84.9061 58.9981 85.2453 58.2189 85.4149C58.2746 85.1888 57.885 85.2453 57.2171 85.3584C56.8831 85.4714 57.1614 85.4714 56.7718 85.5279C56.3822 85.4149 55.269 85.5279 55.436 85.1888C56.1039 85.0192 56.4378 84.8496 56.7161 84.7365C57.0501 84.567 57.3284 84.3974 57.9963 84.1713C57.9963 84.0582 58.3859 83.8886 58.4416 83.8321C58.3859 83.7756 58.2189 83.8321 58.1076 83.8886C58.1633 83.8321 58.3859 83.719 58.6085 83.606C58.8312 83.2103 57.4954 83.7756 57.384 83.5494C58.2746 83.1537 59.6104 82.758 60.2226 82.3623C59.833 82.5319 59.6104 82.4754 59.9443 82.2493C59.3878 82.4189 59.2208 82.3058 58.6085 82.4189C57.6623 82.8711 57.7737 83.0972 56.6605 83.606C56.2709 83.5494 55.269 83.719 54.3228 83.9451C53.321 84.2278 52.3191 84.3408 51.8182 84.3974C51.9295 84.3974 52.0408 84.3974 52.0408 84.3974C51.5399 84.5104 51.2616 84.5104 50.9833 84.567C51.0946 84.6235 50.4824 84.68 50.3711 84.7931C50.538 84.7931 50.705 84.7365 50.705 84.7931C49.8701 84.9627 49.2022 85.0192 48.59 85.1322C47.9221 85.2453 47.3098 85.3584 46.4193 85.4149C46.4193 85.4149 46.4193 85.4714 46.308 85.4714C43.9703 85.5845 42.4675 85.5845 40.2968 85.4714C40.2968 85.4714 40.2968 85.5279 40.1855 85.5279C39.7403 85.4149 39.1837 85.3584 38.9054 85.3018C38.961 85.3018 39.0167 85.3584 39.0167 85.3584C38.5714 85.3018 38.1262 85.2453 37.6809 85.1888C37.2356 85.1322 36.7904 85.0192 36.4007 84.9627C35.6215 84.7931 34.9536 84.6235 34.8423 84.3974C35.0093 84.4539 35.1206 84.4539 35.1763 84.4539C34.898 84.3408 34.3414 84.1713 34.6753 84.1713C34.1187 84.0582 33.7848 83.8321 34.0631 83.8321C34.0074 83.7756 33.8961 83.7756 33.9518 83.719C33.6178 83.606 33.7291 83.6625 33.5065 83.606C33.5065 83.606 33.4508 83.5494 33.3952 83.4929C33.5622 83.5494 33.7291 83.606 33.7291 83.5494C33.0056 83.3799 33.6178 83.4364 33.3395 83.2668C32.9499 83.1537 33.0612 83.3233 32.5046 83.1537C32.7273 83.1537 32.5046 83.0407 32.5603 82.9842C32.616 82.9842 32.9499 83.1537 32.9499 83.0972C32.6716 83.0407 32.7829 82.9842 32.6716 82.9276C32.5046 82.8711 32.3377 82.8146 32.282 82.8146C32.6716 82.8711 31.7254 82.645 32.0037 82.645C32.6716 82.8711 33.2839 83.0407 33.9518 83.1537C34.0631 83.2668 34.4527 83.3799 34.7866 83.4929C35.1763 83.606 35.5102 83.6625 35.6772 83.7756C35.5659 83.7756 35.4545 83.7756 35.3432 83.7756C35.5659 83.8321 35.6215 83.8886 35.7328 83.9451C36.2894 84.0582 36.6234 84.1713 36.9573 84.3408C37.2913 84.5104 37.6252 84.68 38.2375 84.7365C38.2931 84.6235 38.7941 84.68 39.295 84.7931C39.295 84.68 39.6289 84.7365 40.0742 84.7931C39.8516 84.567 41.0204 84.68 40.6308 84.4539C40.7978 84.5104 41.0204 84.5104 41.0761 84.4539C41.0204 84.3974 40.5751 84.3974 40.6308 84.3408C40.6308 84.3408 40.9091 84.3408 41.0761 84.3408C41.0204 84.1147 39.7959 84.0017 39.4063 83.7756C41.0761 83.8886 41.8553 84.1713 43.1911 84.1713V84.2843C43.525 84.3408 43.7477 84.3408 43.9703 84.2843C44.1373 84.2843 44.3043 84.2278 44.4712 84.1713C44.7495 84.1147 45.0278 84.0017 45.5288 84.0017C45.807 83.9451 46.0853 83.8321 46.475 83.7756C46.6419 83.719 46.8646 83.719 47.0315 83.719C47.2542 83.8321 47.4768 83.7756 47.6994 83.7756C47.5881 83.7756 48.3673 83.6625 48.423 83.5494C50.1484 83.3799 48.3673 83.1537 48.6456 82.9842C48.3117 82.9276 47.8664 82.9276 47.6994 82.8146C48.0891 82.758 47.9777 82.758 47.8108 82.758L48.2004 82.7015C48.1447 82.5885 48.5343 82.5319 48.0891 82.4754C47.0872 82.7015 46.1967 82.5885 45.7514 82.4189C45.9184 82.4189 45.8071 82.3623 46.0297 82.3623C46.0297 82.2493 45.4731 82.3623 45.4731 82.2493C46.141 82.2493 46.2523 82.4189 46.9202 82.4189C46.8089 82.3623 47.0315 82.3623 47.0315 82.3058C46.8646 82.3058 46.8089 82.3623 46.6419 82.3623C46.8089 82.3058 46.4193 82.3058 46.4193 82.2493C45.974 82.2493 46.0297 82.2493 45.5844 82.1928C45.5288 82.2493 45.0278 82.3058 44.8609 82.2493C45.4731 82.2493 44.6939 82.1928 45.1391 82.1362C44.2486 82.1362 44.026 82.0797 43.525 82.0797C43.859 82.0797 44.0816 82.0232 44.1373 81.9101C43.859 81.9101 43.9147 81.8536 43.859 81.8536C43.2468 81.7971 42.8015 81.7405 42.3006 81.6275C41.7996 81.5144 41.2987 81.5144 40.5751 81.3448C40.9647 81.2883 41.8553 81.4014 42.8571 81.4014C43.0241 81.3448 43.3024 81.2883 43.2468 81.1752C42.7458 81.1752 42.1336 81.1187 41.5213 81.0622C40.9091 81.0057 40.2968 80.8926 39.7403 80.8926C39.4063 80.7795 38.8497 80.723 38.2931 80.6665C37.6809 80.5534 37.013 80.4969 36.4564 80.3273C36.2338 80.2708 35.8442 80.2142 35.5102 80.1577C35.1763 80.1012 34.8423 80.0447 34.731 80.0447C34.0631 79.8185 33.3952 79.649 32.616 79.4794C31.8924 79.1967 31.1132 78.9706 30.334 78.6314C30.2226 78.5184 30.6679 78.6314 30.2783 78.5184C29.7774 78.4619 28.7755 77.84 28.2746 77.727C28.6642 77.8966 28.9981 78.0662 29.3878 78.2923C29.7217 78.4619 30.1113 78.6314 30.4453 78.801C31.1688 79.0837 31.8924 79.3663 32.7273 79.649C32.7273 79.7055 32.8942 79.7055 32.8942 79.762C31.8924 79.3663 30.5009 79.1402 30.7236 79.0837C30.6122 79.0837 30.2226 78.8576 29.8887 78.7445C29.6104 78.801 28.9425 78.2923 28.3859 78.0662C28.3859 78.1227 28.0519 77.8966 28.1076 78.0096C28.1076 78.0662 28.4416 78.2357 28.4416 78.2923C27.8293 78.1792 27.2727 77.84 26.4935 77.3313C26.4935 77.2748 26.3822 77.2182 26.4935 77.2748C26.2709 77.1617 25.6586 76.8225 25.7143 76.766C26.1596 76.9921 25.8813 76.8791 26.1596 77.0486C26.3822 77.1052 26.2152 76.9356 25.9926 76.766C26.2709 76.8791 26.3265 76.766 26.6605 76.9356C26.4935 76.8225 26.3822 76.766 26.3265 76.7095C26.4378 76.7095 26.6605 76.8791 26.7161 76.8225C26.3822 76.6529 25.9926 76.4268 25.6586 76.1442C25.603 76.2572 25.102 75.9181 24.9351 75.805C25.0464 75.805 25.3247 75.9746 25.5473 76.1442C25.436 75.9746 25.8813 76.3138 25.8256 76.2007C25.6586 76.0877 25.3247 75.9746 24.9907 75.805C24.6568 75.6354 24.3228 75.4093 24.1558 75.1832C24.8794 75.7485 25.0464 75.7485 25.4917 75.9181C25.7143 75.8615 25.5473 75.692 25.269 75.5224C24.9907 75.2963 24.6568 75.0701 24.4341 74.844C23.7662 74.3918 22.7644 73.6004 22.2635 73.2047C22.4861 73.4308 22.987 73.8265 23.0427 73.9961C22.82 73.9961 22.5974 73.6004 22.4861 73.6004C22.7644 73.883 22.987 73.9961 23.0427 74.1091C22.9314 74.0526 22.9314 74.1091 22.8757 74.0526C22.5974 73.77 22.2635 73.4308 22.3748 73.4308C22.3748 73.4873 22.2078 73.2047 22.1521 73.2612C22.2635 73.3743 22.2078 73.4308 22.2635 73.4873C22.6531 73.77 22.82 74.0526 22.8757 74.1657C22.2635 73.8265 21.8738 73.3177 21.3729 73.0916C21.3173 72.9786 20.872 72.5829 20.705 72.4698C20.8163 72.5829 20.872 72.6394 20.8163 72.6394C20.705 72.5263 20.538 72.4133 20.4267 72.3002C20.3154 72.1872 20.2041 72.0741 20.0928 71.9611C19.8701 71.7349 19.7032 71.5088 19.5362 71.3392C19.1466 70.9435 18.757 70.5478 18.3673 70.0956C18.6456 70.3217 18.757 70.4913 19.0909 70.774C18.9796 70.6044 18.757 70.3783 18.757 70.2652C19.0352 70.4913 19.2579 70.6044 19.2579 70.5478C19.6475 70.9435 19.9258 71.1131 20.3154 71.5654C20.2041 71.3392 19.8701 71.0566 19.6475 70.8305C19.6475 70.8305 19.5918 70.774 19.5918 70.7174C19.9814 70.9435 19.9258 70.7174 19.9258 70.4913C20.3154 70.8305 20.6494 71.1697 20.9276 71.5088C21.2616 71.848 21.5955 72.1306 21.9295 72.4133C22.2635 72.6959 22.5974 73.0351 22.9314 73.3177C23.2653 73.6004 23.6549 73.883 24.1002 74.1091C24.3785 74.3353 24.6568 74.5614 24.9907 74.844C25.1577 74.9571 25.3247 75.1267 25.4917 75.2397C25.6586 75.3528 25.8813 75.4658 26.1039 75.6354C26.0482 75.6354 26.2152 75.7485 26.1596 75.805C26.9388 76.2007 27.551 76.6529 28.0519 76.9921C28.1633 76.8791 28.7755 77.3878 29.1095 77.4443C29.1095 77.5009 29.2208 77.5009 29.1095 77.5009C29.833 77.6705 30.167 78.1792 31.0575 78.4053C30.6679 78.2357 31.4471 78.4053 30.7236 78.1792C30.5566 78.1792 30.9462 78.3488 30.7236 78.2357C30.7792 78.1792 30.5566 78.0662 30.3896 77.9531C30.167 77.84 29.9443 77.6705 29.833 77.5574C29.3321 77.4443 28.8868 77.1052 28.1633 76.766C28.1076 76.7095 27.9963 76.5399 27.7737 76.4268C28.1076 76.5964 27.6623 76.4834 27.6623 76.4834C27.1614 76.2007 26.7718 75.8615 26.3822 75.6354C26.5492 75.6354 26.5492 75.6354 26.8831 75.8615C26.9388 75.805 26.8275 75.7485 26.9388 75.7485C26.5492 75.5224 26.5492 75.5789 26.3265 75.4658C26.4935 75.4093 25.3803 74.9005 25.1577 74.6179C25.1577 74.6744 25.0464 74.6179 24.8794 74.5048C24.9351 74.5048 24.9907 74.5614 24.9351 74.4483C23.4323 73.4308 22.0965 72.4133 20.9276 71.2262C20.4824 70.887 19.3135 69.7564 19.4805 69.6434C18.8126 68.852 18.2004 68.0606 17.5325 67.2692C16.9202 66.4212 16.308 65.5733 15.6957 64.6688C15.2505 64.1036 14.7495 63.3122 14.4712 62.6903C14.5269 62.8034 14.3043 62.5208 14.2486 62.3512C14.1373 62.012 14.2486 62.1251 14.3599 62.3512C14.5269 62.5773 14.7495 62.9165 14.9165 63.1991C14.6382 62.8034 15.0278 63.1426 15.1391 63.1426C15.4174 63.5948 15.6957 63.9905 15.974 64.3862C16.1967 64.7819 16.5306 65.1211 16.8089 65.4603C16.9202 65.6864 16.9202 65.7429 17.0872 65.969C17.3655 66.2517 17.5325 66.7039 17.8664 67.0431C18.0334 67.2692 18.256 67.3257 18.423 67.5518C18.6456 67.7779 18.757 68.0606 18.9239 68.2867C19.0353 68.3997 19.2579 68.5693 19.3135 68.6824C19.3135 68.6824 19.2579 68.6824 19.2022 68.6259C19.3692 68.852 19.4805 68.9085 19.7032 69.0781C19.7588 69.1346 19.7032 69.1911 19.7032 69.1911C19.9258 69.4738 20.3154 69.6999 20.538 69.926C20.705 70.1521 20.2597 69.7564 20.538 70.0956C20.5937 70.0391 20.872 70.3783 20.9833 70.4348C21.0946 70.7174 21.7625 71.1697 21.5956 71.1697C22.0965 71.5654 22.987 72.2437 23.4323 72.6394C23.3766 72.5829 23.3766 72.5263 23.3766 72.5263C23.9332 72.9786 24.1002 73.0916 24.4341 73.2612C24.4341 73.2612 24.3785 73.2612 24.3228 73.2612C25.2134 73.883 25.9369 74.3918 26.4935 74.731C26.6048 74.731 26.6605 74.731 26.7718 74.7875C26.9388 74.9571 26.9944 74.9571 27.1614 75.0136C27.3284 75.1267 27.2171 75.1832 27.4397 75.2963C27.2171 75.0701 27.7737 75.4093 27.9406 75.5224C27.9406 75.5789 28.1633 75.692 28.0519 75.692C28.0519 75.7485 27.8293 75.5789 27.7737 75.6354C28.2746 75.9746 28.3302 75.8615 28.4416 75.805C28.2746 75.692 27.9406 75.4658 27.718 75.3528C27.4954 75.3528 26.7161 74.7875 26.5492 74.6744C26.6605 74.731 26.6605 74.6744 26.7161 74.731C26.7161 74.7875 26.6605 74.7875 26.7718 74.844C27.2727 75.0136 27.7737 75.3528 28.3859 75.7485C28.2189 75.5789 28.5529 75.7485 28.6085 75.692C27.9406 75.3528 27.3284 74.9571 26.7718 74.6179C26.9944 74.7875 26.4935 74.5614 26.4379 74.5048C26.2709 74.3918 25.8813 74.0526 25.7699 73.9961C25.8813 74.0526 25.8256 74.1091 25.8256 74.1091C25.5473 73.8265 25.102 73.4873 24.6568 73.1482C25.102 73.4873 24.9351 73.3177 25.269 73.5439C24.9351 73.2612 24.7681 73.1482 24.4898 73.0351L24.5455 72.9786C24.3785 72.8655 24.1558 72.7525 23.9332 72.5829C23.7106 72.4133 23.5436 72.2437 23.321 72.0176C22.8757 71.6219 22.4304 71.2262 21.9852 70.887C21.9852 70.8305 22.0408 70.8305 21.9295 70.774C21.2059 70.1521 20.2597 69.0216 19.8701 68.7389C19.9258 68.6824 20.2597 68.965 20.3711 69.1346C20.4267 68.965 19.9815 68.6824 19.8145 68.5128C19.8145 68.5128 19.8145 68.4563 19.8701 68.4563C19.5918 68.1736 19.4249 68.1171 19.2022 67.8345C18.8683 67.4388 18.8683 67.2692 18.423 66.8169C18.423 66.93 18.3117 66.8169 18.2004 66.6474C18.0891 66.4778 17.9221 66.1951 17.8108 66.1386C18.3673 66.9865 17.0872 65.2907 17.1985 65.1776C17.3655 65.4603 17.4212 65.4603 17.5881 65.5733C17.3098 65.1776 17.4212 65.3472 17.4768 65.1776C17.1985 64.8384 17.2542 64.7819 17.0872 64.5558C17.0315 64.6123 17.3098 64.9515 17.3098 65.0646C17.2542 64.9515 17.1985 64.895 17.1429 64.8384C17.0315 64.6688 17.0315 64.4427 16.8646 64.3297C16.9202 64.3297 16.9202 64.2731 16.8646 64.2166C17.3098 64.7819 17.6438 65.2341 17.9221 65.6298C18.2004 66.0255 18.4787 66.4212 18.9239 66.9865C19.2022 67.2692 19.4805 67.6083 19.7588 67.9475C19.8701 68.1171 20.0371 68.2867 20.1484 68.4563C20.3154 68.6259 20.4824 68.7389 20.6494 68.9085C20.6494 68.965 20.872 69.1346 20.8163 69.1346C21.2616 69.5303 21.6512 69.9825 21.9852 70.3783C22.3748 70.774 22.82 71.1131 23.2096 71.3958C23.0427 71.2262 22.7087 71.0001 22.7644 70.9435C22.987 71.1131 23.9889 71.9045 23.7106 71.848C23.8776 71.9611 24.0445 72.1306 24.2672 72.3002C24.3228 72.3002 24.2672 72.2437 24.1558 72.1872C24.0445 72.1306 23.9332 72.0176 23.9332 72.0176C24.2672 72.3002 25.0464 72.7525 25.2134 73.0351C25.5473 73.2612 25.8813 73.4873 26.1596 73.7134C26.4379 73.9396 26.7718 74.0526 27.0501 74.2222C27.6067 74.5614 28.1076 74.9005 28.5529 75.1832C28.6642 75.1267 28.7198 75.2963 28.8868 75.3528C29.1095 75.4093 28.8312 75.2397 28.9981 75.2963C29.0538 75.3528 29.1095 75.3528 29.1651 75.3528C29.4991 75.4658 29.4434 75.5224 29.6104 75.6354C29.7217 75.6354 30.1113 75.8615 30.4453 75.9746C30.4453 76.1442 31.0575 76.3703 31.4471 76.4834C32.1707 76.766 32.9499 77.1052 33.7291 77.3878C34.5084 77.6139 35.2876 77.84 35.8442 78.0096C34.9536 77.6705 34.6197 77.6705 33.8961 77.3313C33.3395 77.2748 32.7829 76.9921 32.2263 76.766C31.9481 76.6529 31.6141 76.5399 31.3358 76.4268C31.1688 76.3703 31.0575 76.3138 30.8905 76.2572C30.7792 76.2007 30.6122 76.1442 30.5009 76.0877C30.5566 76.0311 30.3896 75.9746 30.3896 75.9181C30.5009 75.9181 30.7236 76.0311 30.8349 76.0311C30.5566 75.8615 29.6104 75.5224 29.1095 75.1832C29.0538 75.2397 28.7755 75.0701 28.6085 74.9571C28.2746 74.9571 27.1058 74.2222 26.6605 73.9396C26.7161 73.9396 27.384 74.3353 27.1614 74.1657C26.9388 74.0526 26.6605 73.883 26.7161 73.8265C26.8831 73.883 27.1614 74.1091 27.2171 74.0526C26.9944 73.883 26.4378 73.6004 26.6605 73.6004C26.3265 73.3743 26.7161 73.7134 26.3822 73.5439C26.3822 73.5439 26.3265 73.4873 26.2709 73.4308C26.2152 73.2612 26.4378 73.4308 26.5492 73.4308C26.2152 73.1482 26.1596 73.2047 26.1596 73.2612C25.9369 73.0351 26.3822 73.3177 26.2152 73.1482C25.9369 72.8655 25.603 72.6394 25.436 72.5263C25.4916 72.5829 25.5473 72.6394 25.5473 72.6394C25.436 72.5263 25.2134 72.4698 25.1577 72.3568C25.269 72.4133 25.3803 72.5263 25.3803 72.4698C24.9907 72.1306 24.2672 71.7349 24.1558 71.4523C23.9889 71.3392 24.2672 71.6219 24.0445 71.4523C23.6549 71.1131 23.7106 71.1131 23.4879 70.8305C23.4323 70.8305 23.4879 71.0001 23.3766 70.887C23.154 70.6609 22.7087 70.3783 22.82 70.3217C22.8757 70.3783 23.3766 70.774 23.2096 70.6044C22.82 70.3217 22.5417 70.0391 22.3191 69.9825C22.0965 69.6999 22.4304 69.926 22.2078 69.6999C22.0965 69.6434 22.1521 69.7564 22.0408 69.6434C21.9852 69.5303 21.3729 68.7954 21.6512 69.1346C21.3729 68.852 21.3173 68.7954 20.9833 68.3997C20.9277 68.3997 20.9276 68.4563 20.872 68.3997C20.5937 68.1171 20.3711 67.8345 20.1484 67.5518C19.9258 67.2692 19.7032 66.9865 19.4805 66.7604C19.2579 66.4778 19.0352 66.2517 18.8126 65.969C18.59 65.6864 18.423 65.4037 18.256 65.1211C18.2004 65.1211 18.3117 65.2907 18.2004 65.1776C17.9221 64.7254 17.6994 64.3862 17.4212 64.1601C17.4212 64.1601 17.4768 64.1601 17.5325 64.2166C17.2542 63.934 17.0872 63.4817 16.9202 63.1991C17.1429 63.3687 17.3098 63.8209 17.4768 63.8209C17.1429 63.3122 16.8646 63.1426 16.475 62.5208C16.3636 62.4642 16.5306 62.7469 16.4193 62.5773C16.308 62.2946 16.2523 62.2381 16.0853 62.1251C16.141 62.0685 16.0297 61.8424 15.9184 61.6728C15.5288 61.051 15.3061 60.3727 14.9165 59.8074C14.5826 59.129 14.3043 58.2811 13.9147 57.4897C13.525 56.6983 13.3024 55.9069 13.0798 55.3416C13.0798 55.2286 12.9128 54.8329 13.0241 54.8329C12.8015 54.3806 12.8015 54.0415 12.6345 53.7023C12.6345 53.8153 12.6902 53.9284 12.6345 53.8719C12.5788 53.6457 12.5788 53.6458 12.4675 53.25C12.5232 53.25 12.5232 53.25 12.4675 53.0239C12.2449 52.7978 12.1892 52.0064 12.1336 51.5542C12.0779 51.5542 12.1336 51.6672 12.1336 51.7803C12.0223 51.4411 11.9109 50.7628 12.0223 50.6497C12.0779 50.8758 11.9666 50.9889 12.0779 51.102C12.0779 50.9889 12.1336 50.9889 12.1336 50.8758C11.8553 49.9149 11.577 48.5582 11.577 47.8798C11.577 47.6537 11.4657 47.5406 11.4657 47.4276C11.4657 47.1449 11.5213 46.9188 11.41 46.4101C11.41 46.5231 11.41 46.297 11.3544 46.0144C11.3544 45.9013 11.2987 44.9403 11.3544 44.7142C11.41 44.6577 11.41 45.4491 11.41 45.1664C11.41 44.8273 11.3544 44.7142 11.41 44.4316C11.2987 44.4881 11.2987 43.9793 11.3544 43.8098C11.41 44.0924 11.41 44.4881 11.4657 44.6012C11.41 44.0359 11.2987 42.9618 11.5213 43.0184V42.8488C11.577 43.2445 11.577 43.0749 11.6327 43.4141C11.5213 42.8488 11.6327 42.2835 11.6883 41.7747C11.744 41.266 11.744 40.7572 11.6883 40.2484C11.744 40.2484 11.744 40.3615 11.744 40.3615C11.7996 40.0789 11.6883 40.0789 11.7996 39.7397C11.8553 39.7397 11.8553 39.6266 11.9109 39.6832C11.9109 39.457 11.9666 39.1744 11.9666 39.0613C11.9109 39.457 11.8553 39.6266 11.744 39.6832C11.8553 39.1179 11.7996 38.7787 11.9666 38.2699C11.9109 38.6091 11.9666 38.5526 11.9109 38.8918C11.9666 38.8352 12.0779 38.8918 12.0779 38.5526C12.0223 38.5526 12.0223 38.5526 12.0223 38.4395C12.0779 38.4961 12.1336 38.2134 12.2449 37.8742C12.3562 37.5351 12.4675 37.1394 12.5232 36.9132C12.4675 36.8002 12.4119 37.1394 12.3562 37.0828C12.4119 36.9698 12.4675 36.8002 12.5232 36.5741C12.5232 36.7437 12.5232 36.6871 12.6345 36.6871C12.6902 36.4045 12.5788 36.5741 12.6345 36.348C12.6902 36.348 12.8015 35.8957 12.8571 35.8392C12.8571 35.4435 12.9685 35.3304 13.0241 35.387C13.0798 35.0478 13.1354 34.9347 13.1354 34.6521C13.2468 34.539 13.1354 34.6521 13.1911 34.6521C13.3024 34.2564 13.2467 34.3129 13.4137 34.0303C13.4137 33.9172 13.4137 33.8042 13.4694 33.6911C13.5807 33.5781 13.5807 33.3519 13.5807 33.6346C13.9147 32.7301 13.859 32.3344 14.0816 31.8822C13.9703 31.7691 14.1373 31.43 14.3599 31.0908C14.3599 30.9777 14.1929 31.2604 14.3043 31.0343C14.4712 30.8081 14.5269 30.6386 14.6382 30.2994C14.7495 30.2429 14.6382 30.469 14.6382 30.5255C14.6939 30.2994 14.8609 30.0733 14.8609 30.0167C14.8052 30.1298 14.7495 30.1863 14.6939 30.2429C14.8052 30.0733 14.7495 29.9602 14.9165 29.7341H14.9722C15.1948 28.9992 15.8071 28.0948 15.8627 27.7556C15.974 27.473 16.0297 27.586 16.0853 27.473C16.0853 27.473 16.0297 27.4729 15.974 27.5295C16.0297 27.3034 16.7532 26.4554 16.3636 26.9077C16.5863 26.512 16.7533 26.4554 16.8089 26.2293C16.6976 26.3989 16.6419 26.3989 16.7532 26.1728C16.6976 26.2858 16.7532 26.2859 16.9202 26.0597C16.9202 25.9467 17.0315 25.7771 17.0872 25.664C16.9759 25.8901 17.3655 25.3249 17.4212 25.2118C17.3655 25.2683 17.3098 25.3814 17.3098 25.3814C17.4212 25.2118 17.6438 24.8161 17.7551 24.703C17.7551 24.7596 17.5325 24.9857 17.5881 25.0422C17.8108 24.8161 17.8108 24.703 17.9777 24.4204C18.1447 24.3639 18.423 23.629 18.6456 23.629C18.1447 24.1378 18.0891 24.703 17.6994 24.9857C17.8108 25.0422 17.5325 25.2683 17.3655 25.6075C17.4768 25.551 17.3098 25.7771 17.3655 25.7771C17.5881 25.4379 17.4768 25.551 17.5325 25.4379C17.5881 25.3814 17.6994 25.1553 17.7551 25.2683C17.6994 25.3814 17.5881 25.4944 17.6438 25.4944C17.8108 25.1553 17.9777 25.0422 18.0891 24.9857C18.3117 24.59 18.5343 24.3074 19.1466 23.5159C19.2022 23.3464 19.0353 23.5725 19.2022 23.3464C19.5918 22.8941 19.9815 22.4984 20.2597 22.0462C20.5937 21.6505 20.9277 21.2548 21.2059 20.9156C21.2616 20.746 20.9833 20.9722 21.3173 20.633C21.4842 20.5199 21.4842 20.5765 21.4842 20.633C21.7625 20.2938 21.9852 20.0677 22.2635 19.8416C22.5417 19.6155 22.82 19.3893 23.154 19.0502C23.321 18.6545 24.3785 17.9761 24.7124 17.5239C24.3785 17.8065 23.9889 18.1457 23.7662 18.2588C23.9889 17.9761 24.7681 17.2978 24.7681 17.4674C25.102 17.0717 25.5473 16.9586 25.603 16.789C25.77 16.8456 26.6048 16.2237 27.0501 15.8846C26.9944 15.9411 27.1614 15.828 27.384 15.715C27.885 15.3758 28.4416 15.0366 28.9981 14.6975C29.5547 14.3583 30.167 14.0756 30.6122 13.7365C30.6122 13.7365 30.6122 13.793 30.7792 13.7365C30.7792 13.6799 30.7236 13.6234 30.9462 13.5104C31.0019 13.5104 30.7236 13.6799 31.0575 13.5104C31.1132 13.4538 31.2802 13.3408 31.4471 13.2842C31.6141 13.1712 31.3358 13.2842 31.5028 13.1712C31.6698 13.1147 31.7811 13.0581 31.8367 13.0581C31.8367 13.1147 31.6141 13.1712 31.7254 13.1712C32.0037 13.0016 32.115 13.0016 32.449 12.7755C32.449 12.7189 32.1707 12.8885 32.0594 12.832C33.7291 11.758 36.0668 11.1361 38.0705 10.5709C38.1818 10.6274 37.5139 10.7404 37.7922 10.6839C38.6271 10.4578 38.8497 10.3447 39.5176 10.2882C39.8516 10.2317 39.8516 10.1186 40.0186 10.0621C40.3525 10.0621 41.2987 9.77946 41.6883 9.83599C41.744 9.72293 42.1336 9.77946 42.3006 9.6664C42.3006 9.72293 42.4675 9.72293 42.5789 9.6664C42.6345 9.77946 43.0798 9.6664 43.2468 9.72293C43.3581 9.60987 43.6364 9.60987 43.9703 9.6664C44.193 9.60987 43.859 9.60988 44.0816 9.60988C44.3043 9.60988 44.5826 9.55334 44.8609 9.55334C45.1391 9.55334 45.3618 9.55334 45.4731 9.60988C45.6957 9.49682 46.9759 9.49682 47.2542 9.60988C47.3098 9.49682 48.3673 9.55334 48.3673 9.60988C48.7013 9.55334 49.0909 9.55335 49.4805 9.49683C49.4249 9.55335 49.3692 9.55334 49.3135 9.55334C50.1484 9.60987 50.9276 9.72293 51.7069 9.77946C52.4861 9.89252 53.3766 10.0621 54.3785 10.2882C54.3785 10.2317 54.4341 10.2317 54.5455 10.2882C55.102 10.6274 56.6048 10.6839 56.5492 10.9666C56.9944 11.1362 56.6048 10.91 56.9388 10.9666C57.4397 11.1362 57.885 11.2492 58.2189 11.4188C58.6085 11.5318 58.8868 11.6449 59.1651 11.8145C59.7217 11.9841 59.9443 12.0971 60.6122 12.3233C60.6122 12.3798 60.334 12.2667 60.334 12.2667C60.7236 12.4363 61.0575 12.5494 61.3358 12.6624C61.6141 12.7755 61.8367 12.9451 62.1707 13.1147C62.1707 13.0016 62.616 13.2842 62.7273 13.2277C62.282 13.0016 61.7254 12.7189 61.5584 12.4928C61.9481 12.6059 62.0594 12.832 62.2263 12.832C61.8367 12.5494 61.5028 12.4363 61.1688 12.2667C60.8349 12.1537 60.4453 12.0406 59.9443 11.8145C59.9443 11.758 60 11.758 60.0557 11.8145C59.7217 11.6449 59.3321 11.5318 58.9981 11.4188C58.1633 11.0796 57.2727 10.797 56.3265 10.5143C55.8813 10.4013 55.3803 10.2882 54.9351 10.1752C54.7124 10.1186 54.4898 10.0621 54.2672 10.0056C54.0445 9.94904 53.8219 9.89252 53.6549 9.83599C53.3766 9.83599 52.987 9.77946 52.5974 9.72293C52.3748 9.6664 52.1521 9.6664 51.9295 9.60988C51.7069 9.60988 51.4842 9.55334 51.2616 9.55334C51.3173 9.49681 51.5955 9.55334 51.8738 9.55334C52.1521 9.60987 52.3748 9.60988 52.4861 9.60988C52.3748 9.60988 52.1521 9.55335 51.9295 9.49683C51.7069 9.49683 51.4286 9.44029 51.2059 9.44029C50.705 9.38376 50.3154 9.32723 50.4824 9.27071C50.4824 9.32723 50.538 9.38376 50.3154 9.38376C50.0371 9.38376 50.1484 9.32723 49.9258 9.27071C49.7588 9.32723 48.2004 9.21418 47.6994 9.21418C47.7551 9.21418 47.8108 9.21417 47.8108 9.27071C47.6438 9.21417 47.0315 9.32723 46.6976 9.27071C46.9202 9.27071 47.0315 9.27071 47.0872 9.21418C46.6976 9.15765 46.7532 9.32723 46.3636 9.27071C46.308 9.21417 46.6419 9.21418 46.6419 9.21418C46.2523 9.21418 45.6957 9.21417 45.1391 9.27071C44.5826 9.27071 44.0816 9.32722 43.7477 9.38376C43.6364 9.44028 44.026 9.38376 43.9703 9.44029C43.859 9.44029 43.4694 9.49682 43.525 9.44029C43.525 9.38376 43.692 9.38376 43.692 9.38376C43.3581 9.38376 42.9685 9.44029 42.6345 9.44029C42.3006 9.49682 41.9109 9.55334 41.577 9.60988C40.8534 9.72293 40.0742 9.83599 39.2393 10.0056C38.961 9.94904 37.9035 10.2882 37.4026 10.4013C37.0686 10.4578 36.679 10.6274 36.1781 10.7405C35.9555 10.797 35.7328 10.91 35.5102 10.9666C35.2876 11.0796 35.0649 11.1361 34.8423 11.2492C33.4508 11.758 32.0037 12.2667 30.9462 12.8885C30.9462 12.8885 30.9462 12.832 30.7236 12.8885C30.7236 12.9451 30.7792 12.9451 30.6679 13.0016C30.2783 13.1712 30 13.2842 29.7774 13.2842C29.7217 13.3408 29.6104 13.4538 29.4991 13.5669C29.666 13.5104 29.8887 13.2842 30 13.3408C29.833 13.4538 29.8887 13.4538 29.6104 13.5669C29.2208 13.6234 29.4434 13.6234 28.8868 13.8495C28.9981 13.793 29.1095 13.7365 29.1095 13.6799C28.7755 13.9061 28.1633 14.1887 27.8293 14.4713C28.2746 14.2452 28.3859 14.1322 28.7199 14.0191C28.3302 14.3018 28.2189 14.3018 27.885 14.5844C27.7737 14.5844 28.1076 14.3583 27.8293 14.5279C27.4954 14.8105 26.7718 14.9801 26.3265 15.4323C26.4935 15.3193 26.7718 15.1497 26.6048 15.3193C26.4378 15.4323 26.3265 15.4323 26.2152 15.5454C25.9926 15.8846 25.3803 16.1672 25.0464 16.4499C24.8238 16.5629 24.8237 16.5629 24.7681 16.5629C24.7124 16.7325 24.0445 17.2412 23.8775 17.3543C23.8219 17.3543 24.2115 17.0717 24.2115 17.0151C23.4879 17.5804 23.321 17.8631 23.0427 18.2022C22.8757 18.3718 22.9314 18.2022 22.7644 18.3153C22.9314 18.2588 22.4304 18.7675 22.0965 19.1067C22.0408 19.0502 22.0408 19.0502 22.0965 18.9371C22.2078 18.8806 22.4304 18.6545 22.4861 18.5414C22.2635 18.711 22.6531 18.3153 22.5974 18.2588C22.7644 18.1457 22.7644 18.1457 22.7087 18.2588C23.2096 17.75 23.8775 17.2413 24.3785 16.789C24.3785 16.789 24.2672 16.9021 24.4341 16.8456C24.2672 16.9021 24.6568 16.6194 24.6011 16.6194C24.3785 16.7325 24.7124 16.3933 24.8237 16.2803C24.7681 16.3933 24.7681 16.3933 24.9351 16.2803C25.0464 16.0542 25.4917 15.8846 25.6586 15.715C25.8256 15.6019 25.5473 15.8846 25.8256 15.6584L25.7699 15.6019C26.0482 15.4323 26.8275 14.8105 27.0501 14.6975C27.2727 14.5844 26.7718 14.754 27.1614 14.5279C27.1614 14.6409 27.9963 13.9626 28.1633 14.0191C28.8312 13.5104 29.2208 13.4538 29.833 13.0016C29.8887 13.0016 30.334 12.832 30.4453 12.719C30.334 12.7755 30.0557 12.8885 30.2783 12.7755C30.8905 12.4928 31.6698 12.2102 32.3933 11.871C33.1169 11.5319 33.8961 11.3057 34.6197 11.0796C34.5084 11.1361 34.4527 11.0796 34.4527 11.0796L34.7866 10.9666C34.7866 10.9666 34.7866 11.0231 34.731 11.0796C35.0093 10.91 35.5102 10.8535 35.7328 10.797C35.4545 10.8535 35.8442 10.7405 35.8998 10.7405C35.9555 10.6839 35.8998 10.6839 36.1224 10.5709C36.0111 10.6274 35.7885 10.6839 35.7328 10.6274C36.1224 10.4578 36.5677 10.3447 37.0686 10.2317C37.2913 10.1752 37.5696 10.1186 37.7922 10.0621C38.0148 10.0056 38.2375 10.0056 38.4601 9.94904C38.7384 9.83598 38.1262 9.94904 38.4045 9.83599C38.6827 9.83599 39.0724 9.60987 39.2393 9.6664C39.1837 9.72293 38.2931 9.89252 38.7384 9.89252C39.1837 9.72294 39.4063 9.55335 40.0186 9.49683C39.9072 9.27071 41.1874 9.21418 41.577 9.04459C41.7996 9.04459 42.4119 8.98806 42.8015 8.93153C42.1336 8.98806 41.5213 9.04459 41.243 8.93153C41.3544 8.93153 41.5213 8.875 41.5213 8.875C40.9647 8.93153 41.1874 9.04459 40.6865 9.04459C40.6865 9.10112 41.243 8.98806 41.2987 9.04459C40.9091 9.10112 40.5751 9.15765 40.2412 9.21418C39.9072 9.27071 39.6289 9.32722 39.3507 9.38376C39.6289 9.32722 39.462 9.27071 39.6846 9.21418C39.7959 9.21418 40.2412 9.15764 40.2412 9.10111C40.3525 8.98805 41.41 8.76195 42.0223 8.76195C42.3006 8.59236 42.8571 8.6489 42.9685 8.6489C42.6902 8.6489 43.0241 8.53583 43.1354 8.53583C43.1354 8.64888 44.1373 8.53583 43.5807 8.4793C43.9703 8.42277 44.0816 8.47929 44.0816 8.53583C44.3599 8.47929 44.6939 8.36624 44.9165 8.30972C44.9165 8.36624 44.7495 8.36624 45.0278 8.42278C45.2505 8.36624 45.0835 8.36625 45.1948 8.36625C45.2505 8.36625 45.3061 8.36624 45.3061 8.42278C45.6401 8.25319 46.475 8.4793 46.6419 8.42278C46.5306 8.42278 46.4193 8.42278 46.475 8.36625C46.9202 8.36625 47.3655 8.36624 47.5325 8.42278C47.6994 8.30972 47.8664 8.4793 48.2004 8.4793C48.3117 8.36624 49.9258 8.42277 49.8145 8.53583C50.1484 8.53583 50.3154 8.4793 50.7607 8.59236C50.872 8.4793 50.1484 8.4793 49.9814 8.42278C50.2597 8.42278 51.039 8.53583 51.3173 8.53583C51.5399 8.64888 51.7069 8.70541 51.7069 8.76195C51.9852 8.76195 51.9852 8.70541 52.2078 8.70541C52.0965 8.70541 51.9295 8.70542 51.9295 8.6489C52.2634 8.59236 52.987 8.76194 52.9314 8.875C52.7087 8.81847 52.5974 8.93153 52.7644 8.93153C52.9314 8.875 53.4879 8.98806 53.7106 8.93153C53.321 8.81847 53.4323 8.93153 53.0427 8.875C52.9314 8.76194 53.154 8.81847 52.8757 8.70541C53.4323 8.81847 53.7106 8.875 54.1002 8.93153C54.1002 8.98806 53.8219 8.93153 53.8776 8.98806C54.2115 9.10111 54.0445 8.93153 54.2672 8.98806C54.4341 9.04459 54.7124 9.10111 54.7124 9.15765C55.4916 9.21417 56.0482 9.44028 57.1058 9.72293C57.2727 9.6664 56.5492 9.55335 56.5492 9.49683C57.1058 9.55335 57.6067 9.72294 58.1076 9.89252C58.6085 10.0621 59.1651 10.1752 59.666 10.3448C59.6104 10.3448 59.4991 10.3448 59.4991 10.3448C60.0557 10.4578 60.3896 10.7404 60.5566 10.6839C61.8367 11.2492 64.564 12.6624 65.6215 13.3973C66.2338 13.7365 67.0686 14.2452 67.4583 14.6409C67.6252 14.6975 67.9035 14.867 68.1818 15.0932C68.4045 15.3193 68.6827 15.4889 68.7941 15.5454C68.6827 15.4323 68.7941 15.4889 68.9054 15.5454C70.0742 16.5629 70.7421 16.9021 72.0223 18.1457C72.0779 18.0327 71.0761 17.3543 71.2987 17.2978C70.9648 16.9586 70.7421 16.7325 70.5195 16.5064C70.2968 16.2803 70.0742 16.0542 69.7403 15.828C69.8516 15.8846 69.9629 15.9976 69.9629 15.9976C69.9072 15.9411 69.7959 15.8846 69.7959 15.8846C70.1299 16.1672 70.3525 16.3368 70.5195 16.3933C70.0186 15.9411 69.2393 15.4323 68.7941 14.9236C69.0167 14.9801 69.9072 15.828 70.0186 15.828C69.5733 15.4323 69.1837 15.0366 68.6271 14.5844C68.9054 14.6975 68.4045 14.4148 68.5158 14.4148C68.9054 14.6409 69.0724 14.8105 69.295 14.9801C69.1837 14.9236 69.0724 14.6975 69.2393 14.8671C69.462 15.0932 69.5176 15.0932 69.7959 15.3193C69.7959 15.3758 69.462 15.1497 69.6846 15.3193C70.0186 15.4889 70.6308 15.8846 70.7421 16.1672C70.7978 16.1672 70.6865 16.0541 70.7421 16.0541C70.9091 16.2237 71.0761 16.3933 71.1874 16.4499L71.1317 16.5064C71.577 16.8456 71.8553 17.0151 72.0779 17.1847C72.3562 17.4108 73.0798 18.3153 73.3024 18.3718C72.9685 17.9761 72.4119 17.5239 72.2449 17.1847C71.744 16.7325 71.1874 16.2237 70.7421 15.7715C70.2412 15.3193 69.7403 14.9801 69.4063 14.6975C69.1837 14.5279 68.961 14.3018 68.6827 14.1322C68.4601 13.9061 68.1818 13.7365 67.9592 13.6234C67.5696 13.3408 66.9573 13.0016 66.7347 12.7755C66.9573 13.0016 67.2913 13.1146 67.5139 13.3408C67.7365 13.4538 67.4583 13.2277 67.6252 13.3408C68.6271 14.0191 69.5733 14.8671 70.6308 15.6019C71.577 16.4499 72.6345 17.2412 73.525 18.2022C75.4174 20.0112 77.1985 22.1027 78.6456 24.4769C78.7013 24.4204 78.9239 24.703 79.2022 25.0987C79.4249 25.4944 79.6475 25.9467 79.7588 26.1728C79.9814 26.3424 80.2041 26.9642 80.3154 27.0207C80.2597 26.7946 79.8145 26.1728 79.8701 26.1163C79.9258 26.1728 79.9258 25.9467 80.0371 26.1163C80.3711 26.625 80.5937 27.0773 80.7607 27.473C80.9276 27.8687 81.039 28.1513 81.2059 28.3774C80.9276 27.8121 80.872 27.2468 80.3154 26.3989C80.3711 26.512 80.538 26.3989 80.4267 26.3424C80.3711 26.512 80.1484 25.9467 79.9814 25.7771C79.8145 25.4944 79.8145 25.3814 79.8145 25.2683C80.0371 25.4944 80.4267 26.2293 80.705 26.512C80.7607 26.4554 80.6494 26.1163 80.4267 25.8336C80.2597 25.4944 80.0371 25.0422 79.8145 24.6465C79.5362 24.2508 79.2579 23.7986 78.9239 23.3464C78.3673 22.4419 77.5881 21.594 77.1429 20.9156C77.0315 20.746 77.0872 20.746 76.9202 20.5764C76.6419 20.2373 76.1967 19.785 75.8071 19.3328C75.4174 18.8806 75.0278 18.4284 74.8052 18.0327C74.3599 17.5804 73.9703 17.1847 73.525 16.7325C73.4694 16.7325 73.3024 16.6194 73.0241 16.3368C73.1911 16.3933 73.0241 16.3368 73.0798 16.2803C73.3024 16.4499 73.4694 16.676 73.6364 16.7325C73.5807 16.6194 73.2468 16.3368 73.4137 16.3933C73.9147 16.9021 74.1373 16.9586 74.5826 17.4108C74.4712 17.2413 74.4712 17.2412 74.2486 17.0151C74.0816 16.9021 73.7477 16.676 73.525 16.4499C73.2468 16.2237 72.9685 16.0541 72.8571 16.0541C72.6902 15.8846 72.6345 15.715 72.8015 15.7715C72.5232 15.4889 72.1892 15.1497 71.7996 14.8105C71.41 14.4713 71.0204 14.1887 70.7421 13.9061C70.7978 13.8495 71.0761 14.0756 71.243 14.1322C70.6865 13.6799 71.3544 14.1322 71.41 14.1322C70.9091 13.8495 70.1855 13.2277 69.5733 12.7755C67.5696 11.1361 65.1206 9.72293 62.616 8.59236C60.1113 7.46178 57.4397 6.72691 55.102 6.16162C54.3785 6.04856 53.6549 5.93551 52.9314 5.82246C52.2635 5.7094 51.5955 5.7094 51.0946 5.65287C50.8163 5.65287 50.3711 5.65287 49.9258 5.65287C49.4805 5.65287 49.0353 5.65286 48.757 5.59634C48.59 5.59634 48.1447 5.59634 47.6438 5.59634C47.1429 5.59634 46.6419 5.59634 46.4193 5.59634C47.0315 5.59634 46.3636 5.53981 46.308 5.53981C46.7533 5.53981 47.0872 5.53981 47.3655 5.53981C47.6438 5.53981 47.8108 5.53981 47.9221 5.48328C48.0334 5.48328 48.1447 5.53981 48.256 5.53981C48.2004 5.53981 48.0334 5.53981 48.0334 5.53981C48.7013 5.59634 47.8664 5.37022 48.423 5.42675C48.4787 5.5398 49.1466 5.42675 49.0353 5.59634C48.7013 5.59634 48.59 5.5398 48.5343 5.59634C49.4249 5.65286 50.3154 5.65285 50.7607 5.70939C50.5937 5.65285 50.3154 5.59634 50.0371 5.59634C49.7588 5.59634 49.4805 5.59634 49.2022 5.59634C49.0909 5.5398 49.0909 5.48328 48.9796 5.48328C48.423 5.42675 47.9221 5.42674 47.6438 5.31369C49.0353 5.31369 48.757 5.42675 49.7032 5.48328C49.6475 5.48328 49.5918 5.48328 49.7032 5.48328C50.3711 5.48328 50.6494 5.59634 51.2616 5.59634C51.4842 5.65286 52.2078 5.87897 52.2078 5.70939C51.8182 5.70939 51.3173 5.65286 51.2059 5.53981C50.7607 5.48328 50.4267 5.48328 50.0928 5.42675C49.7588 5.42675 49.5362 5.42675 49.2579 5.37022C49.7032 5.37022 50.0371 5.37022 50.2041 5.31369C49.7588 5.25716 49.8701 5.37022 49.3692 5.31369C49.3692 5.25716 49.5362 5.25717 49.5918 5.25717C49.0909 5.25717 48.2004 5.25716 48.0334 5.1441C48.8683 5.1441 49.6475 5.1441 50.3154 5.20064C50.3154 5.25716 50.3154 5.3137 50.4267 5.25717V5.20064C49.4805 5.03105 49.0909 5.20064 48.4787 5.03105C48.9239 5.08758 49.3692 5.03104 49.7032 5.08758C49.8701 4.97452 50.9276 5.03104 51.4842 5.1441C50.0371 4.80493 48.9239 5.03105 47.6438 5.03105C47.5325 4.97452 48.3674 4.97452 47.9221 4.91799C46.475 5.03104 44.5269 4.86147 43.2468 5.03105C43.859 4.97452 44.4156 4.86147 44.9722 4.80494C45.5288 4.80494 46.0297 4.80494 46.5306 4.80494C46.8646 4.80494 46.2523 4.74841 46.6419 4.74841C46.8646 4.74841 47.1429 4.74841 47.4212 4.74841C47.6994 4.74841 48.0334 4.74841 48.423 4.80494C49.0909 4.86147 49.8701 4.80492 50.538 4.86146C50.4824 4.86146 50.4267 4.86146 50.538 4.91799C51.1503 4.86146 52.3748 5.08757 53.0427 5.1441C52.987 5.1441 52.82 5.08758 52.82 5.08758C53.5993 5.25716 54.4898 5.42675 55.3803 5.59634C56.2709 5.76592 57.1058 5.99204 57.885 6.1051V6.21815C58.6642 6.38774 59.6104 6.67038 60.6122 7.00955C61.5584 7.34872 62.5603 7.80096 63.3952 8.19666C63.3952 8.14013 63.5065 8.19665 63.6735 8.25318C64.6753 8.76194 65.7885 9.27071 66.7904 9.89252C67.2913 10.2317 67.8479 10.4578 68.3488 10.797C68.8497 11.1361 69.3506 11.4753 69.8516 11.8145C70.3525 12.1537 70.8534 12.5494 71.2987 12.8885C71.744 13.2842 72.2449 13.6234 72.6902 14.0191C73.5807 14.8105 74.4156 15.5454 75.1391 16.3368C75.0278 16.2237 74.8609 16.0541 74.9165 16.0541C76.2523 17.5239 77.4212 18.8241 78.5343 20.2373C78.6456 20.4634 78.6456 20.5764 78.757 20.746C78.8126 20.6895 78.7013 20.5765 78.757 20.4634C78.9796 20.8026 79.2579 21.2548 79.5362 21.6505C79.8145 22.0462 80.0928 22.4984 80.3711 22.8376L80.3154 22.8941C80.7607 23.4029 81.2616 24.0812 81.4842 24.6465C81.4286 24.5335 81.4286 24.5335 81.4842 24.5335C81.7625 24.9857 81.9852 25.3814 81.9852 25.4944C82.1521 25.7206 82.3191 26.0597 82.3748 26.2859C82.5974 26.625 82.4304 26.2293 82.5974 26.3989C82.82 26.8511 83.0427 27.3599 83.2653 27.8121C83.4879 28.3209 83.7662 28.8296 83.9889 29.3384C84.4341 30.4124 84.9351 31.543 85.269 32.7301C85.7143 35.2174 86.2152 37.6481 86.6605 39.8527C86.1596 36.2349 85.102 32.6171 83.5436 29.2253C83.5993 29.2253 83.2096 28.6035 83.3766 28.7166C82.8757 27.8121 82.4304 26.6815 81.8182 25.664C81.5399 25.1553 81.2616 24.6465 80.9833 24.1378C80.6494 23.6855 80.3711 23.2333 80.0928 22.8376C80.0928 22.7811 80.1484 22.8376 80.0928 22.7245C80.0928 22.8376 79.9258 22.6115 79.7588 22.4419C79.7588 22.3288 79.5918 22.1027 79.4249 21.8766C79.2579 21.6505 79.0909 21.3678 78.9796 21.1417C78.8126 21.0852 78.0891 19.9546 77.9777 19.785C77.8664 19.7285 77.8664 19.785 77.6994 19.6155C77.6994 19.5024 77.3655 19.2198 77.2542 18.9936C76.9759 18.8241 76.6419 18.3718 76.308 17.9761C76.308 17.9196 76.1967 17.75 76.0297 17.5804C75.8627 17.4108 75.6401 17.1847 75.4731 17.0151C75.3061 16.8456 75.5288 17.1282 75.3618 17.0151C73.525 14.9801 71.5213 13.3408 69.128 11.5319C69.1837 11.5884 69.295 11.6449 69.295 11.6449C69.0167 11.4188 69.0724 11.5884 68.8497 11.3623C68.9054 11.3057 68.7384 11.2492 68.9054 11.3057C68.4601 11.0796 67.9592 10.6274 67.5139 10.3448C67.4026 10.3448 67.6252 10.4578 67.6809 10.5143C67.4583 10.4013 67.4583 10.4578 67.2356 10.2882C67.2356 10.2317 67.5139 10.4013 67.4583 10.3448C67.0686 10.0621 67.1243 10.2317 66.679 9.94904C66.7904 9.89251 66.2338 9.6664 65.9555 9.44029C65.7328 9.38376 65.6772 9.38376 65.7328 9.44029C65.5102 9.27071 65.2876 9.15765 65.1763 9.15765V9.10111C65.0093 9.04458 64.1744 8.70541 64.1187 8.59236C64.5083 8.81847 64.9536 8.93153 65.4545 9.27071C65.5102 9.10112 63.5622 8.36624 63.3395 8.0836C63.8961 8.36624 64.3414 8.59235 64.8423 8.81847C65.0649 8.93153 65.3432 9.04459 65.5659 9.15765L66.2338 9.55334C66.679 9.83598 67.1243 10.1186 67.6252 10.4013C68.0705 10.6839 68.5714 11.0231 69.0724 11.3623C69.128 11.3623 68.961 11.2492 69.128 11.3057C69.295 11.4188 69.6846 11.6449 69.6289 11.7014C69.5176 11.7014 69.295 11.4188 69.2393 11.4753C69.462 11.6449 69.7959 11.871 70.0742 12.0406C70.3525 12.2667 70.6308 12.4363 70.7421 12.5494C70.5751 12.4363 70.2412 12.0971 70.5751 12.2667C72.0223 13.5104 73.8033 14.9236 74.9722 16.1672C75.4174 16.6194 75.807 17.0717 76.2523 17.5239C76.6419 17.9761 77.0315 18.4849 77.4768 18.9371C77.6994 19.1632 77.8664 19.4459 78.0891 19.672C78.256 19.9546 78.4787 20.1807 78.6456 20.4634C79.0353 20.9722 79.4249 21.5374 79.8145 22.0462H79.7588C80.3711 22.8376 80.7607 23.629 81.2616 24.2508C81.3729 24.5335 81.5399 24.7596 81.4842 24.8726C81.5955 25.0422 81.7625 25.4379 81.8182 25.4379C81.5955 25.0422 81.4842 24.8161 81.5399 24.703C81.8182 25.2118 82.6531 26.5685 82.8757 27.2468C83.154 27.6991 83.4323 28.2644 83.7106 28.8296C83.9889 29.3949 84.2115 29.9602 84.3785 30.3559C84.2672 30.0733 84.1002 29.5645 83.8776 29.1688C83.7106 28.7731 83.5436 28.4339 83.5993 28.3209C83.8776 28.9427 84.2115 29.3949 84.3785 30.0733C84.4341 30.0167 84.5455 30.2429 84.6568 30.6386C84.8237 30.8647 85.0464 31.3169 85.2134 31.8822C85.3803 32.4475 85.603 33.0693 85.7699 33.465C85.7699 33.7476 85.8813 34.0868 85.9926 34.426C86.0482 34.4825 85.9369 34.0303 86.0482 34.3129C85.9926 34.1433 85.8256 33.6911 85.8813 33.6911C86.2709 34.8217 86.4935 35.7827 86.7718 36.7437C86.9944 37.7047 87.1614 38.6091 87.384 39.6266C87.6067 39.5701 87.551 40.8137 87.6623 41.1529C87.6623 40.4746 87.7737 41.8878 87.7737 42.2835C87.8293 43.301 87.9963 44.375 87.9963 44.8838C88.1076 44.375 87.9406 43.7532 87.9406 43.1314C87.9963 43.1879 88.0519 43.2445 88.0519 43.4706C87.9963 43.5836 88.1076 44.2055 88.1633 44.1489C88.1076 43.5271 88.1076 43.2445 88.1076 42.7357C88.2189 43.3575 88.3859 44.2055 88.2746 44.9403C88.3859 45.3926 88.3859 46.2405 88.3302 47.1449C88.4416 46.9188 88.3859 47.9929 88.3302 48.6712C88.3859 49.2365 88.4972 48.6712 88.4416 49.5757C88.4972 49.293 88.4416 49.0669 88.4972 48.8973C88.5529 49.1235 88.6642 49.3496 88.6085 50.141C88.6085 50.141 88.6085 49.9714 88.5529 49.9149C88.4972 50.4801 88.4972 51.1585 88.4972 51.2715C88.3859 51.7803 88.4416 51.6672 88.4416 52.063C88.4416 52.5717 88.2189 53.4762 88.3302 53.8153C88.4416 53.4196 88.4416 52.8544 88.6085 52.6848C88.6085 53.137 88.4416 53.4196 88.4972 53.4762C88.6085 53.137 88.7199 52.0629 88.8312 52.0064L88.6642 52.6848C88.7199 52.6848 88.8312 52.1195 88.8312 52.4586C88.8312 52.2891 88.9425 51.8934 88.8868 51.8934C88.8312 52.1195 88.8312 52.2325 88.7755 52.2325C88.8312 51.9499 88.8868 51.3281 88.9981 50.8758C88.9981 51.2715 88.9981 51.9499 88.8868 52.6282C88.7755 53.3066 88.6642 53.9849 88.5529 54.4937C88.5529 54.6067 88.6085 54.6633 88.6085 54.8329C88.6642 54.3241 88.7755 53.8153 88.6085 54.3806C88.6642 53.9849 88.7755 53.8719 88.8312 53.7023C88.7755 54.5502 88.6642 54.3241 88.5529 55.059C88.6642 54.6633 88.7199 54.5502 88.7199 54.8894ZM61.6141 13.0581C61.5028 13.1147 61.3358 12.9451 61.2245 12.832C61.2245 12.832 61.5584 13.0016 61.6141 13.0581ZM47.6438 9.77946C47.5325 9.77946 47.1429 9.77946 46.8089 9.83599C46.8646 9.83599 46.9202 9.77946 46.9202 9.77946C47.1985 9.77946 47.3655 9.77946 47.4768 9.77946C47.5325 9.72293 47.5325 9.77946 47.6438 9.77946ZM17.6994 25.2118C17.6438 25.2118 17.5881 25.2118 17.5325 25.3249C17.4768 25.2683 17.6438 25.0987 17.7551 24.9292C17.6994 25.0987 17.8108 24.8726 17.7551 25.0422C17.8664 24.9292 18.0334 24.59 18.0334 24.703C17.9777 24.8161 17.8108 25.0422 17.6994 25.2118ZM24.9351 75.4093C24.9907 75.3528 25.0464 75.5224 25.269 75.6354L25.2134 75.692C25.0464 75.5789 24.9907 75.5224 24.9351 75.4093C24.9351 75.4658 24.9907 75.4658 24.9351 75.4093ZM31.1132 87.4499C31.6698 87.6195 32.3933 87.7326 32.5046 87.8456C32.1707 87.7891 31.1688 87.563 31.1132 87.4499ZM34.2857 1.86545C33.7291 2.03503 33.2282 2.20461 32.5046 2.3742C33.0612 2.14808 33.6735 2.03503 34.2857 1.86545ZM88.8312 53.6457C88.7755 53.6457 88.8312 53.3066 88.7755 53.4196C88.8312 53.0805 88.8868 53.0239 88.9425 52.6282C88.9425 52.6282 88.9425 52.8544 88.8868 52.9674C88.8868 52.9674 88.9425 52.9674 88.9425 52.8544C88.9981 52.9109 88.8868 53.5327 88.8312 53.6457ZM88.7199 48.7843C88.6642 48.6712 88.7199 48.3321 88.7199 47.9929C88.7755 48.0494 88.7755 48.3886 88.7755 48.6712C88.7199 48.6147 88.7199 48.6712 88.7199 48.7843ZM88.0519 43.0184C87.9963 42.9053 87.885 42.0008 87.9963 42.0008C87.9963 42.5096 87.9963 42.5096 88.0519 43.0184ZM87.2727 29.8472C87.384 30.2994 86.8275 28.9992 86.9388 29.1123C86.9944 29.2819 87.1614 29.7341 87.2727 29.8472ZM86.1596 27.0772C86.1596 27.1903 85.8813 26.5685 85.9926 26.9077C85.9369 26.8511 85.436 25.9467 85.5473 25.9467C85.8256 26.512 85.9926 26.7381 86.1596 27.0772ZM67.9592 15.4889C67.9592 15.4889 67.7922 15.4323 67.6809 15.3193C67.5139 15.2062 67.4026 15.0932 67.3469 15.0366C67.5139 15.0366 67.8479 15.3758 67.9592 15.4889ZM66.4007 9.72293C66.4007 9.83598 66.0111 9.49682 65.8442 9.44029C65.8442 9.38376 66.2894 9.6664 66.4007 9.72293ZM54.8794 5.37022C54.8237 5.25716 55.436 5.48328 55.4917 5.42675C55.436 5.37022 55.2134 5.37022 54.9907 5.31369C54.4341 5.31369 53.6549 5.20064 52.8757 5.03105C52.0408 4.86147 51.1503 4.80493 50.4267 4.69188C49.8145 4.63535 49.2022 4.63535 48.6456 4.63535C48.0891 4.63535 47.5881 4.63535 47.1429 4.57882C47.0872 4.52229 46.9202 4.57882 46.9202 4.52229C46.5863 4.57882 46.141 4.52229 45.6401 4.52229C45.4731 4.46576 45.7514 4.46576 45.1948 4.46576C45.3618 4.40923 45.1948 4.40923 45.1948 4.35271C45.4731 4.35271 45.4174 4.40924 45.5288 4.40924C45.6957 4.35271 45.8627 4.3527 45.9184 4.29617C46.141 4.29617 46.141 4.35271 46.3636 4.35271C46.5863 4.35271 46.5863 4.29617 46.8089 4.29617C46.5863 4.23964 45.807 4.29617 45.5288 4.18312C46.0297 4.18312 46.1967 4.23965 46.6976 4.18312C46.4193 4.12659 46.0297 4.12659 45.7514 4.12659C44.8609 4.23965 44.9722 4.40923 43.9703 4.46576C44.026 4.52229 44.3599 4.46576 44.5826 4.52229C43.8033 4.63535 43.0241 4.63535 42.5232 4.74841C42.3562 4.74841 42.1336 4.74841 42.0779 4.69188C41.7996 4.69188 41.1317 4.91798 41.0204 4.86146C40.7978 4.91798 40.9647 4.91799 40.7421 4.97453C40.4082 4.97453 39.8516 5.03104 39.3507 5.1441C38.8497 5.20063 38.2931 5.37022 37.9592 5.42675C37.4583 5.65286 36.2338 5.82245 35.8442 5.93551C35.3432 6.27468 33.4508 6.67038 32.7273 6.8965C31.9481 7.17914 32.0594 7.17914 31.3915 7.46178C31.6141 7.40525 32.0594 7.2922 32.115 7.23567C32.115 7.34872 31.6698 7.46178 30.9462 7.74443C30.9462 7.74443 31.0575 7.6879 31.1132 7.63137C30.6122 7.80096 29.8887 8.19666 29.1651 8.53583C28.4416 8.875 27.718 9.27071 27.1058 9.44029C27.4954 9.27071 27.8293 9.04459 27.9963 8.93153C27.7737 9.10112 26.6605 9.55334 26.6048 9.72293C26.3265 9.89252 26.2152 9.89251 26.1039 9.94904C26.1039 9.89251 26.1039 9.83599 26.4379 9.6664C26.4379 9.60987 26.0482 9.89252 26.1039 9.77946C26.7161 9.44029 27.1058 9.32723 27.718 8.98806C27.4954 9.04459 27.1058 9.2707 26.4379 9.55334C27.1058 9.15764 27.6623 8.81847 28.2189 8.53583C28.7755 8.19666 29.4434 7.97054 30.2226 7.6879C30.167 7.57484 29.6104 7.85748 29.4991 7.85748C30 7.63136 30.4453 7.46178 30.8349 7.23567C31.2245 7.06609 31.5584 6.89649 31.9481 6.78344V6.83997C32.0037 6.83997 31.8367 6.95302 31.6698 7.00955C31.8924 7.00955 32.1707 6.78344 32.0594 6.78344C32.3933 6.67038 32.5603 6.55732 32.9499 6.44427C32.9499 6.50079 32.7273 6.55733 32.449 6.67039C32.7829 6.67039 33.4508 6.27469 33.9518 6.1051C34.2857 5.99204 34.0631 6.16163 34.2857 6.1051C34.4527 6.04857 35.1206 5.82246 35.7885 5.65287C36.4564 5.42675 37.1243 5.37022 37.4026 5.31369C37.6809 5.25716 37.7366 5.20063 37.5696 5.1441C37.9592 5.03104 38.1818 5.03104 38.1818 5.08758C38.3488 4.97452 38.6271 4.91798 38.9054 4.86146C39.1837 4.80492 39.462 4.80494 39.7403 4.80494C40.1299 4.74841 39.5176 4.74841 39.8516 4.74841C40.1299 4.69187 39.9629 4.74841 39.9629 4.74841C40.3525 4.69187 40.2412 4.63535 40.7978 4.57882C40.7421 4.63535 40.6865 4.69188 40.7421 4.80494C40.9647 4.74841 40.7421 4.69188 40.7978 4.63535C41.243 4.52229 41.1874 4.63535 41.5213 4.57882C41.3544 4.52229 42.0223 4.29618 42.3562 4.40924C41.9666 4.46577 41.9109 4.40924 41.6883 4.40924C41.6883 4.46577 41.9109 4.46576 41.6883 4.52229C42.1892 4.40923 42.2449 4.46576 42.7458 4.46576C42.8015 4.40923 43.0241 4.3527 42.6902 4.29617C43.0241 4.29617 43.4137 4.29617 43.7477 4.29617C43.7477 4.3527 43.4137 4.35271 43.1354 4.40924C42.9685 4.40924 43.3024 4.46576 43.3581 4.52229C43.5807 4.46576 43.2468 4.52229 43.4694 4.46576C43.692 4.46576 43.859 4.46577 44.1929 4.40924C44.3599 4.46577 44.1929 4.46576 44.1929 4.52229C44.8609 4.40923 44.5269 4.29617 45.2505 4.29617C45.1948 4.29617 45.0835 4.23965 44.9165 4.23965C45.4731 4.12659 46.1967 4.12659 46.9202 4.18312C47.5881 4.23965 48.256 4.29617 48.757 4.23965C49.0909 4.29617 48.8683 4.29617 49.3135 4.29617C49.5362 4.40923 49.0909 4.40923 48.7013 4.46576C48.6456 4.40923 48.757 4.40924 48.8126 4.40924C48.3117 4.35271 47.4768 4.23965 46.8089 4.35271C47.7551 4.35271 48.3673 4.52229 49.1466 4.52229C49.0353 4.57882 49.0909 4.57882 49.2579 4.63535C49.5918 4.63535 48.9796 4.52229 49.3692 4.46576C49.5362 4.52229 50.2597 4.46577 50.7607 4.63535C50.9276 4.63535 50.7607 4.57882 50.6494 4.57882C50.8163 4.52229 51.039 4.69188 51.3729 4.69188C51.3173 4.63535 51.2059 4.63535 51.039 4.63535C51.0946 4.57882 51.2616 4.69188 51.4842 4.69188C51.4842 4.69188 51.3729 4.63535 51.2616 4.63535C51.3173 4.57882 51.8182 4.69188 51.8738 4.63535C52.0408 4.69188 52.4304 4.80493 52.5974 4.74841C53.2653 4.91799 53.9889 5.08758 54.7124 5.20064C55.436 5.31369 56.1596 5.5398 56.8275 5.70939V5.76592C57.8293 5.93551 58.7199 6.27468 59.666 6.61385C58.8868 6.55732 57.718 5.99203 56.6048 5.76592C55.9926 5.59634 55.4916 5.53981 54.8794 5.37022ZM62.6716 7.74443C62.3377 7.6879 61.8367 7.46178 61.2801 7.23567C61.0019 7.12261 60.7236 7.00955 60.5009 6.8965C60.2226 6.78344 59.9443 6.72691 59.7217 6.61385C60.3896 6.67038 61.8924 7.40526 62.6716 7.74443ZM57.885 2.31767C57.4954 2.31767 57.1058 2.14808 56.4378 2.03503C56.7161 2.03503 57.4397 2.14809 57.885 2.31767ZM45.8627 4.57882C45.9184 4.63535 45.7514 4.63535 45.4731 4.63535V4.57882H45.8627ZM44.6382 0.113052C44.4156 0.169579 43.8033 0.113052 43.4694 0.169586C43.692 0.0565262 44.3599 0.0565186 44.6382 0.113052ZM44.6939 4.29617C44.3599 4.29617 44.4156 4.18312 44.5826 4.12659C44.9722 4.18312 44.6382 4.23964 44.6939 4.29617ZM44.3599 4.29617C44.3599 4.29617 44.193 4.35271 44.026 4.35271C44.0816 4.29617 43.859 4.29617 43.9147 4.23965C44.1929 4.18311 44.1929 4.29617 44.3599 4.29617ZM43.7477 0.508751C43.6364 0.565277 42.9685 0.621811 43.0798 0.565285C43.4137 0.508751 43.4694 0.565277 43.7477 0.508751ZM40.1855 0.621811C39.9072 0.621811 39.5733 0.678337 39.4063 0.734871C39.0724 0.791397 40.2412 0.508751 40.1855 0.621811ZM40.9091 5.31369C40.8534 5.37022 40.4082 5.42675 40.1855 5.42675C40.2968 5.37022 40.6308 5.37022 40.9091 5.31369ZM39.6846 0.508751C39.7403 0.621803 38.7941 0.621811 38.6827 0.734871C38.2931 0.791397 38.8497 0.621803 38.5714 0.678337C38.7941 0.621803 39.295 0.565277 39.6846 0.508751ZM39.8516 9.60988C39.8516 9.6664 39.6289 9.72293 39.5733 9.72293C39.4063 9.72293 39.462 9.6664 39.1837 9.77946C39.1837 9.72293 39.5733 9.6664 39.8516 9.60988ZM38.9054 9.77946C38.5158 9.89252 38.1818 10.0056 37.7365 10.0621C37.8479 9.94905 38.5714 9.83599 38.9054 9.77946ZM38.7384 10.3448C38.5158 10.3448 38.2375 10.4578 38.0705 10.4578C38.0148 10.4013 38.9054 10.2317 38.7384 10.3448ZM38.5714 9.94904C38.5158 10.0056 38.2375 10.1186 38.0148 10.1186C38.1262 10.0056 38.4044 9.94904 38.5714 9.94904ZM37.0686 10.2317C36.9017 10.3447 36.679 10.4578 36.3451 10.4578C36.2894 10.4013 36.679 10.3447 36.7904 10.2882C36.7904 10.2317 36.4564 10.3447 36.3451 10.4013C36.5677 10.2882 36.7347 10.2882 37.0686 10.2317ZM34.1744 11.2492C34.1187 11.3623 33.4508 11.4753 33.2839 11.5884C33.4508 11.4753 33.7848 11.4188 34.1744 11.2492ZM33.7848 11.3057C33.7291 11.3623 33.1169 11.5884 33.0056 11.5884C32.9499 11.5319 33.3952 11.4753 33.2282 11.4188C33.3395 11.4188 33.5622 11.3623 33.7848 11.3057ZM31.7811 7.51832C31.3915 7.6879 31.1132 7.85748 30.8349 7.97054C30.5566 8.0836 30.2226 8.25318 29.833 8.4793C29.833 8.42277 30.2783 8.30971 30.0557 8.25318C30.7792 8.02706 31.1688 7.74443 31.7811 7.51832ZM33.1725 11.5884C33.0056 11.6449 32.282 12.0971 32.0594 12.0406C32.3933 11.9841 32.7829 11.7014 33.1725 11.5884ZM32.6716 11.5884C32.6716 11.6449 32.3933 11.8145 32.282 11.8145C32.3377 11.758 32.3933 11.7014 32.6716 11.5884ZM32.282 11.871C32.0037 12.0406 31.4471 12.2667 31.0019 12.4363C31.1132 12.2667 31.8924 12.0971 31.8367 11.9841C32.0037 11.871 32.0594 11.871 32.1707 11.871C32.0037 11.9276 31.8924 12.0406 32.282 11.871ZM25.9926 4.91799C26.1596 4.91799 25.7143 5.08758 25.4917 5.20064C25.3803 5.20064 25.8256 4.97452 25.9926 4.91799ZM30.1113 12.832C29.7774 13.0016 29.4434 13.2277 28.9981 13.4538C28.7755 13.5669 28.5529 13.6799 28.3302 13.793C28.1076 13.9626 27.885 14.0756 27.6623 14.2452C27.7737 14.3018 28.0519 14.0191 28.2189 13.9626C28.2189 14.0191 27.7737 14.2452 27.551 14.4148C27.3284 14.4713 27.6067 14.2452 27.4397 14.2452C28.4416 13.6234 29.1095 13.2277 30.1113 12.832ZM26.0482 9.89252C26.1039 10.0056 25.5473 10.2882 25.102 10.5709C25.102 10.4578 25.7143 10.1186 26.0482 9.89252ZM24.9907 10.7405C25.0464 10.8535 23.5993 11.5884 24.6568 10.9666C24.7124 10.91 24.8237 10.8535 24.9907 10.7405ZM26.4935 14.9801C26.6048 14.9801 26.1596 15.2627 25.9926 15.3758C26.1039 15.2627 26.1596 15.2062 26.4935 14.9801ZM25.8813 15.3193C25.8813 15.3758 25.7143 15.5454 25.5473 15.6584C25.603 15.6019 25.603 15.5454 25.5473 15.5454L25.8813 15.3193ZM24.2115 16.8456C24.2115 16.9021 23.9889 17.1282 23.9332 17.0717C23.8776 17.1282 23.8775 17.1282 23.8775 17.1847C23.6549 17.3543 23.7662 17.2412 23.7662 17.1847C23.9889 16.9586 23.9889 17.0151 24.2115 16.8456ZM23.4323 17.3543C23.4323 17.4108 23.3766 17.4674 23.4323 17.3543C23.4879 17.4108 23.2097 17.5804 23.0983 17.6935C23.2097 17.637 23.2096 17.5804 23.4323 17.3543ZM21.9295 18.9936C21.9295 19.1067 21.6512 19.2198 21.4842 19.4459C21.3729 19.4459 21.7625 19.1632 21.9295 18.9936ZM22.2635 19.672C21.9852 19.8981 21.7069 20.1242 21.6512 20.0112C21.8182 19.9546 22.1521 19.672 22.2635 19.672ZM21.6512 19.3893C21.5956 19.5024 21.2616 19.8416 21.6512 19.5024C21.5956 19.672 21.2616 19.8981 21.039 20.1807C21.2059 19.8981 21.3173 19.785 21.6512 19.3893ZM14.193 13.3973C14.0816 13.5669 14.3043 13.3408 14.193 13.5104C13.6364 14.0191 13.525 14.1887 13.0241 14.6975C13.1354 14.4713 13.8033 13.793 14.193 13.3973ZM21.5399 20.1807C21.7069 20.1807 21.0946 20.8026 21.0946 20.633C21.3173 20.4069 21.3729 20.2938 21.5399 20.1807ZM21.039 19.9546C21.0946 20.0112 20.6494 20.4069 20.538 20.5199C20.6494 20.2938 20.7607 20.2373 21.039 19.9546ZM12.8571 14.8671C12.9685 14.8105 12.4675 15.3193 12.4119 15.3758C12.4119 15.2627 12.6902 14.9801 12.8571 14.8671ZM20.2041 21.1417C20.2597 21.1417 20.0371 21.4244 19.9258 21.5374C19.9258 21.4809 20.0371 21.3113 20.2041 21.1417ZM19.0909 22.668C18.7013 23.1202 18.4787 23.5725 18.1447 23.9116C18.0334 23.9116 18.2004 23.7421 18.0891 23.7421C18.2004 23.629 18.4787 23.2333 18.4787 23.3464C18.5343 23.2333 18.8683 22.8941 19.0909 22.668ZM18.9796 22.7811C18.8683 22.8941 18.8126 22.7811 19.0909 22.4984C19.0353 22.7811 19.3692 22.1593 19.4805 22.2158C19.2022 22.4984 19.2579 22.4419 18.9796 22.7811ZM18.7013 23.7986C18.59 24.0247 18.4787 24.0812 18.3117 24.3073C18.3673 24.0812 18.4787 24.0247 18.7013 23.7986ZM6.06679 24.1943C6.12244 24.1943 6.06679 24.3073 6.06679 24.3073C5.89981 24.6465 5.7885 24.7596 5.62152 25.1553C5.56586 25.0987 5.89981 24.4204 6.06679 24.1943ZM14.8052 29.1688C14.8052 29.3949 14.5269 29.6776 14.5826 29.8472C14.3599 30.2429 14.2486 30.4124 14.1373 30.7516L14.026 30.6951C14.2486 30.2994 14.4712 29.6776 14.8052 29.1688ZM5.17625 26.0032C4.95362 26.3989 4.95361 26.512 4.78664 26.8511C4.73098 26.7946 5.17625 25.9467 5.17625 26.0032ZM14.026 30.8647C14.026 31.2038 13.692 31.8257 13.525 32.1648C13.4694 32.504 13.4137 32.8432 13.1354 33.465C13.1354 33.2389 13.4137 32.6736 13.3581 32.504C13.525 32.1648 13.6364 31.8257 13.7477 31.543C13.859 31.2038 13.9703 30.9777 14.026 30.8647ZM13.692 30.9212C13.7477 30.9212 13.525 31.43 13.4694 31.543C13.4137 31.4865 13.4694 31.2604 13.6364 30.9777C13.6364 30.9777 13.6364 31.0343 13.692 30.9212ZM13.3581 31.6561C13.4137 31.7126 13.2468 31.9953 13.0798 32.3344C13.0241 32.3344 12.9685 32.4475 12.9685 32.3909C13.0798 32.1648 13.2467 31.8822 13.3581 31.6561ZM3.2282 29.508C3.17255 29.7906 3.06123 30.0167 2.94991 30.2994C2.94991 30.1863 3.11688 29.9037 3.2282 29.508ZM13.5807 32.7301C13.6364 32.7301 13.4694 33.0693 13.4137 33.2389C13.4137 33.0128 13.3581 33.2389 13.3024 33.465C13.2468 33.3519 13.4694 32.9562 13.5807 32.7301ZM13.1354 33.0693H13.1911L13.0241 33.5215C12.9685 33.5215 13.0798 33.1824 13.1354 33.0693ZM2.83858 30.5255C2.83858 30.6386 2.78294 30.9212 2.67162 31.2038C2.61596 31.1473 2.72726 30.7516 2.83858 30.5255ZM3.00556 30.9212C3.06122 30.9212 2.83858 31.3734 2.83858 31.4865C2.78293 31.3734 2.94991 31.0343 3.00556 30.9212ZM2.83858 31.8822C2.89424 31.8822 2.78294 32.2779 2.67162 32.5605C2.61596 32.6171 2.72726 32.0518 2.83858 31.8822ZM2.44898 33.0128C2.50464 32.9562 2.50464 32.8997 2.44898 33.0128C2.50464 33.0693 2.61596 32.5605 2.61596 32.6736C2.5603 32.9562 2.61596 32.9562 2.50464 33.2389C2.44898 33.2954 2.44898 33.3519 2.39333 33.465C2.39333 33.5215 2.50464 33.0693 2.44898 33.0128ZM12.6345 35.7261C12.6345 35.7261 12.5788 35.8957 12.5788 36.0088C12.5232 36.0653 12.5788 35.7261 12.4675 36.0088C12.4675 35.8957 12.6345 35.6696 12.6902 35.6131C12.6345 35.8957 12.6902 35.8392 12.5788 36.1218C12.5788 36.0653 12.6345 35.8392 12.6345 35.7261ZM1.78107 33.9172C1.83673 33.9172 1.72542 34.5956 1.66976 34.539C1.61411 34.3129 1.72542 34.0303 1.78107 33.9172ZM2.17068 34.0868C2.22634 34.0303 2.17068 34.426 2.17068 34.4825C2.11503 34.6521 2.05936 34.7086 2.00371 34.7086C2.05936 34.539 2.11503 34.3695 2.17068 34.0868ZM12.1336 37.1959C12.1336 37.2524 12.1336 37.3089 12.1892 37.3089C12.1336 37.422 12.0779 37.5351 12.1336 37.3655C12.0779 37.422 12.0779 37.5351 12.0223 37.5351C12.0779 37.4785 12.0779 37.3655 12.0779 37.3655C12.0779 37.2524 12.1336 37.3089 12.1336 37.1959ZM12.0779 37.8177C11.9666 37.8742 11.9666 37.8742 11.9666 37.7047C12.0223 37.5916 12.1336 37.422 12.0779 37.8177ZM1.33581 37.1394C1.33581 37.1394 1.39147 37.1394 1.39147 37.0263C1.39147 37.309 1.33581 37.2524 1.28015 37.7612C1.22449 37.7047 1.22449 37.8742 1.22449 37.9873C1.16883 37.7612 1.33581 37.5351 1.33581 37.1394ZM11.0761 39.2309C11.0761 39.5701 11.0204 40.1919 10.9091 40.7572C10.9091 41.3225 10.8534 41.9443 10.8534 42.2835C10.7978 42.1704 10.7978 41.6051 10.8534 41.0398C10.9091 40.418 11.0761 39.7397 11.0761 39.2309ZM11.1317 40.2484H11.1874C11.1874 40.4746 11.1317 40.7007 11.0761 40.8137C11.0204 40.8137 11.0761 40.5311 11.1317 40.2484ZM11.0761 40.9268H11.1317C11.1317 41.0964 11.0761 41.3225 11.0204 41.266L11.0761 40.9268ZM11.41 41.379V41.4921C11.4657 41.8312 11.3544 41.5486 11.3544 41.8312C11.3544 41.8312 11.3544 41.6051 11.3544 41.4921C11.3544 41.4921 11.41 41.4921 11.41 41.379ZM10.8534 43.1314C10.9091 43.1314 10.9091 43.2445 10.9091 43.4141C10.9091 43.5836 10.9091 43.7532 10.9091 43.8663C10.7978 43.7532 10.8534 43.4141 10.8534 43.1314ZM0.222633 48.3886C0.27829 48.5582 0.333946 49.0104 0.333946 49.2365C0.27829 49.18 0.222633 48.6147 0.222633 48.3886ZM12.4675 55.7938C12.5788 56.5852 12.3006 56.133 12.0223 55.059C12.0223 55.172 12.0779 55.3416 12.1336 55.5112C12.0779 55.5677 11.9666 55.1155 11.9109 55.059C11.8553 54.9459 11.9109 54.9459 11.9666 54.9459C11.6327 54.098 11.6883 53.9849 11.41 53.0239C11.4657 52.8543 11.2987 52.5717 11.3544 52.3456C11.2987 52.1195 11.3544 52.6282 11.2987 52.3456C11.1317 51.6672 11.1874 51.7238 11.0761 51.0454C11.0204 51.0454 11.1874 51.6672 11.0761 51.5542C11.0204 51.102 10.9648 50.7628 10.8534 50.4236C10.9091 50.3671 10.9091 50.4236 10.9648 50.4801C10.9091 50.254 10.9091 50.1975 10.8534 50.1975C10.7421 49.7453 10.7978 49.6322 10.7978 49.4061C10.9091 49.6322 11.0204 50.1975 11.1317 50.7628C11.1874 51.0454 11.243 51.3281 11.243 51.5542C11.2987 51.7803 11.3544 52.0064 11.4657 52.176C11.6883 53.3066 11.9109 54.2676 12.3006 55.3981C12.3562 55.3416 12.1892 55.1155 12.2449 55.0024C12.3006 55.0024 12.4675 55.5112 12.4119 55.5677C12.3562 55.9069 12.4119 55.9069 12.4675 55.7938ZM0.333946 52.8544C0.389603 52.9109 0.500923 53.4196 0.500923 53.5892C0.445267 53.4762 0.389603 53.1935 0.333946 52.8544ZM0.222633 53.25C0.27829 53.137 0.389603 53.8153 0.333946 53.7588L0.222633 53.25ZM1.78107 52.7978C1.83673 53.0239 2.05937 54.0415 1.94805 53.8719C1.8924 53.5327 1.83673 53.25 1.78107 52.7978ZM0.500923 53.7023C0.723557 54.3241 0.890541 55.4547 1.11317 56.0765C1.05752 55.9069 0.94619 55.7938 0.890533 55.7373C0.723557 55.1155 0.723564 54.6633 0.556587 54.1545C0.556587 54.098 0.612244 54.098 0.500923 53.7023ZM10.7421 51.3846C10.7978 51.4411 10.8534 51.8934 10.9091 52.1195C10.7978 52.0064 10.7978 51.7803 10.7421 51.3846ZM1.50278 54.3806C1.55844 54.4372 1.55844 54.4937 1.6141 54.4937C1.72542 54.8329 1.6141 54.7198 1.72542 55.1155C1.66976 55.059 1.61411 54.7198 1.50278 54.3806ZM1.78107 54.6633H1.83674C2.00372 55.2286 2.05936 55.5112 2.17068 56.1895C2.05936 55.7373 2.00371 55.2286 1.78107 54.6633ZM2.22635 56.1895C2.50464 57.1505 2.67162 57.9419 3.11688 59.0725C3.00556 58.9594 3.06123 59.0725 2.94991 59.016C2.83859 58.4507 2.50465 57.3766 2.39333 57.2071C2.33767 56.9809 2.33767 56.9244 2.39333 56.9244C2.28201 56.5852 2.33765 56.8114 2.282 56.8114C2.17068 56.4722 2.28201 56.4722 2.22635 56.1895ZM11.0204 53.3631C11.1317 53.3066 11.0761 53.6458 11.1874 53.9284C11.0761 53.8153 11.0761 53.6457 11.0204 53.3631ZM10.6865 54.5502C10.8534 55.059 11.1317 55.7373 11.3544 56.3591C11.4657 56.6983 11.577 57.0375 11.6883 57.3201C11.7996 57.6593 11.9109 57.9419 12.0223 58.168C12.1336 58.3942 12.0779 58.055 11.9666 57.8854C12.0779 57.9419 12.1336 58.2811 12.1892 58.4507C12.1336 58.4507 12.0779 58.3376 12.0779 58.3942C12.0779 58.4507 12.2449 58.8464 12.3006 59.016C11.9666 58.4507 11.6327 57.8289 11.41 57.1505C11.1874 56.4157 10.9648 55.6243 10.6308 54.6633C10.6865 54.6633 10.6865 54.6633 10.6865 54.5502ZM11.9109 54.2676C11.9666 54.3241 12.0779 54.6633 12.1336 54.7763C12.0779 54.7763 12.1336 54.8894 12.0779 54.8894C11.9666 54.5502 12.0223 54.6067 11.9109 54.2676ZM3.06123 59.2986C3.11688 59.2986 3.28386 59.7509 3.45084 60.1466C3.39518 60.2031 3.33952 60.0335 3.33952 60.09C3.28387 59.8074 3.17255 59.6943 3.06123 59.2986ZM12.3562 56.3591C12.4119 56.3591 12.4675 56.4722 12.5232 56.4157C12.5788 56.6418 12.6345 56.8679 12.6902 57.0375C12.7458 57.2071 12.8015 57.4332 12.9128 57.7158C12.8015 57.6028 12.7458 57.3766 12.6345 57.1505C12.5232 56.8679 12.4675 56.6418 12.3562 56.3591ZM13.8033 58.9029L13.6364 58.4507C13.8033 58.7899 13.9703 59.1856 14.1373 59.5813C14.3599 59.977 14.5826 60.3727 14.7495 60.7684C14.9722 61.1641 15.1392 61.6163 15.4174 62.012C15.6401 62.4077 15.9184 62.8599 16.0853 63.2556C16.141 63.3122 16.141 63.3122 16.1967 63.3687C16.308 63.5383 16.3636 63.7079 16.475 63.8774C16.4193 63.8774 16.1967 63.4817 16.0297 63.2556C15.974 63.2556 15.974 63.2556 16.0297 63.3687C15.7514 62.973 15.4174 62.4642 15.0835 61.8424C14.7495 61.2206 14.4156 60.5423 14.026 59.977C13.9147 59.6943 13.8033 59.4117 13.8033 59.2421C13.692 59.016 13.7477 59.3552 13.692 59.2986C13.5807 59.0725 13.5807 58.8464 13.4694 58.7899C13.3581 58.5072 13.4694 58.6768 13.525 58.6768C13.3024 58.2246 13.1354 57.9419 13.0241 57.6593C12.9128 57.6028 13.1354 57.9419 13.1911 58.1115C13.0241 57.8854 12.8015 57.2636 12.6902 56.9809C12.7458 56.8679 12.9685 57.3201 12.8015 56.8114C13.0241 57.1505 13.3024 58.2246 13.4694 58.3376C13.3581 57.9985 13.1354 57.5462 12.9685 57.1505C12.8015 56.7548 12.6902 56.3026 12.6902 56.133C12.8015 56.3591 12.8571 56.5852 12.9685 56.8114C13.0798 57.0375 13.1354 57.2636 13.2468 57.4897C13.4137 57.9419 13.5807 58.3942 13.8033 58.8464V58.9029ZM12.0223 56.8114C12.0779 56.8114 12.1892 56.9809 12.1892 57.1505C12.1892 57.2071 12.1336 56.9809 12.0223 56.8114ZM12.5232 57.6593L12.4675 57.6028C12.9128 58.7333 13.0241 58.8464 13.4694 59.8074C13.4137 60.2596 12.6345 58.168 12.3562 57.6593C12.1892 57.2071 12.2449 57.094 12.5232 57.6593ZM13.0241 57.9985C13.0798 58.055 13.1911 58.2811 13.2468 58.2811C13.2468 58.4507 13.5807 59.016 13.525 59.129C13.4137 58.7333 13.1354 58.5072 13.0241 57.9985ZM13.7477 61.7859C13.7477 61.7859 13.8033 61.8989 13.8033 61.9555C13.7477 61.9555 13.692 61.6728 13.6364 61.7294C13.6364 61.8424 13.9147 62.2946 14.026 62.5208C13.7477 62.1816 13.3581 61.2771 13.1354 61.051C13.0798 60.8814 13.1911 60.938 13.2468 60.9945C13.2468 60.8814 13.1354 60.8249 13.0798 60.5988C12.9128 60.3727 13.1911 60.8814 13.0798 60.8249C12.7458 60.1466 12.6902 59.977 12.5232 59.6943C12.4119 59.4117 12.5788 59.6943 12.3006 59.129C12.4119 59.016 12.5788 59.6943 12.6902 59.9204C12.6345 59.5813 12.1336 58.7899 12.2449 58.7333C12.4675 59.2986 12.7458 59.9204 13.0798 60.5423C13.4137 61.1641 13.7477 61.7859 13.9703 62.4077C13.859 62.2381 13.9147 62.0685 13.7477 61.7859ZM13.3581 59.2421C13.2467 58.9594 13.525 59.4117 13.4137 59.129C13.525 59.1856 13.525 59.4117 13.525 59.4682C13.525 59.5247 13.4137 59.1856 13.3581 59.2421ZM13.5807 59.5247C13.9147 60.1466 14.6382 61.5598 14.3599 61.2771C14.2486 60.7684 13.859 60.2596 13.5807 59.5247ZM12.8571 61.8989C12.8015 61.7294 12.9128 61.9555 12.8571 61.7859C13.0241 61.8989 13.2467 62.5208 13.4137 62.8599C13.2467 62.8034 13.0241 62.012 12.8571 61.8989ZM13.3024 62.7469C13.3581 62.9165 13.4694 63.0295 13.525 63.1991C13.4694 63.1426 13.4137 63.1426 13.4694 63.1991C13.4137 63.1991 13.3024 62.973 13.3024 62.973C13.2468 62.8034 13.2468 62.7469 13.3024 62.7469ZM14.5826 61.5032C14.8608 62.0685 15.5844 63.2556 16.1967 64.1601C15.7514 63.7079 15.2505 62.6903 14.7495 61.8424C14.8052 61.8989 14.6382 61.6163 14.5826 61.5032ZM14.6939 65.4037C14.7495 65.6298 15.1948 66.0821 15.1948 66.2517C15.3618 66.4212 15.4174 66.4778 15.6401 66.7604C15.6401 66.8169 15.7514 67.0431 15.6401 66.93C15.5287 66.7604 15.6401 66.8169 15.5288 66.6474C15.3618 66.4778 15.3618 66.4778 15.4731 66.7039C15.1391 66.3082 14.9165 66.0255 14.7495 65.6864C14.5269 65.4037 14.4156 65.0646 14.193 64.6688C14.3043 64.8384 14.5269 65.008 14.5826 65.2341C14.6939 65.1776 14.4156 64.7819 14.2486 64.6123C14.2486 64.5558 14.1373 64.2166 14.193 64.3862C14.2486 64.3297 14.4712 64.7819 14.6382 65.0646C14.5269 64.7819 14.026 64.1036 13.9703 63.934C13.9703 64.047 13.9703 64.1601 13.8033 63.8209C13.9703 63.7644 13.692 63.3687 13.4694 62.8599C13.525 62.9165 13.5807 62.9165 13.5807 62.9165C13.8033 63.3687 14.2486 64.1036 14.7495 64.8384C14.8609 65.008 14.9722 65.2341 15.0835 65.4037C15.1948 65.5733 15.3618 65.7429 15.4731 65.9125C15.7514 66.2517 15.974 66.5908 16.141 66.8735C16.141 66.93 16.0297 66.8169 16.0297 66.8735C16.1967 67.0996 16.308 67.0996 16.475 67.3822L16.4193 67.4388C16.5306 67.6083 16.5863 67.6083 16.6419 67.7214C16.8089 67.891 16.5863 67.6083 16.7532 67.7779L17.0872 68.1736C17.0315 68.1736 17.0872 68.2302 17.1429 68.2867C16.9759 68.1736 16.8646 68.1736 16.6419 67.8345C16.6976 67.891 16.6976 67.9475 16.6419 67.9475C16.5306 67.7214 16.308 67.4953 16.1967 67.2692C16.0853 67.1561 16.0297 67.1561 16.0297 67.1561C15.4731 66.5343 15.1948 66.1386 14.6939 65.4037ZM16.5863 64.4427C16.5863 64.5558 16.475 64.3862 16.4193 64.3297C16.141 63.8774 16.0853 63.7644 15.8071 63.2556C15.974 63.7644 15.1391 62.2946 15.1391 62.1251C15.6401 62.8599 16.141 63.9905 16.5863 64.4427ZM16.4193 64.047C16.475 64.047 16.6419 64.3862 16.6976 64.4427C16.5863 64.4427 16.475 64.2166 16.4193 64.047ZM16.5863 64.6688C16.5863 64.5558 16.7532 64.7254 16.9202 65.008C16.9202 65.1211 16.7532 64.895 16.7532 64.895C17.1429 65.5168 17.6438 66.1386 17.6994 66.4212C17.3655 65.856 17.1429 65.6864 16.8089 65.2907C16.7533 65.1776 16.7533 65.1211 16.6419 64.9515C16.7533 65.008 16.8089 65.1211 16.9202 65.3472C16.9202 65.2341 16.8089 65.008 16.5863 64.6688ZM18.3673 67.0431C18.4787 67.0431 18.757 67.4953 18.6456 67.4388C18.59 67.3822 18.4787 67.2692 18.3673 67.1561C18.423 67.1561 18.4787 67.1561 18.3673 67.0431ZM12.1336 77.0486C12.4119 77.2182 12.5788 77.5009 12.9128 77.84C12.9128 77.9531 12.4675 77.3313 12.4675 77.4443C12.1892 77.2182 12.4119 77.3313 12.1336 77.0486ZM15.1391 79.5924C15.6957 80.0447 16.1967 80.5534 16.7532 80.9491C17.0872 81.2318 16.8646 81.2318 17.3098 81.5144C17.3655 81.6275 16.9759 81.3448 17.2542 81.5709C16.6976 81.2318 16.4193 80.9491 15.8627 80.4969C15.7514 80.3838 15.807 80.3273 15.9184 80.3838C15.6401 80.1012 15.3061 79.8185 15.1391 79.5924ZM22.7644 72.2437C22.82 72.1872 23.0983 72.4698 23.2096 72.5829C23.154 72.6394 22.82 72.3568 22.7644 72.2437ZM23.2653 72.1306C23.321 72.1306 23.5993 72.4133 23.7662 72.5263C23.7106 72.6394 23.5436 72.3568 23.2653 72.1306ZM25.9926 74.4483C25.7699 74.2787 26.2152 74.5048 26.4379 74.6179C26.4379 74.731 25.9926 74.3918 25.9926 74.4483ZM24.9351 84.7365C25.3247 84.8496 25.77 85.1322 25.603 84.9627C26.4379 85.3018 26.6605 85.6975 25.9369 85.4714C25.4917 85.1888 24.8794 84.9061 24.9351 84.7365ZM30.9462 79.4228C30.9462 79.3663 31.1688 79.4228 31.4471 79.5359C31.4471 79.5924 31.5584 79.649 31.5028 79.649C31.2802 79.5924 31.0575 79.4794 30.9462 79.4228ZM36.5677 88.2979C36.5121 88.1848 37.013 88.2979 37.2913 88.2979C37.3469 88.1283 36.9017 88.0152 37.4026 87.9587C37.8479 88.0152 37.9592 88.0717 38.1818 88.1283C38.2931 88.3544 38.2375 88.2979 37.9592 88.4674C37.6252 88.4674 37.0686 88.3544 37.1243 88.4674C37.013 88.4109 36.7347 88.3544 36.5677 88.2979ZM37.7365 84.1147C37.7922 84.0582 38.2931 84.1713 38.3488 84.1713C38.2931 84.1713 38.1262 84.1713 37.9035 84.1713C37.9592 84.1713 37.8479 84.1713 37.7365 84.1147ZM38.7941 88.3544C39.0167 88.3544 39.0167 88.4109 39.2393 88.4109C39.3507 88.4674 39.0724 88.4674 39.128 88.524C39.0167 88.4674 38.7941 88.4109 38.7941 88.3544ZM39.5733 81.2883C39.5176 81.1752 40.2968 81.3448 40.1855 81.4014C39.9629 81.4014 39.7403 81.2883 39.5733 81.2883ZM43.6364 81.9101H43.859C43.859 81.9666 44.0816 82.0232 43.692 82.0232C43.692 81.9666 43.4137 81.9666 43.6364 81.9101Z" fill="#EF0F3A"/>
</svg>
