<svg width="385" height="385" viewBox="0 0 385 385" fill="none" xmlns="http://www.w3.org/2000/svg">
<g opacity="0.4" clip-path="url(#clip0_1108_672)">
<path d="M0.111112 181.27C0.0261853 191.761 0.993441 202.295 5.57641 210.918C9.7263 218.76 15.7381 225.48 21.6356 231.938C27.4426 238.404 33.4464 245.033 37.7359 252.908C43.1772 263.005 45.433 274.203 47.6571 285.038C49.3549 293.504 51.0844 302.331 54.4359 310.424C55.4717 312.886 56.5074 315.348 57.5512 317.9C60.1937 324.14 62.803 330.521 65.0995 336.975C63.7635 335.769 62.4274 334.565 61.0914 333.361C59.2991 328.504 57.2356 323.67 55.2291 318.969C54.1853 316.417 53.1004 313.914 52.0646 311.452C48.648 303.136 46.8694 294.268 45.1558 285.622C43.038 274.959 40.7981 263.943 35.5282 254.24C31.402 246.671 25.4966 240.124 19.7466 233.789C13.7919 227.2 7.63266 220.356 3.31937 212.209C2.01222 209.772 1.00188 207.081 0.172479 204.372C-0.32724 196.577 -0.358815 188.923 0.111112 181.27Z" fill="#0046E2"/>
<path d="M173.249 63.9372C186.047 74.2574 193.42 91.8436 193.001 111.022C192.805 120.247 190.777 129.358 188.856 138.139C188.297 140.604 187.786 143.11 187.276 145.615C181.877 171.93 180.807 198.778 184.004 225.434C185.444 237.706 188.457 243.504 192.623 251.525C194.322 254.795 196.249 258.593 198.346 263.286C200.557 268.243 202.957 273.274 205.251 278.132C209.039 286.004 212.99 294.183 216.136 302.521C224.571 324.435 228.552 348.061 232.33 370.929C232.837 374.121 233.393 377.354 233.95 380.587C233.102 380.798 232.255 381.008 231.399 381.129C230.835 377.805 230.279 374.573 229.723 371.339C225.96 348.652 222.036 325.158 213.715 303.508C210.537 295.308 206.635 287.172 202.846 279.3C200.553 274.441 198.062 269.418 195.892 264.411C193.844 259.76 191.925 256.053 190.226 252.784C185.946 244.499 182.916 238.52 181.348 225.804C178.126 198.876 179.263 171.749 184.638 145.162C185.148 142.657 185.708 140.192 186.26 137.638C188.188 128.945 190.135 119.933 190.354 110.981C190.794 92.5745 183.764 75.779 171.556 65.954C169.645 64.4347 167.57 63.1122 165.535 61.7406L163.846 60.6578C151.369 52.4516 140.05 42.3666 129.214 32.6038C123.575 27.5367 117.738 22.3046 111.754 17.45C112.585 17.0582 113.458 16.6172 114.389 16.308C120.086 21.0053 125.578 25.9486 130.963 30.7188C141.79 40.3911 153.013 50.3935 165.349 58.5664L167.039 59.6492C169.115 60.9717 171.239 62.3354 173.249 63.9372Z" fill="#0046E2"/>
<path d="M22.8339 100.843C24.1544 113.854 24.1041 126.301 22.5763 138.011C21.8146 144.413 20.1658 150.573 18.5504 156.594C14.778 170.78 11.1644 184.177 19.1786 199.2C23.2715 206.909 29.6626 213.278 35.849 219.391C41.2405 224.753 46.7796 230.239 50.9504 236.756C55.8081 244.353 58.7057 252.988 61.4891 261.358C64.0203 268.931 67.0195 276.644 70.1981 284.843C79.131 307.762 88.3082 331.388 87.9998 354.432C87.1302 353.871 86.2606 353.308 85.4324 352.697C85.3263 330.647 76.4505 307.86 67.8189 285.781C64.6403 277.582 61.5919 269.827 59.0528 262.164C56.2853 253.974 53.4941 245.513 48.7918 238.131C44.7352 231.876 39.2945 226.473 34.0505 221.235C27.7165 214.998 21.1778 208.505 16.8724 200.45C8.45844 184.505 12.1721 170.689 16.0366 155.994C17.6188 150.113 19.2262 144.001 20.0037 137.781C21.2884 127.459 21.4813 116.64 20.5745 105.234C21.3938 103.658 22.0893 102.23 22.8339 100.843Z" fill="#0046E2"/>
<path d="M161.214 80.0761C169.92 96.7705 173.584 114.682 172.332 134.753C171.603 146.212 170.118 157.372 168.602 168.169C165.896 187.777 163.325 206.324 165.344 226.793C167.005 243.694 175.358 255.816 184.178 268.582C186.836 272.405 189.552 276.361 192.153 280.554C204.966 300.946 210.789 324.775 214.409 343.236C215.299 347.67 216.147 352.154 217.044 356.679C218.708 365.284 220.388 374.071 222.242 382.75C221.387 382.871 220.531 382.991 219.675 383.111C217.823 374.432 216.15 365.736 214.485 357.131C213.637 352.647 212.789 348.164 211.9 343.729C208.295 325.449 202.595 301.974 189.994 281.928C187.402 277.825 184.685 273.87 182.076 270.087C173.044 256.976 164.536 244.639 162.819 227.106C160.818 206.315 163.332 187.636 166.111 167.84C167.586 157.092 169.129 146.064 169.817 134.654C171.018 115.042 167.484 97.5761 158.998 81.3182C149.849 63.7509 136.912 55.4938 120.554 45.1203L116.936 42.8389C109.118 37.8712 101.58 32.4689 94.3242 26.6317C95.0988 26.1081 95.8813 25.675 96.6638 25.242C103.617 30.741 110.81 35.8546 118.25 40.6729L121.868 42.9543C138.563 53.5262 151.739 61.8993 161.214 80.0761Z" fill="#0046E2"/>
<path d="M19.5516 261.29C23.0733 267.681 23.2666 276.141 23.1727 284.446C22.2574 282.839 21.3833 281.184 20.5997 279.52C20.5059 273.239 19.8852 267.185 17.3358 262.531C15.7098 259.574 13.1028 257.387 10.3149 255.215C9.8264 253.799 9.33002 252.293 8.88281 250.829C9.42389 251.283 10.0554 251.728 10.5965 252.183C13.9667 254.759 17.4354 257.418 19.5516 261.29Z" fill="#0046E2"/>
<path d="M203.836 55.1541C218.129 68.4884 224.75 89.4673 220.681 108.601C219.461 114.451 217.353 120.059 215.231 125.486C214.633 126.996 214.086 128.549 213.488 130.06C200.759 164.81 198.122 202.915 205.813 240.299C209.211 256.729 216.351 272.695 223.213 288.092C227.463 297.611 231.829 307.393 235.289 317.253C240.745 332.728 242.145 349.242 243.447 365.171C243.811 369.333 244.142 373.633 244.555 377.837C243.708 378.047 242.909 378.299 242.061 378.51C241.583 374.085 241.204 369.743 240.824 365.4C239.488 349.611 238.153 333.32 232.812 318.109C229.408 308.38 225.044 298.597 220.841 289.12C213.922 273.592 206.726 257.494 203.263 240.841C195.441 203.013 198.13 164.447 211.09 129.221C211.639 127.669 212.235 126.158 212.833 124.648C214.873 119.318 216.939 113.759 218.134 108.14C221.961 89.8936 215.65 69.8447 201.996 57.0469C194.554 50.1321 185.387 45.3736 176.466 40.8216C173.314 39.183 170.024 37.5112 166.864 35.7822C160.348 32.1591 154.493 27.7489 148.695 23.4706C145.086 20.7781 141.38 18.0032 137.607 15.5075C134.9 13.7389 132.374 11.9545 129.848 10.1701C130.868 9.85291 131.889 9.53575 132.86 9.17731C134.853 10.5982 136.887 11.9699 139.012 13.3336C142.884 15.9118 146.59 18.6867 150.199 21.3792C155.898 25.5751 161.753 29.9852 168.031 33.4923C171.149 35.2706 174.391 36.9012 177.583 38.4906C186.743 43.1585 196.099 47.9916 203.836 55.1541Z" fill="#0046E2"/>
<path d="M248.741 87.0492C249.443 100.798 245.455 115.64 237.259 129.803C235.837 132.297 234.481 134.513 233.166 136.678C226.99 146.835 222.534 154.245 221.681 167.947C220.761 182.43 220.826 197.237 221.92 211.817C224.205 243.157 231.994 278.527 243.927 311.257C245.679 316.162 247.709 321.135 249.633 325.935C253.766 336.193 258.071 346.846 260.541 357.888C261.578 362.445 262.351 367.118 262.895 371.765C262.104 372.107 261.264 372.409 260.425 372.711C259.866 367.882 259.126 363.07 258.081 358.422C255.586 347.61 251.379 337.04 247.303 326.913C245.379 322.113 243.349 317.141 241.548 312.193C229.591 279.193 221.696 243.65 219.386 212.038C218.326 197.319 218.254 182.421 219.166 167.848C220.054 153.504 224.634 145.948 231.008 135.454C232.282 133.337 233.678 131.073 235.06 128.628C243.016 114.851 246.87 100.567 246.167 87.3201C245.38 72.0749 238.381 58.2391 227.375 50.1776C220.947 45.453 213.186 42.7136 205.656 39.9996C204.244 39.4851 202.832 38.9707 201.419 38.4561C180.514 30.805 160.688 19.869 142.777 6.34965C143.848 6.07375 144.868 5.7566 145.987 5.52197C163.291 18.365 182.338 28.7312 202.348 36.0504C203.761 36.5649 205.173 37.0793 206.585 37.5939C214.255 40.3412 222.253 43.1966 228.97 48.0783C240.508 56.5033 247.982 71.0723 248.741 87.0492Z" fill="#0046E2"/>
<path d="M260.05 51.6941C266.15 61.5065 266.784 73.438 267.348 84.0538C268.223 99.7927 268.263 114.83 259.788 126.327C257.551 129.395 254.812 131.958 252.116 134.473C249.674 136.783 247.15 139.192 245.061 141.882C234.391 155.896 236.97 171.304 239.767 187.65C240.203 190.026 240.59 192.363 240.935 194.748C241.61 199.338 242.467 203.912 243.231 208.494C245.53 221.738 247.917 235.476 247.814 248.885L247.836 249.658C247.707 263.297 247.577 277.438 249.998 291.036C251.95 301.895 256.629 311.102 261.538 320.837C262.747 323.191 263.906 325.506 265.073 327.91C270.903 339.843 274.88 352.486 277.937 365.025C277.155 365.458 276.364 365.8 275.533 366.192C272.517 353.603 268.54 340.962 262.76 329.071C261.641 326.707 260.432 324.352 259.273 322.038C254.258 312.13 249.472 302.749 247.488 291.528C245.003 277.708 245.125 263.477 245.287 249.698L245.265 248.926C245.392 235.789 243.013 222.141 240.723 208.987C239.908 204.364 239.093 199.74 238.418 195.151C238.031 192.815 237.685 190.429 237.25 188.052C234.518 171.928 231.689 155.221 243.102 140.321C245.265 137.443 247.92 134.977 250.444 132.569C253.01 130.111 255.707 127.596 257.78 124.726C265.767 113.908 265.676 99.3319 264.89 84.0866C264.357 73.8327 263.706 62.2218 257.974 52.9696C250.329 40.6032 235.631 35.1437 221.401 29.8254L218.478 28.7138C199.249 21.463 180.781 12.5048 163.305 1.86452C164.654 1.65534 166.003 1.44606 167.31 1.28607C183.852 11.1422 201.31 19.5051 219.407 26.3082L222.281 27.3784C236.765 32.9935 251.882 38.5532 260.05 51.6941Z" fill="#0046E2"/>
<path d="M92.1013 83.5253C102.646 96.7319 111.622 109.21 113.933 128.333C115.668 142.947 115.897 158.06 116.085 172.719C116.341 191.794 116.603 211.461 120.379 230.136C124.705 251.452 135.005 271.243 145.027 290.466C148.36 296.784 151.808 303.364 154.934 309.927C166.111 332.968 173.173 357.418 180.072 381.063C180.405 382.264 180.787 383.506 181.128 384.798C180.257 384.738 179.295 384.685 178.424 384.624C178.115 383.695 177.896 382.756 177.586 381.826C170.744 358.315 163.74 333.996 152.62 311.087C149.452 304.573 146.054 298.033 142.721 291.716C132.641 272.362 122.235 252.398 117.788 230.727C113.996 211.871 113.717 192.023 113.454 172.858C113.273 158.289 113.045 143.178 111.236 128.75C108.98 110.262 100.257 98.0803 89.9743 85.261C83.9897 77.8086 72.0166 66.5045 65.2618 67.9615C64.1429 68.1961 63.2365 68.7768 62.4111 69.7605C61.5443 70.7935 60.8568 72.3121 60.2993 74.2751C59.4495 77.5855 60.0533 81.3612 60.5191 84.602L68.0846 132.526C69.2272 139.855 69.1525 147.337 69.1445 154.538C69.054 161.838 69.0284 169.361 70.2123 176.641C72.797 192.641 77.804 207.152 85.2841 219.715C97.9135 241.125 115.356 273.782 121.07 309.927C123.331 324.314 123.717 339.139 124.145 353.413C124.3 358.822 124.405 364.192 124.551 369.511C124.605 370.647 124.609 371.74 124.613 372.833C123.718 372.501 122.873 372.211 122.019 371.83C121.997 371.057 121.975 370.284 121.953 369.511C121.806 364.192 121.701 358.822 121.597 353.453C121.217 339.22 120.749 324.495 118.545 310.239C112.911 274.498 95.6327 242.146 83.019 220.916C75.4661 208.041 70.2545 193.274 67.638 176.912C66.4305 169.361 66.5385 161.74 66.5799 154.398C66.637 147.237 66.6784 139.896 65.6009 132.789L58.0353 84.8649C57.4553 81.3607 56.8277 77.3136 57.811 73.4446C59.0436 68.7789 61.3549 66.0244 64.7117 65.3205C75.539 63.0059 91.9458 83.3111 92.1013 83.5253Z" fill="#0046E2"/>
<path d="M44.8052 68.566C51.027 93.3173 54.4842 118.766 54.9894 144.337C55.0583 148.25 55.0446 152.263 54.9565 156.464C54.7929 170.744 54.5785 185.483 59.4604 198.046C62.4598 205.76 67.7953 213.087 73.0657 220.191C76.7973 225.335 80.7256 230.642 83.7572 236.12C91.0862 249.562 97.3122 263.42 102.173 277.306C109.339 297.735 112.687 321.417 112.037 345.766C111.832 352.804 111.545 359.939 111.25 366.984C110.396 366.602 109.583 366.172 108.73 365.791C109.015 359.157 109.244 352.391 109.48 345.717C110.203 321.68 106.837 298.319 99.7861 278.153C94.9821 264.398 88.8625 250.714 81.5413 237.362C78.6161 232.057 74.7863 226.832 71.0547 221.689C65.7271 214.453 60.244 207.002 57.1717 198.976C52.1105 185.928 52.3012 170.916 52.4902 156.405C52.5372 152.254 52.6 148.283 52.5311 144.369C52.0067 119.621 48.7605 95.0196 42.832 71.0175C43.402 70.2384 44.1035 69.4023 44.8052 68.566Z" fill="#0046E2"/>
<path d="M196.551 384.998C193.885 368.595 189.712 347.995 181.213 328.457C174.946 314.147 167.182 300.925 159.636 288.139C143.696 261.185 128.705 235.697 128.588 202.07C128.552 193.323 129.084 184.298 129.651 174.631C131.606 141.234 133.689 106.686 111.931 80.97C105.02 72.8237 96.847 65.8817 88.9689 59.1874C83.6486 54.6394 78.0903 49.9754 73.051 44.9925C72.4037 44.3655 71.7484 43.648 71.036 42.7988C70.401 43.3557 69.7169 43.8712 69.082 44.4281C69.8436 45.3187 70.5559 46.168 71.2525 46.8363C76.3901 51.9016 81.9071 56.6148 87.3179 61.155C95.1469 67.808 103.271 74.7087 109.986 82.6899C131.129 107.64 129.09 141.636 127.136 174.532C126.569 184.199 125.995 193.274 126.081 202.063C126.212 236.37 141.408 262.114 157.47 289.423C165.007 302.118 172.723 315.299 178.931 329.477C187.253 348.529 191.394 368.769 194.002 385.039L196.551 384.998Z" fill="#0046E2"/>
<path d="M34.6242 81.8998C37.7665 95.9363 39.9532 110.512 41.0448 125.594C41.7616 134.829 41.2629 143.715 40.8229 152.231C39.7886 171.144 38.7989 189.007 50.8783 207.776C54.4113 213.255 58.4714 218.506 62.3839 223.633C66.6978 229.181 71.1179 234.902 74.8873 240.998C97.3578 276.952 101.54 319.019 99.3906 361.139C98.5782 360.709 97.7165 360.237 96.8961 359.716C98.8449 318.435 94.6106 277.33 72.7208 242.282C69.0084 236.317 64.6374 230.637 60.3314 225.18C56.3699 220.012 52.2607 214.719 48.6292 209.158C36.1246 189.697 37.0826 171.472 38.1678 152.098C38.6569 143.624 39.1224 134.877 38.4214 125.824C37.3677 111.695 35.4409 98.0084 32.5508 84.7703C33.2858 83.7945 33.9304 82.8266 34.6242 81.8998Z" fill="#0046E2"/>
<path d="M205.311 384.552C204.731 381.047 204.249 377.625 203.719 374.162C200.857 354.997 197.849 335.206 190.858 316.766C188.536 310.543 185.527 303.24 181.118 296.607C178.271 292.206 174.767 288.092 171.369 284.151C145.671 254.039 135.563 216.638 141.228 173.026C141.886 168.047 142.709 162.87 143.555 157.964C146.099 142.746 148.643 127.028 146.039 111.851C140.813 81.8162 118.016 64.5313 93.8915 46.132C89.3977 42.6967 84.8548 39.22 80.3945 35.645C81.1691 35.1215 81.8533 34.6058 82.5866 34.1315C86.801 37.5001 91.1471 40.8117 95.4441 44.082C118.93 61.9447 143.202 80.4678 148.598 111.399C151.331 127.021 148.671 142.978 146.144 158.376C145.297 163.281 144.466 168.368 143.808 173.348C138.212 216.178 148.174 252.954 173.364 282.473C176.77 286.504 180.275 290.618 183.269 295.143C187.833 301.989 190.898 309.424 193.278 315.779C200.384 334.483 203.407 354.455 206.236 373.76C206.774 377.313 207.264 380.826 207.893 384.371L205.311 384.552Z" fill="#0046E2"/>
<path d="M268.572 32.3536C273.422 37.2619 275.811 45.3024 277.934 52.3636C278.511 54.2729 279.04 56.1408 279.642 57.82C282.523 66.2732 285.631 76.2565 286.778 86.7757C288.493 102.213 285.502 116.467 278.289 126.76C275.051 131.419 271.132 135.591 267.336 139.615C256.915 150.736 247.913 160.365 254.179 176.772C267.38 211.487 273.121 249.498 270.759 286.576L270.644 288.911C270.213 294.919 269.839 301.059 270.986 306.885C272.118 312.528 274.78 317.946 277.327 323.102L278.438 325.374C283.451 335.784 287.772 346.617 291.203 357.712C290.421 358.145 289.687 358.619 288.905 359.053C285.465 347.868 281.177 336.894 276.116 326.444L275.005 324.171C272.352 318.843 269.633 313.292 268.469 307.287C267.199 301.108 267.649 294.78 268.023 288.639L268.178 286.256C270.482 249.546 264.78 211.988 251.743 177.577C244.93 159.624 254.939 148.994 265.444 137.775C269.157 133.85 273.034 129.727 276.149 125.216C282.99 115.365 285.815 101.809 284.196 86.956C283.072 76.7083 280.022 66.8568 277.156 58.5845C276.554 56.9052 275.976 54.9959 275.441 53.0374C273.392 46.2888 271.074 38.5611 266.675 34.1148C254.827 22.1618 235.589 14.8204 220.079 8.93054L218.568 8.3335C214.184 6.66611 209.568 4.9733 204.724 3.25502C201.571 2.11797 198.368 0.939619 195.117 -0.279968C197.855 -0.246014 200.592 -0.212009 203.346 0.00287092C204.101 0.301406 204.856 0.599914 205.653 0.849261C210.547 2.60881 215.161 4.30163 219.596 6.01029L221.106 6.60734C236.764 12.621 256.33 20.0704 268.572 32.3536Z" fill="#0046E2"/>
<path d="M287.313 24.6973C289.178 27.2687 290.879 30.037 292.423 33.0923C298.957 45.7838 302.221 60.174 304.768 72.6217C307.373 85.2012 309.778 98.6185 308.015 111.808C306.116 126.058 299.328 137.545 288.408 145.063L288.105 145.226C277.614 152.434 270.09 157.604 268.95 171.15C268.092 181.662 271.404 191.9 275.101 202.379L277.153 208.124C284.907 229.551 292.865 251.735 290.625 274.583C290.167 278.725 289.479 282.841 288.693 286.876C287.612 292.758 286.505 298.872 286.534 304.931C286.629 320.601 294.062 335.22 301.272 349.401C301.493 349.838 301.763 350.316 301.942 350.801C301.258 351.317 300.524 351.791 299.792 352.265C299.513 351.697 299.236 351.129 298.958 350.561C291.592 336.164 283.996 321.242 283.937 304.93C283.892 298.69 285.031 292.438 286.104 286.464C286.808 282.529 287.587 278.403 287.962 274.36C290.167 252.153 282.233 230.241 274.635 209.029L272.582 203.283C268.722 192.5 265.338 181.948 266.337 170.968C267.554 156.231 275.943 150.529 286.557 143.174L286.812 142.969C297.13 135.868 303.563 125.005 305.344 111.494C307.049 98.675 304.667 85.5291 302.128 73.1719C299.547 60.8638 296.306 46.7449 289.977 34.3089C287.502 29.4664 284.631 25.2965 281.486 21.652C281.584 21.7346 281.724 21.7679 281.822 21.8505L287.313 24.6973Z" fill="#0046E2"/>
<path d="M308.84 38.9027C319.405 62.7725 324.415 84.0748 324.092 103.838C323.702 124.382 317.789 139.621 305.979 150.499C304.247 152.064 302.375 153.594 300.545 155.076C295.393 159.219 290.586 163.149 288.215 168.871C285.661 175.111 286.83 182.21 288.293 189.557C291.965 207.558 296.376 225.677 301.297 243.386L301.615 244.406C303.857 252.323 306.115 260.42 305.799 268.789C305.673 272.036 305.169 275.133 304.666 278.231C304.28 280.589 303.901 283.038 303.704 285.471C302.097 303.57 310.885 320.666 319.666 337.172C319.031 337.729 318.356 338.336 317.671 338.851C308.571 321.826 299.423 304.258 301.13 285.24C301.37 282.759 301.74 280.219 302.167 277.812C302.679 274.804 303.183 271.707 303.284 268.689C303.59 260.733 301.348 252.815 299.17 245.121L298.895 244.051C293.833 226.309 289.463 208.141 285.784 190.049C284.198 182.349 283.04 174.839 285.809 167.942C288.405 161.654 293.722 157.315 298.916 153.122C300.705 151.69 302.576 150.159 304.266 148.644C315.532 138.315 321.18 123.691 321.543 103.879C321.893 83.3838 316.345 61.126 304.657 35.8958L304.756 35.9783L308.84 38.9027Z" fill="#0046E2"/>
<path d="M322.661 50.501L327.038 54.6758C332.841 69.4365 337.96 84.713 339.361 100.725C341.413 123.653 334.783 144.241 321.28 157.136C320.018 158.34 318.707 159.504 317.347 160.625C314.081 163.418 310.989 166.104 308.881 169.616C303.109 179.191 306.607 187.909 310.284 197.112C311.507 200.151 312.787 203.321 313.755 206.563C318.541 222.734 320.68 239.366 320.089 256.053C319.955 259.209 319.772 262.324 319.547 265.489C319.13 272.18 318.647 279.15 319.191 285.894C320.352 299.694 325.644 312.767 331.669 325.366C331.091 326.055 330.373 326.711 329.746 327.358C323.493 314.231 317.792 300.647 316.609 286.074C316.048 279.149 316.524 272.089 316.934 265.308C317.118 262.193 317.301 259.078 317.484 255.962C318.098 239.546 315.983 223.186 311.22 207.286C310.309 204.175 309.037 201.096 307.814 198.058C304.031 188.681 300.077 178.909 306.534 168.318C308.841 164.469 312.23 161.529 315.495 158.736C316.764 157.623 318.126 156.501 319.346 155.346C332.345 142.951 338.636 123.167 336.655 101.053C335.293 83.3967 329.135 66.6617 322.661 50.501Z" fill="#0046E2"/>
<path d="M343.534 72.8764L347.757 78.4321C349.803 86.1837 351.486 93.9668 352.405 101.863C355.171 125.138 349.785 146.941 337.528 161.549C336.255 163.164 334.836 164.656 333.466 166.188C327.442 172.868 321.252 179.746 322.425 187.938C322.956 191.401 324.836 194.655 326.708 197.819L327.558 199.203C338.837 218.726 343.253 242.632 339.594 264.876C339.174 267.373 338.672 269.969 338.112 272.434C336.867 278.513 335.596 284.823 335.863 290.999C336.19 298.9 338.992 306.449 342.388 313.49C341.811 314.179 341.191 314.916 340.573 315.654C336.808 308.053 333.629 299.854 333.273 291.088C332.975 284.551 334.321 278.052 335.599 271.833C336.109 269.328 336.62 266.821 337.039 264.324C340.614 242.68 336.386 219.35 325.335 200.354L324.533 199.011C322.555 195.674 320.52 192.207 319.942 188.201C318.576 178.841 325.227 171.513 331.623 164.391C332.993 162.857 334.322 161.374 335.601 159.848C347.405 145.781 352.582 124.727 349.872 102.084C348.697 92.2966 346.477 82.5548 343.534 72.8764Z" fill="#0046E2"/>
<path d="M359.388 96.2378L363.032 102.984C363.602 106.899 364.083 110.822 364.514 114.705C365.973 128.25 360.957 145.416 349.739 165.676C349.069 166.875 348.4 168.073 347.647 169.369C344.67 174.415 341.296 180.134 340.711 185.426C340.126 190.72 342.356 197.452 344.334 203.386C345.017 205.468 345.693 207.46 346.171 209.287L346.829 211.6C351.265 227.392 355.837 243.718 353.241 260.399C352.829 262.988 352.236 265.592 351.726 268.098C350.875 271.91 349.998 275.952 349.747 279.848C349.403 286.35 350.772 292.611 353.119 298.604C352.558 299.474 351.995 300.343 351.384 301.172C348.596 294.305 346.836 287.212 347.223 279.658C347.451 275.491 348.369 271.4 349.254 267.448C349.814 264.983 350.364 262.428 350.693 259.938C353.158 243.817 348.698 227.753 344.336 212.273L343.678 209.961C343.158 208.184 342.531 206.233 341.806 204.2C339.764 198.043 337.42 191.048 338.089 185.154C338.718 179.311 342.207 173.354 345.349 168.111C346.06 166.864 346.82 165.658 347.45 164.509C358.435 144.725 363.317 128.117 361.906 115.115C361.36 108.873 360.494 102.613 359.388 96.2378Z" fill="#0046E2"/>
<path d="M366.419 275.062C365.781 269.329 365.89 263.805 366.074 258.091C366.162 253.89 366.283 249.55 366.076 245.101C365.283 229.265 362.638 214.137 358.172 200.079C357.912 199.19 357.553 198.219 357.244 197.289C355.095 190.959 352.736 183.782 355.258 177.181C356.783 173.264 359.32 169.442 361.775 165.718C363.461 163.108 365.072 160.689 366.363 158.251C371.047 149.272 373.636 139.794 374.73 129.9C375.349 131.76 375.968 133.62 376.545 135.529C375.168 143.762 372.633 151.778 368.653 159.418C367.329 161.995 365.593 164.563 363.949 167.122C361.577 170.748 359.122 174.472 357.712 178.151C355.522 183.858 357.752 190.59 359.771 196.475C360.13 197.447 360.439 198.377 360.749 199.307C365.32 213.537 367.989 228.937 368.798 244.954C369.013 249.494 368.899 253.924 368.77 258.175C368.673 262.285 368.562 266.215 368.779 270.252L366.419 275.062Z" fill="#0046E2"/>
<path d="M381.742 227.733C380.271 220.297 378.397 212.94 376.078 205.714L375.257 203.097C373.142 196.627 371.009 189.977 371.173 182.99C371.436 173.487 375.1 164.825 378.655 156.493C379.293 154.933 379.931 153.373 380.61 151.763C380.968 153.237 381.233 154.717 381.549 156.24C381.4 156.617 381.209 157.044 381.06 157.422C377.58 165.565 374.032 173.989 373.771 182.99C373.61 189.477 375.684 195.995 377.734 202.242L378.556 204.859C380.248 210.135 381.669 215.434 382.917 220.84L381.742 227.733Z" fill="#0046E2"/>
<path d="M87.0237 111.954C84.8973 111.092 82.7183 111.192 81.0707 112.156C77.866 114.077 77.4985 118.211 77.4883 121.22C77.5124 133.479 78.9506 145.749 81.8126 157.623C83.9688 166.641 88.9318 172.314 94.0802 171.773C95.8403 171.573 97.3149 170.715 98.5118 169.288C100.658 166.73 101.922 162.427 102.065 156.763C102.373 143.609 99.3095 130.478 93.2243 118.75C92.1868 116.789 90.8955 114.533 88.7962 112.939C88.263 112.575 87.6393 112.219 87.0237 111.954ZM90.9593 119.95C96.8732 131.283 99.8063 143.97 99.5082 156.713C99.3193 163.931 97.0661 168.913 93.8173 169.289C90.659 169.657 86.3813 165.564 84.363 157.081C81.517 145.389 80.0533 133.347 80.045 121.27C80.0518 119.264 80.2333 116.651 81.5128 115.125C81.7605 114.83 82.0573 114.576 82.4032 114.364C83.4001 113.775 84.7237 113.797 86.136 114.311C86.5629 114.501 86.9484 114.741 87.3832 115.022C88.9493 116.252 90.0773 118.205 90.9593 119.95Z" fill="#0046E2"/>
<path d="M153.687 348.276L153.962 349.346C157.114 360.875 160.365 371.985 163.641 382.865C162.72 382.763 161.792 382.571 160.864 382.378C157.668 371.901 154.581 361.096 151.511 349.971L151.185 348.86C146.234 330.286 142.351 326.023 139.951 325.686C138.2 325.474 136.442 327.77 135.383 329.731C133.448 333.137 133.812 337.299 134.412 342.078L139.06 377.494C138.173 377.253 137.286 377.012 136.35 376.729L131.846 342.439C131.316 338.473 130.604 332.93 133.134 328.516C135.351 324.676 137.79 322.867 140.322 323.147C146.41 323.982 150.65 337.01 153.687 348.276Z" fill="#0046E2"/>
</g>
<defs>
<clipPath id="clip0_1108_672">
<rect width="385" height="385" fill="white"/>
</clipPath>
</defs>
</svg>
